<svg xmlns="http://www.w3.org/2000/svg" width="12" height="12.002" viewBox="0 0 12 12.002"><path d="M312.267,426.779a1.588,1.588,0,0,1-1.583-1.583v-7.879a1.589,1.589,0,0,1,1.583-1.584h.8v-.326a.628.628,0,1,1,1.257,0v.326h4.712v-.326a.628.628,0,1,1,1.257,0v.326h.8a1.587,1.587,0,0,1,1.583,1.584V425.2a1.586,1.586,0,0,1-1.583,1.583Zm-.327-1.583a.329.329,0,0,0,.328.326H321.1a.329.329,0,0,0,.327-.326v-5.34h-9.487Zm9.487-6.6v-1.281a.328.328,0,0,0-.328-.326h-.8v.564a.628.628,0,1,1-1.257,0v-.564h-4.712v.564a.628.628,0,1,1-1.257,0v-.564h-.8a.329.329,0,0,0-.328.327v1.28Z" transform="translate(-310.684 -414.777)" fill="#0786bd"/></svg>