<svg xmlns="http://www.w3.org/2000/svg" width="25" height="25" viewBox="0 0 25 25">
  <path id="Union_79" data-name="Union 79" d="M0,12.5A12.5,12.5,0,1,1,12.5,25,12.55,12.55,0,0,1,0,12.5Zm4.737,0A7.834,7.834,0,0,0,12.5,20.263,7.83,7.83,0,0,0,20.263,12.5,7.83,7.83,0,0,0,12.5,4.736,7.823,7.823,0,0,0,4.737,12.5Zm8.5,2.979a3.064,3.064,0,0,0,1.484-.854l2.816,1.626a6.269,6.269,0,0,1-4.3,2.475ZM7.47,16.25l2.816-1.626a3.057,3.057,0,0,0,1.482.854v3.246A6.269,6.269,0,0,1,7.47,16.25Zm7.972-2.9a2.749,2.749,0,0,0,0-1.7l2.84-1.639a6.255,6.255,0,0,1,0,4.981ZM6.2,12.5a6.244,6.244,0,0,1,.52-2.491l2.838,1.639a2.749,2.749,0,0,0,0,1.7L6.721,14.99A6.236,6.236,0,0,1,6.2,12.5Zm4.689,0A1.611,1.611,0,1,1,12.5,14.111,1.613,1.613,0,0,1,10.89,12.5Zm2.342-2.979V6.275a6.268,6.268,0,0,1,4.3,2.474l-2.816,1.626A3.062,3.062,0,0,0,13.232,9.521ZM7.47,8.749a6.268,6.268,0,0,1,4.3-2.474V9.521a3.056,3.056,0,0,0-1.482.853Z" transform="translate(0)" fill="#fff"/>
</svg>
