<svg xmlns="http://www.w3.org/2000/svg" width="24.14" height="17.085" viewBox="0 0 24.14 17.085">
  <path id="Path_56" data-name="Path 56" d="M24,10.994a.621.621,0,0,0-.479-.228H21.173a8.009,8.009,0,0,0-2.194-3.593c-2.97-1.954-10.848-1.954-13.818,0C4.3,7.739,3.55,9.239,2.967,10.766H.618a.619.619,0,0,0-.605.744L.361,13.2a.618.618,0,0,0,.605.493h.7a4.174,4.174,0,0,0-1,2.728,4.086,4.086,0,0,0,1.291,3.068c.009.008.019.014.027.022v2.359a.928.928,0,0,0,.927.927H5.073A.928.928,0,0,0,6,21.865v-.948H18.14v.948a.928.928,0,0,0,.927.927h2.167a.929.929,0,0,0,.927-.927V19.552a4.241,4.241,0,0,0,.271-5.865h.742a.616.616,0,0,0,.605-.493l.349-1.686A.623.623,0,0,0,24,10.994ZM6.18,8.721c2.367-1.558,9.413-1.558,11.779,0a7.643,7.643,0,0,1,1.593,3.015H4.588A7.644,7.644,0,0,1,6.18,8.721ZM3.407,16.648a1.824,1.824,0,1,1,1.824,1.824A1.824,1.824,0,0,1,3.407,16.648Zm15.526,1.824a1.824,1.824,0,1,1,1.824-1.824A1.824,1.824,0,0,1,18.933,18.472Z" transform="translate(0 -5.707)" fill="#fff"/>
</svg>
