<svg id="Group_4190" data-name="Group 4190" xmlns="http://www.w3.org/2000/svg" width="17.664" height="20.324" viewBox="0 0 17.664 20.324">
  <path id="Path_2352" data-name="Path 2352" d="M513.464,495.758h-2.488v.28a1.343,1.343,0,0,1-1.342,1.341h-8.163a1.342,1.342,0,0,1-1.341-1.341v-.28h-2.488a.922.922,0,0,0-.922.922V515.16a.922.922,0,0,0,.922.922h15.821a.921.921,0,0,0,.921-.922V496.68A.921.921,0,0,0,513.464,495.758ZM502.1,512.616a.231.231,0,0,1-.231.231H499.8a.231.231,0,0,1-.23-.231v-2.073a.23.23,0,0,1,.23-.23h2.073a.23.23,0,0,1,.231.23Zm0-5.032a.23.23,0,0,1-.231.23H499.8a.23.23,0,0,1-.23-.23V505.51a.231.231,0,0,1,.23-.231h2.073a.231.231,0,0,1,.231.231Zm0-5.032a.231.231,0,0,1-.231.23H499.8a.23.23,0,0,1-.23-.23v-2.073a.231.231,0,0,1,.23-.231h2.073a.231.231,0,0,1,.231.231Zm6.36,9.488h-4.307a.461.461,0,1,1,0-.922h4.307a.461.461,0,1,1,0,.922Zm1.36-5.033h-5.667a.461.461,0,1,1,0-.922h5.667a.461.461,0,0,1,0,.922Zm1.251-5.032h-6.917a.461.461,0,1,1,0-.922h6.917a.461.461,0,0,1,0,.922Z" transform="translate(-496.721 -495.758)" fill="#fff"/>
</svg>
