<svg xmlns="http://www.w3.org/2000/svg" width="22.686" height="24.833" viewBox="0 0 22.686 24.833">
  <g id="Group_3792" data-name="Group 3792" transform="translate(0)">
    <path id="Path_371" data-name="Path 371" d="M146.637,301.76a2.21,2.21,0,0,0-3.122,0l-2.632,2.632a2.959,2.959,0,0,1-2.914,3.468h-.009l-4.572-.014a.752.752,0,0,1,0-1.5h0l4.572.014h0a1.456,1.456,0,0,0,0-2.912l-3.165-.009a.707.707,0,0,1-.649-.377,2.645,2.645,0,0,0-2.3-.93h-.015a2.931,2.931,0,0,0-2.227.794v8.75h8.339a4.545,4.545,0,0,0,3.235-1.34l5.451-5.451a2.21,2.21,0,0,0,0-3.122Z" transform="translate(-124.597 -286.84)" fill="#fff"/>
    <path id="Path_372" data-name="Path 372" d="M30.2,332.477a.752.752,0,0,0-.752.752v7.485a.752.752,0,0,0,.752.752h2.76v-8.988Z" transform="translate(-29.445 -316.632)" fill="#fff"/>
    <path id="Path_373" data-name="Path 373" d="M125.633,0A7.069,7.069,0,1,0,132.7,7.069,7.077,7.077,0,0,0,125.633,0Zm2.394,4.633L126.989,6.3h.223a.752.752,0,1,1,0,1.5h-.827v.5h.827a.752.752,0,1,1,0,1.5h-.827v.6a.752.752,0,1,1-1.5,0V9.8h-.827a.752.752,0,1,1,0-1.5h.827V7.8h-.827a.752.752,0,1,1,0-1.5h.223l-1.038-1.662a.752.752,0,1,1,1.275-.8l1.119,1.792,1.119-1.792a.752.752,0,0,1,1.275.8Z" transform="translate(-114.102)" fill="#fff"/>
  </g>
</svg>
