<svg xmlns="http://www.w3.org/2000/svg" width="29.225" height="29.25" viewBox="0 0 29.225 29.25">
  <g id="Group_3173" data-name="Group 3173" transform="translate(15) rotate(45)">
    <g id="Group_3163" data-name="Group 3163" transform="translate(0 0)">
      <g id="Group_3162" data-name="Group 3162" transform="translate(0 0)">
        <path id="Path_2174" data-name="Path 2174" d="M0,6.324v0L.534,6.6A5.346,5.346,0,0,1,5,3.957,2.771,2.771,0,0,1,8.042,6.924v3.957h4.03l-.017-3.957c0-.634.268-2.968,2.283-2.968a2.012,2.012,0,0,1,1.5.667.991.991,0,0,0,.738.322h3.041a.5.5,0,0,0,.5-.495V.495a.5.5,0,0,0-.5-.495H16.572a1,1,0,0,0-.739.322,2.01,2.01,0,0,1-1.5.667,2.011,2.011,0,0,1-1.5-.667A.991.991,0,0,0,12.106,0H8.026C5.453,0,1.246,2.747,0,6.324Z" transform="translate(0)" fill="#fff"/>
      </g>
    </g>
    <g id="Group_3165" data-name="Group 3165" transform="translate(6.998 12.385)">
      <g id="Group_3164" data-name="Group 3164" transform="translate(0 0)">
        <path id="Path_2175" data-name="Path 2175" d="M6.046,6.924A12.014,12.014,0,0,0,5.056,0H1.1A12.006,12.006,0,0,0,.11,6.924c.5,5.607-.039,5.88-.049,6.983s.617,1.92,1.379,1.92H4.717c.762,0,1.389-.817,1.379-1.92S5.547,12.531,6.046,6.924Z" fill="#fff"/>
      </g>
    </g>
  </g>
</svg>
