<svg xmlns="http://www.w3.org/2000/svg" width="105" height="30" viewBox="0 0 105 30">
  <g id="그룹_4148" data-name="그룹 4148" transform="translate(-1265 -176)">
    <g id="그룹_3528" data-name="그룹 3528" transform="translate(245 72)">
      <g id="사각형_9" data-name="사각형 9" transform="translate(1020 104)" fill="#fff" stroke="#dfe6f0" stroke-width="1">
        <rect width="105" height="30" rx="15" stroke="none"/>
        <rect x="0.5" y="0.5" width="104" height="29" rx="14.5" fill="none"/>
      </g>
      <text id="エリア設定" transform="translate(1055 123)" fill="#0786bd" font-size="10" font-family="AppleSDGothicNeo-Regular, Apple SD Gothic Neo"><tspan x="0" y="0">エリア設定</tspan></text>
    </g>
    <path id="패스_2308" data-name="패스 2308" d="M163.24,70A5.24,5.24,0,0,0,158,75.24c0,2.894,5.24,10.479,5.24,10.479s5.24-7.585,5.24-10.479A5.24,5.24,0,0,0,163.24,70Zm0,7.859a2.62,2.62,0,1,1,2.62-2.62A2.62,2.62,0,0,1,163.24,77.859Z" transform="translate(1125.521 113.281)" fill="#0786bd"/>
  </g>
</svg>
