<svg xmlns="http://www.w3.org/2000/svg" width="20" height="20" viewBox="0 0 20 20">
  <g id="그룹_3790" data-name="그룹 3790" transform="translate(0 0)">
    <rect id="사각형_256" data-name="사각형 256" width="20" height="20" rx="4" transform="translate(0 0)" fill="#1e5199"/>
    <g id="그룹_3792" data-name="그룹 3792" transform="translate(4.223 3.292)">
      <path id="패스_371" data-name="패스 371" d="M138.124,301.438a1.105,1.105,0,0,0-1.561,0l-1.316,1.316a1.479,1.479,0,0,1-1.457,1.734h0l-2.286-.007a.376.376,0,0,1,0-.752h0l2.286.007h0a.728.728,0,0,0,0-1.456l-1.582,0a.354.354,0,0,1-.325-.188,1.322,1.322,0,0,0-1.152-.465h-.007a1.466,1.466,0,0,0-1.114.4v4.375h4.17a2.272,2.272,0,0,0,1.617-.67L138.124,303a1.105,1.105,0,0,0,0-1.561Z" transform="translate(-127.105 -293.977)" fill="#fff"/>
      <path id="패스_372" data-name="패스 372" d="M29.821,332.477a.376.376,0,0,0-.376.376V336.6a.376.376,0,0,0,.376.376H31.2v-4.494Z" transform="translate(-29.445 -324.555)" fill="#fff"/>
      <path id="패스_373" data-name="패스 373" d="M122.1,0a3.535,3.535,0,1,0,3.535,3.535A3.539,3.539,0,0,0,122.1,0Zm1.2,2.317-.519.831h.111a.376.376,0,1,1,0,.752h-.413V4.15h.413a.376.376,0,1,1,0,.752h-.413v.3a.376.376,0,1,1-.752,0V4.9h-.413a.376.376,0,1,1,0-.752h.413V3.9h-.413a.376.376,0,1,1,0-.752h.111l-.519-.831a.376.376,0,1,1,.638-.4l.56.9.56-.9a.376.376,0,0,1,.638.4Z" transform="translate(-116.333)" fill="#fff"/>
    </g>
  </g>
</svg>
