<svg xmlns="http://www.w3.org/2000/svg" width="14.729" height="14" viewBox="0 0 14.729 14">
  <g id="Group_2251" data-name="Group 2251" transform="translate(0 -12.675)">
    <g id="Group_2250" data-name="Group 2250" transform="translate(0 12.675)">
      <path id="Path_1671" data-name="Path 1671" d="M14.482,18.9,7.873,12.874a.752.752,0,0,0-1.017,0L.247,18.9a.755.755,0,0,0,.509,1.314H1.812v6.033a.433.433,0,0,0,.433.433H5.867a.433.433,0,0,0,.433-.433V22.579H8.429v3.663a.433.433,0,0,0,.433.433h3.622a.433.433,0,0,0,.433-.433V20.209h1.056a.755.755,0,0,0,.509-1.314Z" transform="translate(0 -12.675)" fill="#333"/>
    </g>
  </g>
</svg>
