<svg xmlns="http://www.w3.org/2000/svg" width="17.821" height="14.366" viewBox="0 0 17.821 14.366"><g transform="translate(-338.955 -412.694)"><path d="M354.152,427.06h-6.278a.8.8,0,0,1-.8-.8v-5.31a.085.085,0,0,0-.085-.085h-2.657a.085.085,0,0,0-.084.085v5.312a.8.8,0,0,1-.8.8h-1.867a1.286,1.286,0,0,1-1.284-1.285v-7.553h1.2v7.553a.085.085,0,0,0,.085.085h1.467v-4.911a1.285,1.285,0,0,1,1.283-1.285h2.657a1.286,1.286,0,0,1,1.284,1.285v4.911h5.879a.085.085,0,0,0,.085-.085v-7.553h1.2v7.553A1.287,1.287,0,0,1,354.152,427.06Z" fill="#0786bd"/><rect width="1.2" height="4.256" transform="translate(351.609 419.494)" fill="#0786bd"/><rect width="1.2" height="4.256" transform="translate(349.572 419.494)" fill="#0786bd"/><path d="M356.776,416.992H338.955l.887-3.343a1.284,1.284,0,0,1,1.241-.955h13.569a1.286,1.286,0,0,1,1.242.957Zm-16.26-1.2h14.7l-.485-1.835a.083.083,0,0,0-.081-.062H341.083a.085.085,0,0,0-.081.061h0Z" fill="#0786bd"/></g></svg>