<svg xmlns="http://www.w3.org/2000/svg" width="130.903" height="130.968" viewBox="0 0 130.903 130.968">
  <g id="グループ_4231" data-name="グループ 4231" transform="translate(-407.491 -223.067)">
    <g id="グループ_4231-2" data-name="グループ 4231" transform="translate(407.491 338.792)">
      <path id="パス_2359" data-name="パス 2359" d="M442.587,570.891h2.977v-9.806h-2.336V559.18a2.964,2.964,0,0,0,2.211-.92,1.573,1.573,0,0,0,.125-.151v-1.561h-2.977Z" transform="translate(-430.354 -556.039)"/>
      <path id="パス_2360" data-name="パス 2360" d="M411.108,567.361a17.917,17.917,0,0,0,.142,3.042h-3.759a17.862,17.862,0,0,0,.156-2.99v-9.055a17.638,17.638,0,0,0-.138-2.551c.717.038,1.206.054,2.551.054h5.053a20.119,20.119,0,0,0,2.934-.125v3.324a23.629,23.629,0,0,0-2.919-.124h-4.02V561.8H414.4a22.62,22.62,0,0,0,2.8-.121v3.232a22.885,22.885,0,0,0-2.8-.124h-3.287Z" transform="translate(-407.491 -555.511)"/>
      <path id="パス_2361" data-name="パス 2361" d="M467.067,570.535a16.875,16.875,0,0,0-.855-2.725c-.559-1.523-.769-1.925-1.206-2.309a1.921,1.921,0,0,0-1.364-.473h-1.783V567.9a18.391,18.391,0,0,0,.139,2.637H458.24a17.1,17.1,0,0,0,.141-2.625v-9.4a18.451,18.451,0,0,0-.141-2.572c.769.038,1.416.054,2.606.054h4.543c2.831,0,4.474,1.464,4.474,3.986a3.41,3.41,0,0,1-2.691,3.737c.891.282,1.294.685,1.852,1.924.262.559.507,1.154,1.293,3.044.193.487.4.924.84,1.851Zm-2.481-8.5a1.525,1.525,0,0,0,1.661-1.623c0-.98-.56-1.486-1.645-1.486h-2.743v3.109Z" transform="translate(-440.552 -555.643)"/>
      <path id="パス_2362" data-name="パス 2362" d="M498.837,565.244a2.326,2.326,0,0,0,.456,1.294,2.547,2.547,0,0,0,2.046.818c1.345,0,2.149-.592,2.149-1.572a1.321,1.321,0,0,0-.734-1.223,13.977,13.977,0,0,0-2.621-.715,6.823,6.823,0,0,1-2.815-1.015,3.935,3.935,0,0,1-1.694-3.356c0-2.693,2.168-4.387,5.609-4.387,2.221,0,3.915.681,4.858,1.992a4.863,4.863,0,0,1,.876,2.1l-3.707.4c-.209-1.136-.838-1.611-2.167-1.611-1.065,0-1.853.581-1.853,1.384a1.205,1.205,0,0,0,.823,1.12,10.488,10.488,0,0,0,2.411.574,8.466,8.466,0,0,1,2.832,1,3.9,3.9,0,0,1,1.886,3.563,4.385,4.385,0,0,1-1.221,3.218,6.413,6.413,0,0,1-4.6,1.486,8.288,8.288,0,0,1-3.9-.857,4.134,4.134,0,0,1-1.889-2.236,6.516,6.516,0,0,1-.382-1.627Z" transform="translate(-464.631 -555.089)"/>
      <path id="パス_2363" data-name="パス 2363" d="M539.692,567.766a19.653,19.653,0,0,0,.14,2.637H535.97a19.726,19.726,0,0,0,.14-2.637v-8.811h-2.065a24.625,24.625,0,0,0-2.64.12v-3.338a23.845,23.845,0,0,0,2.608.125h7.652a23.134,23.134,0,0,0,2.73-.125v3.338a22.753,22.753,0,0,0-2.73-.12h-1.973Z" transform="translate(-488.215 -555.511)"/>
      <path id="パス_2364" data-name="パス 2364" d="M591.881,564.729a11.438,11.438,0,0,0-1.731.088v-3.094a14.892,14.892,0,0,0,2.289.1h1.4c.893,0,1.541-.018,2.308-.087a16.623,16.623,0,0,0-.123,2.378v1.959a17.841,17.841,0,0,0,.123,2.6,8.609,8.609,0,0,1-2.221,1.1,11.628,11.628,0,0,1-3.706.6,6.955,6.955,0,0,1-5.188-1.87,8.14,8.14,0,0,1-2.062-5.8c0-4.6,2.777-7.517,7.184-7.517a6.088,6.088,0,0,1,5,2.082,5.07,5.07,0,0,1,1.035,1.9l-3.568.823a2.221,2.221,0,0,0-.786-1.259,2.693,2.693,0,0,0-1.767-.54c-2.236,0-3.459,1.625-3.459,4.56a5.393,5.393,0,0,0,1.067,3.654,3.281,3.281,0,0,0,2.517.942,5.252,5.252,0,0,0,2.536-.629v-1.992Z" transform="translate(-521.805 -555.152)"/>
      <path id="パス_2365" data-name="パス 2365" d="M635.224,570.535a16.652,16.652,0,0,0-.859-2.725c-.558-1.523-.769-1.925-1.2-2.309a1.916,1.916,0,0,0-1.363-.473h-1.781V567.9a18.56,18.56,0,0,0,.138,2.637H626.4a17.447,17.447,0,0,0,.14-2.625v-9.4a18.849,18.849,0,0,0-.14-2.572c.767.038,1.417.054,2.6.054h4.544c2.834,0,4.475,1.464,4.475,3.986a3.414,3.414,0,0,1-2.692,3.737c.891.282,1.294.685,1.853,1.924.261.559.508,1.154,1.293,3.044.191.487.405.924.841,1.851Zm-2.484-8.5a1.524,1.524,0,0,0,1.662-1.623c0-.98-.559-1.486-1.644-1.486h-2.742v3.109Z" transform="translate(-550.098 -555.643)"/>
      <path id="パス_2366" data-name="パス 2366" d="M677.463,562.7c0,4.617-2.817,7.673-7.064,7.673-4.281,0-7.043-2.988-7.043-7.622,0-4.613,2.761-7.569,7.06-7.569S677.463,558.124,677.463,562.7Zm-3.636.035c0-2.832-1.294-4.544-3.41-4.544-2.134,0-3.444,1.731-3.444,4.544,0,2.851,1.31,4.612,3.444,4.612C672.532,567.35,673.826,565.6,673.826,562.738Z" transform="translate(-574.175 -555.152)"/>
      <path id="パス_2367" data-name="パス 2367" d="M720.142,556.095a17.083,17.083,0,0,0-.14,2.638v6.012c0,3.985-2.394,6.242-6.606,6.242a6.791,6.791,0,0,1-4.982-1.714,6.432,6.432,0,0,1-1.538-4.562v-5.977a17.4,17.4,0,0,0-.14-2.638h3.777a15.931,15.931,0,0,0-.144,2.638v6.012c0,2.2,1,3.253,3.045,3.253,2.093,0,3.089-1.054,3.089-3.253v-6.012a17.243,17.243,0,0,0-.138-2.638Z" transform="translate(-602.436 -555.744)"/>
      <path id="パス_2368" data-name="パス 2368" d="M749.312,570.535a18.522,18.522,0,0,0,.139-2.587V558.49a19.278,19.278,0,0,0-.139-2.551c.822.038,1.449.054,2.569.054h3.828c3.459,0,5.365,1.659,5.365,4.7,0,3.108-1.991,4.961-5.384,4.961h-2.762V567.9a22.7,22.7,0,0,0,.141,2.637Zm6.222-7.848a1.744,1.744,0,0,0,1.941-1.89,1.691,1.691,0,0,0-1.941-1.835h-2.605v3.724Z" transform="translate(-630.172 -555.643)"/>
    </g>
    <g id="グループ_4232" data-name="グループ 4232" transform="translate(407.759 223.067)">
      <path id="パス_2369" data-name="パス 2369" d="M605.456,223.067,540.465,332.195h32.757Z" transform="translate(-494.385 -223.067)" fill="#e50012"/>
      <path id="パス_2370" data-name="パス 2370" d="M408.259,332.195h38.809L519.33,223.067Z" transform="translate(-408.259 -223.067)" fill="#e50012"/>
      <path id="パス_2371" data-name="パス 2371" d="M679.279,223.067l-.042.225-25.452,108.9h44.479Z" transform="translate(-568.209 -223.067)" fill="#e50012"/>
    </g>
  </g>
</svg>
