<svg xmlns="http://www.w3.org/2000/svg" width="164.973" height="75.953" viewBox="0 0 164.973 75.953"><path d="M285.55,123.1q.688-3.57.871-4.918c.121-.9.312-2.307.579-4.228a85.168,85.168,0,0,1,17.926-2.3,29.786,29.786,0,0,1,7.83.964,11.321,11.321,0,0,1,5.537,3.1,8.614,8.614,0,0,1,1.995,6.128q0,2.027-.553,9.141-.524,7.1-.8,18.64-3.572-.072-7.1-.073-3.417,0-7.265.073c.337-2.665.688-8.164,1.1-16.5a22.174,22.174,0,0,1-2.152.951c-.528.2-1.426.5-2.732.891s-2.326.721-3.056.994A7.355,7.355,0,0,0,295.817,137a3.846,3.846,0,0,0-1.158,1.288,3.17,3.17,0,0,0-.334,1.474,2.769,2.769,0,0,0,.979,2.14,4.654,4.654,0,0,0,3.127.882,11.2,11.2,0,0,0,1.66-.126,15.009,15.009,0,0,0,2.4-.618q-1.071,2.749-2.527,8.028a36.293,36.293,0,0,1-5.909.52,19.563,19.563,0,0,1-7.5-1.254,9.389,9.389,0,0,1-4.6-4.051,11.034,11.034,0,0,1-1.62-5.6,9.785,9.785,0,0,1,.6-3.344,11.006,11.006,0,0,1,1.875-3.193,12.678,12.678,0,0,1,2.957-2.667,20.516,20.516,0,0,1,4.648-2.091,60.4,60.4,0,0,1,7.478-1.846c1.249-.25,2.41-.51,3.463-.778a16.692,16.692,0,0,0,2.235-.73,3.892,3.892,0,0,0,1.078-.721,2.319,2.319,0,0,0,.592-.867,2.593,2.593,0,0,0,.181-.955,2.4,2.4,0,0,0-1.143-2.14,6.2,6.2,0,0,0-3.4-.759,44.648,44.648,0,0,0-15.354,3.5m41.5,26.528L328.2,133.5l.366-9.267c.024-1.671.038-3.37.038-5.114q0-2.659-.072-6.578c2.92.049,5.249.075,6.959.075,2.016,0,4.319-.024,6.944-.075l-.162,4.148a27.029,27.029,0,0,1,2.332-2.376,11.946,11.946,0,0,1,2.073-1.411,10.131,10.131,0,0,1,2.433-.945,11.31,11.31,0,0,1,2.674-.309,12.93,12.93,0,0,1,2.908.372c.026,2.639.086,4.8.183,6.528l.267,5.583a13.371,13.371,0,0,0-3.758-.6,10.2,10.2,0,0,0-3.764.631,7.868,7.868,0,0,0-2.809,1.93,9.527,9.527,0,0,0-1.95,3.208,22.244,22.244,0,0,0-1.011,6.093c-.207,2.773-.3,5.957-.3,9.537,0,1.264.043,2.821.15,4.682q-3.543-.072-7.091-.073-3.516.011-7.565.087Zm-82.984-.837c-6.867-1.695-14.048-3.934-16.8-10.987-3.562-9.195-7.215-19.994,7.619-30.1h0a219.877,219.877,0,0,1,27.055-15.032A199.612,199.612,0,0,1,289.9,82.1,183.04,183.04,0,0,1,324.3,75.113c11.921-1.078,23.895-.421,34.657,3.385,9.6,3.389,17.721,8.86,23.1,16.8,4.825,7.112,7.454,16.2,6.959,27.523l-.025.544-.435-.328-.063-.049a22.707,22.707,0,0,0-8.11-1.6,10.852,10.852,0,0,0-4.141.582,1.9,1.9,0,0,0-1.27,1.807,2.131,2.131,0,0,0,.141.75,2.5,2.5,0,0,0,.531.769,7.553,7.553,0,0,0,.933.817c.363.27,1.279.916,2.719,1.93s2.584,1.857,3.4,2.514a18.939,18.939,0,0,1,3.083,2.948,10.573,10.573,0,0,1,1.639,2.909,9.773,9.773,0,0,1,.541,3.247,9.4,9.4,0,0,1-1.246,4.732,9.885,9.885,0,0,1-3.77,3.614,17.491,17.491,0,0,1-5.463,2.019,32.213,32.213,0,0,1-6.06.558,50.343,50.343,0,0,1-5.27-.358c-2.119-.25-4.577-.67-7.389-1.278-.1-1.063-.186-2.194-.277-3.37s-.25-2.8-.466-4.855l-.291-2.626a55.87,55.87,0,0,0,6.024,2.073,17.986,17.986,0,0,0,4.657.676,10.578,10.578,0,0,0,2.872-.318,3.218,3.218,0,0,0,1.617-.94,2.014,2.014,0,0,0,.51-1.264,1.976,1.976,0,0,0-.39-1.156,7.76,7.76,0,0,0-1.7-1.533c-1.977-1.45-3.7-2.773-5.224-3.962a21.694,21.694,0,0,1-3.371-3.16,10.482,10.482,0,0,1-1.734-2.972,9.412,9.412,0,0,1-.6-3.292,10.044,10.044,0,0,1,1.72-5.637,9.758,9.758,0,0,1,5.069-3.791c.268-.093.547-.181.826-.264.384-12.271-5.159-19.51-13.166-23.614-8.34-4.282-19.348-5.177-29.171-4.829a125.991,125.991,0,0,0-30.294,4.859,158.135,158.135,0,0,0-28.387,11.4l-.039.019H266.9a122.488,122.488,0,0,0-13.887,3.5,66.583,66.583,0,0,0-13.487,5.99c-10.466,6.236-8.026,17.6-5.78,27.577.735,3.281,3.31,4.57,6.774,6.035a19.694,19.694,0,0,0,3.542,5.3Zm31.393-10.756c-.124.964-.414,2.747-.859,5.339l-.924,5.81c-15.146,3.749-30.167.43-30.167-17.428a25.078,25.078,0,0,1,1.524-8.67,16.793,16.793,0,0,1,4.5-6.872,15.339,15.339,0,0,1,6.62-3.629,32.161,32.161,0,0,1,8.017-.93,49.2,49.2,0,0,1,5.191.274,51.9,51.9,0,0,1,6.462,1.215l.079.828c.066.867.114,1.759.148,2.665s.118,2.326.223,4.286l.216,3.218a28.708,28.708,0,0,0-9.174-1.783,11.039,11.039,0,0,0-5.041,1.1,7.153,7.153,0,0,0-3.2,3.184,10.959,10.959,0,0,0-1.018,4.831,10.6,10.6,0,0,0,.928,4.658,5.9,5.9,0,0,0,2.956,2.821,10.451,10.451,0,0,0,4.462.94,19.716,19.716,0,0,0,2.924-.259c1.126-.162,2.107-.357,2.951-.558a32.435,32.435,0,0,0,3.182-1.038Z" transform="translate(-224.093 -74.646)" fill="#1e5199" fill-rule="evenodd" opacity="0.151"/></svg>