<svg id="コンポーネント_187_1" data-name="コンポーネント 187 – 1" xmlns="http://www.w3.org/2000/svg" width="116" height="77" viewBox="0 0 116 77">
  <g id="コンポーネント_183_1" data-name="コンポーネント 183 – 1">
    <rect id="長方形_84" data-name="長方形 84" width="116" height="77" rx="4" fill="#f2f6fa"/>
  </g>
  <path id="パス_1620" data-name="パス 1620" d="M147.827,185.907a.729.729,0,1,1,0-1.458h22.027a.729.729,0,1,1,0,1.458Zm0-16.94a.729.729,0,1,1,0-1.458h11.5a.729.729,0,0,1,0,1.458ZM162.1,155.855a.729.729,0,1,0,0-1.457H135.3a.729.729,0,0,0,0,1.457Zm-43.966,3.3v-5.106a2.921,2.921,0,0,1,2.915-2.915h55.308a2.908,2.908,0,0,1,2.059.852l0,0a2.911,2.911,0,0,1,.853,2.059v5.106Zm61.139,1.457H118.131v29.14a2.9,2.9,0,0,0,.853,2.059l0,0a2.9,2.9,0,0,0,2.059.853h55.308a2.922,2.922,0,0,0,2.915-2.915v-29.14Zm-58.224-10.936a4.381,4.381,0,0,0-4.373,4.373v35.7a4.36,4.36,0,0,0,1.276,3.079l.007.007h0a4.36,4.36,0,0,0,3.087,1.283h55.308a4.38,4.38,0,0,0,4.373-4.373v-35.7a4.355,4.355,0,0,0-1.283-3.087l0,0a4.359,4.359,0,0,0-3.087-1.283Zm10.437,25.787-.228,0a4.791,4.791,0,1,1,.449,0l-.222,0Zm3.246.555a9.73,9.73,0,0,1,3.625,2.291l.041.044a9.686,9.686,0,0,1,2.8,6.827.729.729,0,0,1-.728.728H122.5a.729.729,0,0,1-.729-.728,9.685,9.685,0,0,1,2.845-6.868l0,0a9.726,9.726,0,0,1,3.618-2.288,6.249,6.249,0,1,1,6.5,0Zm2.594,3.322.038.035a8.237,8.237,0,0,1,2.35,5.076H123.255a8.253,8.253,0,0,1,7.988-7.526q.117,0,.236,0c.081,0,.16,0,.24,0a8.233,8.233,0,0,1,5.6,2.416Zm10.5.473a.729.729,0,1,1,0-1.457h26.615a.729.729,0,0,1,0,1.457Z" transform="translate(-91.204 -133.186)" fill="#8c9baf" fill-rule="evenodd"/>
</svg>
