<svg id="그룹_2901" data-name="그룹 2901" xmlns="http://www.w3.org/2000/svg" width="14.279" height="11.55" viewBox="0 0 14.279 11.55">
  <path id="패스_1769" data-name="패스 1769" d="M4.885,108.843l.661,1.323.665-1.33-.262-.525a2.958,2.958,0,0,0-2.661-1.644H0v1.19H3.289a1.775,1.775,0,0,1,1.6.987Z" transform="translate(0 -105.056)" fill="#0786bd"/>
  <path id="패스_1770" data-name="패스 1770" d="M252.035,280.55l-.841.841.769.769h-2.447a1.775,1.775,0,0,1-1.6-.987l-.661-1.323-.665,1.33.262.525a2.958,2.958,0,0,0,2.661,1.644h2.447l-.769.769.841.841,1.785-1.785a.6.6,0,0,0,0-.841h0Z" transform="translate(-239.715 -273.411)" fill="#0786bd"/>
  <path id="패스_1771" data-name="패스 1771" d="M14.1,50.7l-1.785-1.785-.841.841.769.769H9.8A2.958,2.958,0,0,0,7.139,52.17L4.885,56.678a1.775,1.775,0,0,1-1.6.987H0v1.19H3.289A2.958,2.958,0,0,0,5.949,57.21L8.2,52.7a1.775,1.775,0,0,1,1.6-.987h2.447l-.769.769.841.841L14.1,51.541a.6.6,0,0,0,0-.841Z" transform="translate(0 -48.915)" fill="#0786bd"/>
</svg>
