<svg id="コンポーネント_186_14" data-name="コンポーネント 186 – 14" xmlns="http://www.w3.org/2000/svg" width="89" height="24" viewBox="0 0 89 24">
  <path id="パス_1793" data-name="パス 1793" d="M22.171,40.364H19.8l-.618-1.526a.539.539,0,0,0-.5-.338H16.25a.535.535,0,0,0-.5.338l-.618,1.526h-2.37A1.765,1.765,0,0,0,11,42.127v6.089a1.765,1.765,0,0,0,1.763,1.763h9.4a1.765,1.765,0,0,0,1.763-1.763V42.127A1.762,1.762,0,0,0,22.171,40.364Zm-5.559-.787h1.71l.317.784H16.292l.319-.784Zm6.245,8.639a.688.688,0,0,1-.686.686H12.763a.688.688,0,0,1-.686-.686V42.127a.688.688,0,0,1,.686-.686h9.4a.688.688,0,0,1,.686.686v6.089Z" transform="translate(0 -32.5)" fill="#0786bd"/>
  <g id="コンポーネント_185_27" data-name="コンポーネント 185 – 27">
    <g id="コンポーネント_182_1" data-name="コンポーネント 182 – 1">
      <g id="長方形_85" data-name="長方形 85" fill="none" stroke="#e5edf6" stroke-width="1">
        <rect width="89" height="24" rx="12" stroke="none"/>
        <rect x="0.5" y="0.5" width="88" height="23" rx="11.5" fill="none"/>
      </g>
    </g>
    <text id="写真選択" transform="translate(29.39 17)" fill="#0786bd" font-size="12" font-family="HiraginoSans-W3, Hiragino Sans"><tspan x="0" y="0">写真選択</tspan></text>
  </g>
</svg>
