<svg xmlns="http://www.w3.org/2000/svg" width="14.555" height="14.555" viewBox="0 0 14.555 14.555"><path d="M10.333,4.674,5.91.251A.84.84,0,0,0,5.292,0a.8.8,0,0,0-.611.251L.258,4.674a.861.861,0,0,0,0,1.23l.509.509a.808.808,0,0,0,.611.258.808.808,0,0,0,.611-.258l2-1.99V9.205a.724.724,0,0,0,.255.574A.907.907,0,0,0,4.857,10h.87a.907.907,0,0,0,.615-.221A.724.724,0,0,0,6.6,9.205V4.423l2,1.99a.807.807,0,0,0,.612.258.843.843,0,0,0,.618-.258l.509-.509a.877.877,0,0,0,0-1.23Z" transform="translate(7.071 0) rotate(45)" fill="#db3394"/></svg>