<svg xmlns="http://www.w3.org/2000/svg" width="54" height="53" viewBox="0 0 54 53">
  <g id="コンポーネント_694_1" data-name="コンポーネント 694 – 1" transform="translate(1 1)">
    <g id="長方形_3045" data-name="長方形 3045" fill="#fff" stroke="rgba(30,81,153,0.15)" stroke-width="1">
      <rect width="52" height="51" rx="25.5" stroke="none"/>
      <rect x="-0.5" y="-0.5" width="53" height="52" rx="26" fill="none"/>
    </g>
    <path id="パス_2352" data-name="パス 2352" d="M514.855,495.758H512.16v.3a1.455,1.455,0,0,1-1.453,1.452h-8.841a1.454,1.454,0,0,1-1.452-1.452v-.3h-2.695a1,1,0,0,0-1,1v20.016a1,1,0,0,0,1,1h17.135a1,1,0,0,0,1-1V496.756A1,1,0,0,0,514.855,495.758Zm-12.3,18.258a.25.25,0,0,1-.25.25h-2.246a.25.25,0,0,1-.249-.25V511.77a.25.25,0,0,1,.249-.249H502.3a.25.25,0,0,1,.25.249Zm0-5.45a.249.249,0,0,1-.25.249h-2.246a.249.249,0,0,1-.249-.249V506.32a.25.25,0,0,1,.249-.25H502.3a.25.25,0,0,1,.25.25Zm0-5.45a.25.25,0,0,1-.25.249h-2.246a.249.249,0,0,1-.249-.249v-2.246a.25.25,0,0,1,.249-.25H502.3a.25.25,0,0,1,.25.25Zm6.888,10.276h-4.665a.5.5,0,1,1,0-1h4.665a.5.5,0,1,1,0,1Zm1.473-5.451h-6.137a.5.5,0,1,1,0-1h6.137a.5.5,0,0,1,0,1Zm1.355-5.45h-7.492a.5.5,0,0,1,0-1h7.492a.5.5,0,0,1,0,1Z" transform="translate(-480.721 -485.135)" fill="#db3394"/>
    <text id="車検" transform="translate(26 43)" fill="#db3394" font-size="7" font-family="HiraginoSans-W6, Hiragino Sans"><tspan x="-7" y="0">車検</tspan></text>
  </g>
</svg>
