<svg id="グループ_5156" data-name="グループ 5156" xmlns="http://www.w3.org/2000/svg" width="199.9" height="74.56" viewBox="0 0 199.9 74.56">
  <line id="線_353" data-name="線 353" x1="8.351" transform="translate(180.118 48.397)" fill="none" stroke="#0786bd" stroke-linecap="round" stroke-miterlimit="10" stroke-width="4"/>
  <line id="線_354" data-name="線 354" x1="5.534" transform="translate(10.486 48.397)" fill="none" stroke="#0786bd" stroke-linecap="round" stroke-miterlimit="10" stroke-width="4"/>
  <line id="線_355" data-name="線 355" x1="81.468" transform="translate(56.13 48.397)" fill="none" stroke="#0786bd" stroke-linecap="round" stroke-miterlimit="10" stroke-width="4"/>
  <path id="パス_2651" data-name="パス 2651" d="M1841.292,674.726" transform="translate(-1651.823 -624.742)" fill="none" stroke="#0786bd" stroke-miterlimit="10" stroke-width="5"/>
  <g id="グループ_5159" data-name="グループ 5159" transform="translate(0 0)">
    <g id="グループ_5158" data-name="グループ 5158" transform="translate(0)">
      <path id="パス_2652" data-name="パス 2652" d="M1859.237,680.231a12.261,12.261,0,0,1,24.368,0,12.107,12.107,0,0,1-.46,5,12.265,12.265,0,0,1-23.445,0A12.345,12.345,0,0,1,1859.237,680.231Z" transform="translate(-1712.085 -624.742)" fill="none"/>
      <path id="パス_2653" data-name="パス 2653" d="M1982.83,680.231a12.248,12.248,0,0,1,24.239,0,12.356,12.356,0,0,1-.287,5,12.25,12.25,0,0,1-23.665,0A12.339,12.339,0,0,1,1982.83,680.231Z" transform="translate(-1959.138 -624.742)" fill="none"/>
      <path id="パス_2654" data-name="パス 2654" d="M1842.424,657.035c3.975-1.684,23.6-5.711,35.167-7.879a10.981,10.981,0,0,0,2.969-.808l41.574-17.875a8.959,8.959,0,0,1,3.555-.731h44.427a8.956,8.956,0,0,1,3.356.649l28.487,11.449a10.064,10.064,0,0,0,2.056.582l19.622,3.351a.064.064,0,0,1,.042.047l-1.083,2.567a10.027,10.027,0,0,0,.287,8.437l2.868,5.679.005,8.728a9.01,9.01,0,0,1-9,9h-9.364a17.259,17.259,0,0,0-34.41,0h-89.144a17.264,17.264,0,0,0-34.342,0h-4.578a8.976,8.976,0,0,1-8.993-8.635l-.064-1.579c.04-.359.246-1.829,1.283-6.6A9.01,9.01,0,0,1,1842.424,657.035Z" transform="translate(-1830.856 -624.742)" fill="none"/>
      <path id="パス_2655" data-name="パス 2655" d="M1832.262,662.353a14,14,0,0,1,8.216-9.921c5.981-2.535,36.367-8.222,36.367-8.222a6.028,6.028,0,0,0,1.745-.455l41.574-17.875a14,14,0,0,1,5.53-1.138h44.427a14,14,0,0,1,5.221,1.01l28.487,11.449a5.005,5.005,0,0,0,1.033.292l19.622,3.351a5.047,5.047,0,0,1,3.8,6.938l-1.077,2.55a5.046,5.046,0,0,0,.144,4.238l2.868,5.679a5.053,5.053,0,0,1,.542,2.275v8.707a14,14,0,0,1-14,14h-9.693a17.256,17.256,0,0,1-33.752,0h-89.675a17.267,17.267,0,0,1-33.938,0h-4.78a14,14,0,0,1-13.989-13.433l-.072-1.773A64.735,64.735,0,0,1,1832.262,662.353Zm149.253,27.934a12.266,12.266,0,0,0,20.948-8.677,12.383,12.383,0,0,0-.083-1.379,12.26,12.26,0,0,0-24.368,0,12.345,12.345,0,0,0,.463,5A12.191,12.191,0,0,0,1981.515,690.287ZM1858,690.708a12.25,12.25,0,0,0,20.509-5.477,12.356,12.356,0,0,0,.287-5,12.248,12.248,0,0,0-24.239,0,12.339,12.339,0,0,0,.287,5A12.18,12.18,0,0,0,1858,690.708ZM1835.93,671.6a8.976,8.976,0,0,0,8.993,8.635h4.578a17.264,17.264,0,0,1,34.342,0h89.144a17.259,17.259,0,0,1,34.41,0h9.364a9.01,9.01,0,0,0,9-9l-.005-8.728-2.868-5.679a10.027,10.027,0,0,1-.287-8.437l1.083-2.567a.064.064,0,0,0-.042-.047l-19.622-3.351a10.064,10.064,0,0,1-2.056-.582l-28.487-11.449a8.956,8.956,0,0,0-3.356-.649h-44.427a8.959,8.959,0,0,0-3.555.731l-41.574,17.875a10.981,10.981,0,0,1-2.969.808c-11.565,2.168-31.192,6.2-35.167,7.879a9.01,9.01,0,0,0-5.28,6.379c-1.037,4.774-1.243,6.244-1.283,6.6Z" transform="translate(-1830.861 -624.742)" fill="#0786bd"/>
    </g>
    <g id="パス_2656" data-name="パス 2656" transform="translate(-1843.757 -624.742)" fill="none" stroke-miterlimit="10">
      <path d="M1962.767,637.258l-6.651,12.392a3,3,0,0,1-2.643,1.581h-38.919a3,3,0,0,1-1.221-5.74l22.022-9.817a14,14,0,0,1,5.651-1.213l19.952-.069A2,2,0,0,1,1962.767,637.258Z" stroke="none"/>
      <path d="M 1957.61279296875 638.4036865234375 L 1941.020874023438 638.4609985351562 C 1939.62060546875 638.466064453125 1938.262451171875 638.757568359375 1936.984130859375 639.3274536132812 L 1919.25439453125 647.23095703125 L 1952.875 647.23095703125 L 1957.61279296875 638.4036865234375 M 1960.965576171875 634.39208984375 C 1962.437622070312 634.39208984375 1963.406494140625 635.9300537109375 1962.767456054688 637.2579956054688 L 1956.116455078125 649.6499633789062 C 1955.593383789062 650.6229248046875 1954.578491210938 651.23095703125 1953.473388671875 651.23095703125 L 1914.554443359375 651.23095703125 C 1911.31640625 651.23095703125 1910.37548828125 646.8089599609375 1913.333374023438 645.490966796875 L 1935.35546875 635.6740112304688 C 1937.134399414062 634.8809814453125 1939.058471679688 634.4680786132812 1941.006469726562 634.4610595703125 L 1960.958374023438 634.39208984375 C 1960.960693359375 634.39208984375 1960.963256835938 634.39208984375 1960.965576171875 634.39208984375 Z" stroke="none" fill="#0786bd"/>
    </g>
    <g id="パス_2657" data-name="パス 2657" transform="translate(-1749.401 -624.742)" fill="none" stroke-miterlimit="10">
      <path d="M1870.082,651.141a2,2,0,0,1-1.781-2.91l6.148-12.039a3,3,0,0,1,2.748-1.795h7.583a14.008,14.008,0,0,1,6.729,1.723l19.359,8.275a2,2,0,0,1,.886,2.936l-1.907,2.907a2,2,0,0,1-1.672.9Z" stroke="none"/>
      <path d="M 1907.09521484375 647.1409301757812 L 1907.099609375 647.1341552734375 L 1889.937255859375 639.798095703125 L 1889.758422851562 639.7216186523438 L 1889.587768554688 639.628173828125 C 1888.117309570312 638.82275390625 1886.454956054688 638.3970336914062 1884.7802734375 638.3970336914062 L 1877.814575195312 638.3970336914062 L 1873.349243164062 647.1409301757812 L 1907.09521484375 647.1409301757812 M 1908.17529296875 651.1409301757812 L 1870.082275390625 651.1409301757812 C 1868.588256835938 651.1409301757812 1867.621215820312 649.5619506835938 1868.30126953125 648.23095703125 L 1874.44921875 636.1920166015625 C 1874.92822265625 635.1019897460938 1876.006225585938 634.3970336914062 1877.197265625 634.3970336914062 L 1884.7802734375 634.3970336914062 C 1887.13232421875 634.3970336914062 1889.446411132812 634.989990234375 1891.509399414062 636.1199951171875 L 1910.868408203125 644.39501953125 C 1912.013305664062 644.885009765625 1912.437377929688 646.2899169921875 1911.75439453125 647.3309326171875 L 1909.847412109375 650.2379150390625 C 1909.478393554688 650.8009643554688 1908.849365234375 651.1409301757812 1908.17529296875 651.1409301757812 Z" stroke="none" fill="#0786bd"/>
    </g>
  </g>
</svg>
