<svg xmlns="http://www.w3.org/2000/svg" width="20" height="17.516" viewBox="0 0 20 17.516">
  <path id="パス_1734" data-name="パス 1734" d="M17.537,25.577A3.206,3.206,0,0,0,14.475,23.2H3.169A3.176,3.176,0,0,0,0,26.369v5.246A3.185,3.185,0,0,0,2.463,34.7a3.149,3.149,0,0,0,3.062,2.377H6v3.169a.514.514,0,0,0,.257.428.634.634,0,0,0,.214.043.451.451,0,0,0,.278-.107l4.582-3.533h5.5A3.176,3.176,0,0,0,20,33.907V28.66A3.167,3.167,0,0,0,17.537,25.577ZM2.355,28.66v5.032A2.218,2.218,0,0,1,.942,31.615V26.369a2.239,2.239,0,0,1,2.227-2.227H14.5a2.233,2.233,0,0,1,2.034,1.349H5.525A3.176,3.176,0,0,0,2.355,28.66Zm16.724,5.246h-.021a2.239,2.239,0,0,1-2.227,2.227H11.178a.407.407,0,0,0-.278.107L6.938,39.3V36.6a.475.475,0,0,0-.471-.471H5.525A2.239,2.239,0,0,1,3.3,33.907V28.66a2.239,2.239,0,0,1,2.227-2.227H16.852a2.239,2.239,0,0,1,2.227,2.227v5.246Z" transform="translate(0 -23.2)" fill="#1e5199"/>
</svg>
