<svg xmlns="http://www.w3.org/2000/svg" width="16.747" height="14" viewBox="0 0 16.747 14">
  <g id="구성_요소_215_1" data-name="구성 요소 215 – 1" transform="translate(0 0)">
    <path id="패스_2146" data-name="패스 2146" d="M6142.081,3150.669l-2.169,1.211q-3.259,1.819-6.518,3.642a.456.456,0,0,1-.492.032l-3.529-2.028c-.034-.02-.064-.046-.146-.1l16.747-5.6c-1.616,4.185-3.21,8.313-4.812,12.463-.75-.43-1.474-.853-2.206-1.26-.608-.339-.4-.386-.924.1-.906.84-1.8,1.693-2.7,2.54-.042.039-.088.073-.181.153,0-.175-.012-.3,0-.422.147-1.376.293-2.751.456-4.124a.714.714,0,0,1,.228-.369q3.042-3.013,6.1-6.017a1.407,1.407,0,0,1,.218-.147Z" transform="translate(-6129.227 -3147.823)" fill="#0786bd"/>
  </g>
</svg>
