<svg id="그룹_1528" data-name="그룹 1528" xmlns="http://www.w3.org/2000/svg" width="12" height="11" viewBox="0 0 12 11">
  <g id="그룹_1527" data-name="그룹 1527">
    <g id="그룹_1526" data-name="그룹 1526" transform="translate(0 0)">
      <path id="패스_274" data-name="패스 274" d="M11.8,23.857a7.916,7.916,0,0,0-11.591,0A.763.763,0,0,0,.2,24.9l1.153,1.212a.719.719,0,0,0,1.023,0,5.066,5.066,0,0,1,1.3-.992.728.728,0,0,0,.391-.627l.174-1.314a5.188,5.188,0,0,1,3.509,0l.172,1.281a.752.752,0,0,0,.387.662,5.081,5.081,0,0,1,1.3.993.7.7,0,0,0,1.023,0L11.8,24.9A.763.763,0,0,0,11.8,23.857Z" transform="translate(0 -21.333)" fill="#748eb7"/>
      <path id="패스_275" data-name="패스 275" d="M50.92,192.662a1.248,1.248,0,0,0-1.1-.662h-4.3a1.248,1.248,0,0,0-1.1.662l-1.6,3a1.256,1.256,0,0,0-.147.588V198a1,1,0,0,0,1,1h8a1,1,0,0,0,1-1v-1.75a1.258,1.258,0,0,0-.147-.588ZM47.667,197.5a2,2,0,1,1,2-2A2,2,0,0,1,47.667,197.5Z" transform="translate(-41.667 -188)" fill="#748eb7"/>
    </g>
  </g>
</svg>
