<svg xmlns="http://www.w3.org/2000/svg" xmlns:xlink="http://www.w3.org/1999/xlink" width="37" height="37" viewBox="0 0 37 37">
  <defs>
    <filter id="타원_161" x="0" y="0" width="37" height="37" filterUnits="userSpaceOnUse">
      <feOffset input="SourceAlpha"/>
      <feGaussianBlur stdDeviation="2.5" result="blur"/>
      <feFlood flood-color="#284c7f" flood-opacity="0.098"/>
      <feComposite operator="in" in2="blur"/>
      <feComposite in="SourceGraphic"/>
    </filter>
  </defs>
  <g id="그룹_2918" data-name="그룹 2918" transform="translate(-602.5 -411.5)">
    <g transform="matrix(1, 0, 0, 1, 602.5, 411.5)" filter="url(#타원_161)">
      <circle id="타원_161-2" data-name="타원 161" cx="11" cy="11" r="11" transform="translate(7.5 7.5)" fill="#0786bd"/>
    </g>
    <g id="구성_요소_165_1" data-name="구성 요소 165 – 1" transform="translate(615 423)">
      <g id="그룹_2802" data-name="그룹 2802" transform="translate(0 2.416)">
        <g id="그룹_2801" data-name="그룹 2801" transform="translate(0)">
          <g id="그룹_2800" data-name="그룹 2800">
            <path id="패스_1727" data-name="패스 1727" d="M306.34,175.089l-1.26-.033-.273,5.326,1.26.033Z" transform="translate(-297.785 -172.506)" fill="#fff"/>
            <rect id="사각형_2406" data-name="사각형 2406" width="1.26" height="5.312" transform="translate(5.37 2.573)" fill="#fff"/>
            <path id="패스_1728" data-name="패스 1728" d="M159.952,180.375l-.273-5.326-1.26.033.273,5.326Z" transform="translate(-154.974 -172.499)" fill="#fff"/>
            <path id="패스_1729" data-name="패스 1729" d="M17.379,76.867v.964H18.43l.834,9.054a.5.5,0,0,0,.5.44h7.21a.5.5,0,0,0,.5-.44l.834-9.054h1.068v-.964Zm9.135,9.494H20.227l-.785-8.53H27.3Z" transform="translate(-17.379 -76.867)" fill="#fff"/>
          </g>
        </g>
      </g>
      <g id="그룹_2804" data-name="그룹 2804" transform="translate(2.891)">
        <g id="그룹_2803" data-name="그룹 2803">
          <path id="패스_1730" data-name="패스 1730" d="M162.244,0h-4.118a1.052,1.052,0,0,0-1.05,1.05v2h1.26V1.26h3.7V3.046h1.26v-2A1.052,1.052,0,0,0,162.244,0Z" transform="translate(-157.076)" fill="#fff"/>
        </g>
      </g>
    </g>
  </g>
</svg>
