<svg xmlns="http://www.w3.org/2000/svg" width="21.955" height="24.033" viewBox="0 0 21.955 24.033"><g transform="translate(-12919.7 7943.983)"><path d="M146.089,301.739a2.139,2.139,0,0,0-3.022,0l-2.547,2.547a2.863,2.863,0,0,1-2.821,3.357h-.009l-4.425-.013a.728.728,0,0,1,0-1.455h0l4.425.013h0a1.409,1.409,0,0,0,0-2.818l-3.063-.009a.684.684,0,0,1-.629-.364,2.56,2.56,0,0,0-2.23-.9h-.014a2.837,2.837,0,0,0-2.156.769v8.468h8.071a4.4,4.4,0,0,0,3.131-1.3l5.275-5.275a2.139,2.139,0,0,0,0-3.022Z" transform="translate(12794.941 -8231.283)" fill="#88d842"/><path d="M30.172,332.477a.728.728,0,0,0-.727.728v7.244a.728.728,0,0,0,.727.728h2.671v-8.7Z" transform="translate(12890.255 -8261.126)" fill="#88d842"/><path d="M125.406,0a6.842,6.842,0,1,0,6.842,6.842A6.85,6.85,0,0,0,125.406,0Zm2.317,4.484-1,1.609h.216a.728.728,0,1,1,0,1.455h-.8v.485h.8a.728.728,0,1,1,0,1.455h-.8v.582a.728.728,0,1,1-1.455,0V9.488h-.8a.728.728,0,1,1,0-1.455h.8V7.548h-.8a.728.728,0,1,1,0-1.455h.216l-1-1.609a.727.727,0,1,1,1.234-.771l1.083,1.734,1.083-1.734a.728.728,0,0,1,1.234.771Z" transform="translate(12805.454 -7943.983)" fill="#88d842"/></g></svg>