<svg xmlns="http://www.w3.org/2000/svg" width="75" height="42.57" viewBox="0 0 75 42.57"><path d="M150.164,80.34c-.678-1.323-4.515-.337-3.871,1.688.154.481.678.6,1.39.694-.68,1.414-2.313,1.737-3.673,2.283a77.829,77.829,0,0,0-8.138,3.573,13.988,13.988,0,0,0-3.574,2.283c-.926,1.118-1.257,3.171-1.786,5.161-.157.59-.609,1.317-.695,1.886a14.75,14.75,0,0,0,.1,3.474c.041.346.3.738.3.993,0,.434-.319.876-.3,1.29.036.678.642,1.182.992,1.885.567,1.139.521,2.052,1.389,2.68a13.277,13.277,0,0,0,4.169,1.29,100.447,100.447,0,0,0,34.242,1.091c.77,1.806,1.95,2.378,4.665,2.68a10.251,10.251,0,0,0,2.977.1c2.488-.664,3.434-4.773,3.971-7.543a68.4,68.4,0,0,0,7.146-3.275c2.456-1.169,4.873-2.482,7.246-3.573.569,1.463,1.063,2.191,3.275,2.383a6.624,6.624,0,0,0,2.084,0c1.923-.643,2.481-5.179,2.481-7.941,0-1.73-.116-3.243,0-4.664.219-2.679.472-5.875-.595-7.742a4.015,4.015,0,0,0-1.688-1.39c-.642-.353-1.457-.4-2.184-.794-.694-.375-1.294-1.412-1.886-2.084-1.745-1.982-3.485-4.27-6.65-5.062a33.114,33.114,0,0,0-5.261-.5,111.459,111.459,0,0,0-15.185-.1,50.713,50.713,0,0,0-9.032.993C156.688,73.475,153.683,77.461,150.164,80.34Z" transform="translate(-129.747 -70.899)" fill="#dfe6f0" fill-rule="evenodd"/></svg>