<svg xmlns="http://www.w3.org/2000/svg" width="24.14" height="20.369" viewBox="0 0 24.14 20.369"><g transform="translate(0 0)"><g transform="translate(0 0)"><g transform="translate(0)"><g transform="translate(0)"><path d="M339.829,497.961l-1.549-1.549c-5.752-5.088-9.513-8.516-9.513-12.718a6,6,0,0,1,5.909-6.083h.176a6.649,6.649,0,0,1,4.978,2.323,6.649,6.649,0,0,1,4.978-2.323,6,6,0,0,1,6.084,5.908q0,.088,0,.175c0,4.2-3.761,7.631-9.513,12.718Z" transform="translate(-328.766 -477.611)" fill="#fff"/></g></g><g transform="translate(12.824 8.339)"><path d="M351.372,498.983h-4.024v-3.5h-3.262v-4.262h3.262v-3.506h4.024v3.506h3.269v4.262h-3.269v3.5Z" transform="translate(-343.705 -487.334)" fill="#fff"/><path d="M350.928,498.539v-3.5H354.2v-3.5h-3.269v-3.506h-3.262v3.506H344.4v3.5h3.262v3.5h3.262m.761.762H346.9v-3.5h-3.262v-5.024H346.9v-3.506h4.785v3.506h3.269V495.8h-3.269v3.5Z" transform="translate(-343.642 -487.271)" fill="#748eb7"/></g></g></g></svg>