<svg xmlns="http://www.w3.org/2000/svg" width="22" height="22" viewBox="0 0 22 22">
  <path id="パス_213" data-name="パス 213" d="M20.255,13.965a10.305,10.305,0,0,0-2.628-1.645.859.859,0,1,0-.7,1.571,8.594,8.594,0,0,1,2.192,1.366,3.427,3.427,0,0,1,1.161,2.576v1.59a.86.86,0,0,1-.859.859H2.578a.86.86,0,0,1-.859-.859v-1.59A3.427,3.427,0,0,1,2.88,15.256c.868-.763,3.4-2.538,8.12-2.538A6.367,6.367,0,1,0,7.126,11.4a11.947,11.947,0,0,0-5.381,2.566A5.146,5.146,0,0,0,0,17.832v1.59A2.581,2.581,0,0,0,2.578,22H19.422A2.581,2.581,0,0,0,22,19.422v-1.59A5.146,5.146,0,0,0,20.255,13.965ZM6.359,6.359A4.641,4.641,0,1,1,11,11,4.646,4.646,0,0,1,6.359,6.359Z" fill="#fff"/>
</svg>
