<svg id="구성_요소_213_3" data-name="구성 요소 213 – 3" xmlns="http://www.w3.org/2000/svg" width="31.117" height="14" viewBox="0 0 31.117 14">
  <path id="패스_1758" data-name="패스 1758" d="M331.935,442.606l-3.962-1.073-2.259-3a3.238,3.238,0,0,0-2.532-1.251H308.21a.8.8,0,0,0-.515.19l-1.569,1.349h7.108l-.03.012,9.988-.005a1.659,1.659,0,0,1,1.279.646l2.488,3.228a.752.752,0,0,0,.414.276l4.158,1.121a1.014,1.014,0,0,1,.749.967v1.51a1,1,0,0,1-1,.966h-.069a3.217,3.217,0,0,0-6.315,0h-8.352a3.2,3.2,0,0,0-2.75-2.571,3.277,3.277,0,0,0-.42-.027,3.207,3.207,0,0,0-3.155,2.6h-.368a.991.991,0,0,1-1-.877l.007-.1-1.579.014a2.551,2.551,0,0,0,2.561,2.506h.475a3.205,3.205,0,0,0,3.055,2.2l0-.006a3.214,3.214,0,0,0,3.049-2.2H325a3.221,3.221,0,0,0,6.1,0h.168a2.551,2.551,0,0,0,2.57-2.522v-1.5A2.564,2.564,0,0,0,331.935,442.606Zm-18.561,7.142a1.625,1.625,0,1,1,1.6-1.579A1.635,1.635,0,0,1,313.374,449.748Zm14.68,0a1.625,1.625,0,1,1,1.6-1.579A1.635,1.635,0,0,1,328.054,449.748Z" transform="translate(-302.724 -437.282)" fill="#fff"/>
  <path id="패스_1759" data-name="패스 1759" d="M311.773,441.115l1.569-1.348H305.91a.784.784,0,0,0-.513.19l-1.569,1.348h7.43A.79.79,0,0,0,311.773,441.115Z" transform="translate(-302.126 -436.558)" fill="#fff"/>
  <path id="패스_1760" data-name="패스 1760" d="M308.533,443.6l1.569-1.348h-6.49a.788.788,0,0,0-.514.191l-1.569,1.348h6.49A.789.789,0,0,0,308.533,443.6Z" transform="translate(-301.528 -435.797)" fill="#fff"/>
</svg>
