<svg xmlns="http://www.w3.org/2000/svg" width="22" height="22" viewBox="0 0 22 22"><path d="M298.21,460.931l-1.081-3.092a8.434,8.434,0,0,1-2.742-1.586l-3.333.6-1.874-3.065,2.231-2.436a8.936,8.936,0,0,1-.085-3.005l-2.311-2.442,1.977-3.113,3.317.644a8.4,8.4,0,0,1,1.283-.789c.228-.124.53-.251.832-.377.158-.066.317-.13.465-.2l1.087-3.086,3.844-.059,1.081,3.092a8.431,8.431,0,0,1,2.743,1.586l3.333-.6,1.873,3.064-2.231,2.436a8.907,8.907,0,0,1,.085,3.006l2.311,2.442-1.977,3.113-3.317-.646a8.444,8.444,0,0,1-1.285.79,8.634,8.634,0,0,1-.829.374c-.16.067-.319.132-.467.2l-1.086,3.085ZM294.89,454.7l.285.274a6.851,6.851,0,0,0,2.789,1.616l.37.111.969,2.775,1.648-.024.934-2.652.25-.136a9.149,9.149,0,0,1,.864-.393,7.623,7.623,0,0,0,.7-.316,6.976,6.976,0,0,0,1.316-.848l.285-.233,2.986.58.846-1.333-2.05-2.166.062-.341a7.549,7.549,0,0,0-.09-3.151l-.086-.354,2.022-2.207-.794-1.3-3.059.551-.285-.275a6.862,6.862,0,0,0-2.79-1.615l-.37-.111-.969-2.776-1.648.024-.934,2.652-.251.136c-.253.137-.555.265-.858.391a7.2,7.2,0,0,0-.71.319,6.876,6.876,0,0,0-1.316.846l-.284.232-2.985-.579-.846,1.333,2.047,2.165-.062.341a7.572,7.572,0,0,0,.092,3.151l.085.354-2.021,2.208.793,1.3Zm5.064-1.648a3.475,3.475,0,0,1-2.974-1.615h0a3.146,3.146,0,0,1,1.253-4.416,3.542,3.542,0,0,1,4.682,1.181,3.054,3.054,0,0,1,.345,2.453,3.251,3.251,0,0,1-1.6,1.965A3.574,3.574,0,0,1,299.954,453.054Zm-1.656-2.331a1.974,1.974,0,0,0,2.6.656,1.813,1.813,0,0,0,.888-1.094,1.7,1.7,0,0,0-.193-1.364,1.972,1.972,0,0,0-2.6-.659,1.753,1.753,0,0,0-.7,2.46Z" transform="translate(-289.015 -438.931)" fill="#fff"/></svg>