<svg id="그룹_3483" data-name="그룹 3483" xmlns="http://www.w3.org/2000/svg" width="48.038" height="40.397" viewBox="0 0 48.038 40.397">
  <g id="グループ_3124" data-name="グループ 3124" transform="translate(0 0)">
    <g id="Icons" transform="translate(0)">
      <g id="グループ_733" data-name="グループ 733">
        <g id="favorite">
          <path id="パス_47" data-name="パス 47" d="M350.7,517.971,347.63,514.9c-11.405-10.09-18.863-16.889-18.863-25.223a11.891,11.891,0,0,1,11.716-12.064q.174,0,.348,0a13.181,13.181,0,0,1,9.87,4.607,13.182,13.182,0,0,1,9.87-4.607,11.891,11.891,0,0,1,12.064,11.716q0,.174,0,.348c0,8.335-7.457,15.133-18.863,25.223Z" transform="translate(-328.766 -477.611)" fill="#fff"/>
        </g>
      </g>
    </g>
    <g id="合体_32" data-name="合体 32" transform="translate(25.541 16.481)">
      <path id="패스_2172" data-name="패스 2172" d="M358.571,510.116h-8v-6.959h-6.485v-8.473h6.485v-6.969h8v6.969h6.5v8.473h-6.5v6.959Z" transform="translate(-343.328 -486.957)" fill="#fff"/>
      <path id="패스_2173" data-name="패스 2173" d="M358.127,509.672v-6.959h6.5v-6.958h-6.5v-6.969h-6.485v6.969h-6.485v6.958h6.485v6.959h6.485m1.513,1.515h-9.513v-6.959h-6.485V494.24h6.485v-6.969h9.513v6.969h6.5v9.988h-6.5v6.959Z" transform="translate(-343.642 -487.271)" fill="#1e5199"/>
    </g>
  </g>
</svg>
