<svg id="그룹_3485" data-name="그룹 3485" xmlns="http://www.w3.org/2000/svg" width="39.588" height="43.335" viewBox="0 0 39.588 43.335">
  <g id="그룹_3169" data-name="그룹 3169" transform="translate(0 0)">
    <path id="패스_371" data-name="패스 371" d="M159.322,302.241a3.857,3.857,0,0,0-5.449,0l-4.593,4.593a5.163,5.163,0,0,1-5.086,6.052h-.016l-7.978-.024a1.312,1.312,0,0,1,0-2.624h0l7.978.024h.008a2.541,2.541,0,0,0,.007-5.081l-5.523-.016a1.234,1.234,0,0,1-1.133-.657c-.1-.157-1.134-1.615-4.021-1.624H133.5a5.116,5.116,0,0,0-3.887,1.386V319.54h14.553a7.931,7.931,0,0,0,5.645-2.338l9.512-9.512a3.857,3.857,0,0,0,0-5.448Z" transform="translate(-120.86 -276.204)" fill="#1e5199"/>
    <path id="패스_372" data-name="패스 372" d="M30.757,332.477a1.312,1.312,0,0,0-1.312,1.312V346.85a1.312,1.312,0,0,0,1.312,1.312h4.816V332.477Z" transform="translate(-29.445 -304.827)" fill="#1e5199"/>
    <path id="패스_373" data-name="패스 373" d="M130.9,0a12.337,12.337,0,1,0,12.337,12.337A12.351,12.351,0,0,0,130.9,0Zm4.178,8.085-1.812,2.9h.389a1.312,1.312,0,1,1,0,2.624h-1.443v.875h1.443a1.312,1.312,0,1,1,0,2.624h-1.443v1.049a1.312,1.312,0,1,1-2.624,0V17.108h-1.443a1.312,1.312,0,1,1,0-2.624h1.443V13.61h-1.443a1.312,1.312,0,1,1,0-2.624h.389l-1.812-2.9a1.312,1.312,0,0,1,2.225-1.39L130.9,9.822,132.853,6.7a1.312,1.312,0,0,1,2.225,1.39Z" transform="translate(-110.778)" fill="#1e5199"/>
  </g>
</svg>
