<svg xmlns="http://www.w3.org/2000/svg" width="25.763" height="36.301" viewBox="0 0 25.763 36.301"><g transform="translate(-525.342 -488.214)"><path d="M544.665,524.515a6.441,6.441,0,1,0-6.441-6.44A6.44,6.44,0,0,0,544.665,524.515Zm3.54-5.539h-2.569v2.569h-1.727v-2.569H541.34v-1.727h2.569V514.68h1.727v2.569h2.569Zm-.613-7.93v-15.8a2.341,2.341,0,0,0-2.335-2.347h-1.178v1.158a2.344,2.344,0,0,1-2.34,2.348H531.2a2.345,2.345,0,0,1-2.347-2.344V492.9h-1.174a2.339,2.339,0,0,0-2.339,2.337v24.589a2.341,2.341,0,0,0,2.335,2.346H538.25a7.615,7.615,0,0,1,9.343-11.128Zm-14.052-19.32v-1.173a2.346,2.346,0,0,1,2.347-2.339h1.16a2.34,2.34,0,0,1,2.348,2.332v1.18h2.347a1.169,1.169,0,0,1,1.166,1.169h0v1.174a1.166,1.166,0,0,1-1.161,1.17H531.189a1.168,1.168,0,0,1-1.163-1.17V492.9a1.166,1.166,0,0,1,1.161-1.17h2.353Zm2.928.873a1.458,1.458,0,1,0-1.459-1.458h0A1.459,1.459,0,0,0,536.468,492.6Z" fill="#0786bd" fill-rule="evenodd"/></g></svg>
