<svg xmlns="http://www.w3.org/2000/svg" width="20.283" height="8.969" viewBox="0 0 20.283 8.969">
  <path id="パス_1674" data-name="パス 1674" d="M289.553,413.471a2.04,2.04,0,0,1-1.482-.63,1.978,1.978,0,0,1-.54-1.459,1.931,1.931,0,0,1,.648-1.344,2.057,2.057,0,0,1,2.755.005l2.034-2.033a2.057,2.057,0,0,1-.009-.3,2.026,2.026,0,0,1,4.048.125l2.128,1.676a1.954,1.954,0,0,1,.359-.418,2.059,2.059,0,0,1,2.762.042l1.806-1.605a1.932,1.932,0,0,1-.28-1.332,2.009,2.009,0,0,1,1.989-1.692,2.115,2.115,0,0,1,.968.238,1.974,1.974,0,0,1,.837,2.683,2.047,2.047,0,0,1-2.651.859l-2.1,1.857a1.972,1.972,0,0,1,.047.416,2.012,2.012,0,0,1-2.005,1.989,2.183,2.183,0,0,1-.315-.021,2,2,0,0,1-1.725-1.808l-2.217-1.748a1.974,1.974,0,0,1-.427.424,2.058,2.058,0,0,1-2.729-.277l-1.934,1.934a1.939,1.939,0,0,1-.6,1.894A2.053,2.053,0,0,1,289.553,413.471Zm-.007-2.843a.873.873,0,0,0-.865.738.857.857,0,0,0,.171.648.846.846,0,0,0,.57.326.836.836,0,0,0,.138.011.873.873,0,0,0,.865-.738.885.885,0,0,0-.879-.985Zm11.291-.924a.869.869,0,0,0-.862.734.885.885,0,0,0,.88.981.875.875,0,0,0,.865-.735.859.859,0,0,0-.741-.971,1.026,1.026,0,0,0-.134-.009Zm-5.871-2.754a.855.855,0,0,0-.12,1.7.832.832,0,0,0,.137.011.877.877,0,0,0,.867-.735l.006-.041a.856.856,0,0,0-.748-.929,1.011,1.011,0,0,0-.133-.009Zm10.812-1.321a.873.873,0,0,0-.865.737.862.862,0,0,0,.741.971.844.844,0,0,0,.138.011.856.856,0,0,0,.694-1.382.918.918,0,0,0-.708-.337Z" transform="translate(-287.528 -404.502)" fill="#0786bd"/>
</svg>
