<svg id="Component_108_1" data-name="Component 108 – 1" xmlns="http://www.w3.org/2000/svg" width="21.353" height="19.584" viewBox="0 0 21.353 19.584">
  <g id="Group_2760" data-name="Group 2760" transform="translate(-476.62 -433.968)">
    <path id="Path_1738" data-name="Path 1738" d="M482.772,445.524a1.039,1.039,0,0,1-.708-.276l-5.111-4.739a1.081,1.081,0,0,1-.332-.8,1.033,1.033,0,0,1,.332-.725l5.11-4.737a1.039,1.039,0,0,1,.709-.278h0a1.04,1.04,0,0,1,1.038,1.04v1.825h5.075a1.043,1.043,0,0,1,1.041,1.042v3.745a1.042,1.042,0,0,1-1.041,1.041h-5.076v1.822a1.042,1.042,0,0,1-.625.954A1.024,1.024,0,0,1,482.772,445.524Zm-.142-1.363v-2.683h6.117V438.02H482.63v-2.686l-4.761,4.414Z" fill="#0786bd"/>
    <path id="Path_1739" data-name="Path 1739" d="M491.822,453.552a1.043,1.043,0,0,1-1.041-1.04v-1.826H485.7a1.042,1.042,0,0,1-1.041-1.042V445.9a1.042,1.042,0,0,1,1.041-1.041h5.08v-1.825a1.042,1.042,0,0,1,1.04-1.041h.2l-.007.021a1.033,1.033,0,0,1,.516.258l5.112,4.74a1.077,1.077,0,0,1,.332.8,1.033,1.033,0,0,1-.332.725l-5.111,4.737a1.041,1.041,0,0,1-.7.278Zm.142-4.049v2.684l4.761-4.414-4.761-4.413v2.682h-6.12V449.5Z" fill="#0786bd"/>
  </g>
</svg>
