<svg id="Component_213_1" data-name="Component 213 – 1" xmlns="http://www.w3.org/2000/svg" width="23.766" height="10.842" viewBox="0 0 23.766 10.842">
  <path id="Path_1758" data-name="Path 1758" d="M325.838,441.4l-3.026-.831-1.725-2.323a2.461,2.461,0,0,0-1.934-.969H307.718a.6.6,0,0,0-.393.147l-1.2,1.045h5.429l-.023.009,7.628,0a1.261,1.261,0,0,1,.977.5l1.9,2.5a.574.574,0,0,0,.316.214l3.176.868a.783.783,0,0,1,.572.749v1.169a.767.767,0,0,1-.764.748h-.053a2.451,2.451,0,0,0-4.823,0h-6.379a2.456,2.456,0,0,0-4.831,0h-.281a.761.761,0,0,1-.762-.679l0-.076-1.206.011a1.962,1.962,0,0,0,1.956,1.941h.363a2.451,2.451,0,0,0,2.333,1.7l0-.005a2.458,2.458,0,0,0,2.329-1.7h6.55a2.45,2.45,0,0,0,4.662,0h.128a1.962,1.962,0,0,0,1.963-1.953V443.3A1.981,1.981,0,0,0,325.838,441.4Zm-14.176,5.531a1.259,1.259,0,1,1,1.223-1.223A1.258,1.258,0,0,1,311.662,446.936Zm11.212,0a1.259,1.259,0,1,1,1.223-1.223A1.258,1.258,0,0,1,322.874,446.936Z" transform="translate(-303.528 -437.282)" fill="#fff"/>
  <path id="Path_1759" data-name="Path 1759" d="M309.9,440.811l1.2-1.044h-5.676a.594.594,0,0,0-.392.147l-1.2,1.044H309.5A.6.6,0,0,0,309.9,440.811Z" transform="translate(-302.528 -437.282)" fill="#fff"/>
  <path id="Path_1760" data-name="Path 1760" d="M306.878,443.3l1.2-1.044h-4.957a.6.6,0,0,0-.393.148l-1.2,1.044h4.957A.6.6,0,0,0,306.878,443.3Z" transform="translate(-301.528 -437.253)" fill="#fff"/>
</svg>
