<svg xmlns="http://www.w3.org/2000/svg" width="60.335" height="19.008" viewBox="0 0 60.335 19.008"><path d="M75.651,169.357c0-.565.613-1.14.613-1.7v-2.07c3.047.188,7.114-1.011,10.923-2.893a23.843,23.843,0,0,1,8.76-2.07h9.521c4.189.376,9.141,4.14,13.52,5.457a17.758,17.758,0,0,0,5.617.674,22.374,22.374,0,0,1,8.636,2.149c.952.377.381,1.882.762,2.447s1.333.941,1.333,1.505a27.443,27.443,0,0,1-1.016,3.461c-.342.762-1.53.843-2.17.847a6.128,6.128,0,0,0-6.647-7.309A5.381,5.381,0,0,0,121.447,172a6.136,6.136,0,0,0-1.159,5.789l-24.555-.019c-.636-.039-1.748-.017-2.611-.011a6.131,6.131,0,0,0-5.859-7.941,6.188,6.188,0,0,0-.638.034,4.789,4.789,0,0,0-4.062,2.158,6.11,6.11,0,0,0-1.432,3.94c0,.171.008.341.021.509-.72.053-1.689.066-1.689.066-3.618-.377-4.465-1.413-4.465-4.048v-.564C75,170.595,75.651,170.675,75.651,169.357Zm24.791-1.993h12.041c-.191-.2-.674-.728-.674-1.121,0-.589.259-.709.623-.709l1.178-.01c-6.116-3.534-6.479-3.657-11.448-3.657-.382,0-3.249-.2-3.249.589A43.18,43.18,0,0,0,100.442,167.365Zm-12.406,0h9.651v-2.208a12.044,12.044,0,0,0-.261-2.127,1.325,1.325,0,0,0-1.526-.974c-2.841.568-8.636,2.119-8.636,3.985A1.5,1.5,0,0,0,88.036,167.365Zm38.1,3.679a4.292,4.292,0,1,1-4.292,4.292A4.292,4.292,0,0,1,126.138,171.044Zm-38.874,0a4.292,4.292,0,1,1-4.292,4.292A4.292,4.292,0,0,1,87.263,171.044Z" transform="translate(-75 -160.62)" fill="#1e5199" fill-rule="evenodd"/></svg>