<svg id="Component_219_4" data-name="Component 219 – 4" xmlns="http://www.w3.org/2000/svg" width="159.446" height="110.458" viewBox="0 0 159.446 110.458">
  <g id="Group_3072" data-name="Group 3072">
    <path id="Path_2147" data-name="Path 2147" d="M8548.836,369.784c.445-2.3.719-3.882.841-4.753s.3-2.23.562-4.086a82.4,82.4,0,0,1,17.325-2.225,28.848,28.848,0,0,1,7.568.933,10.992,10.992,0,0,1,5.354,3,8.339,8.339,0,0,1,1.928,5.922q0,1.96-.537,8.834-.507,6.859-.775,18.018-3.456-.071-6.858-.071c-2.2,0-4.546.024-7.02.071.326-2.575.664-7.892,1.067-15.945a21.867,21.867,0,0,1-2.082.919c-.51.194-1.379.483-2.64.861s-2.249.7-2.953.961a7.077,7.077,0,0,0-1.856,1,3.7,3.7,0,0,0-1.119,1.245,3.075,3.075,0,0,0-.321,1.425,2.68,2.68,0,0,0,.945,2.069,4.5,4.5,0,0,0,3.023.852,10.8,10.8,0,0,0,1.6-.123,14.516,14.516,0,0,0,2.319-.6c-.69,1.77-1.5,4.36-2.441,7.759a35.225,35.225,0,0,1-5.712.5,18.9,18.9,0,0,1-7.244-1.212,9.077,9.077,0,0,1-4.449-3.91,10.708,10.708,0,0,1-1.563-5.411,9.458,9.458,0,0,1,.576-3.234,10.682,10.682,0,0,1,1.812-3.086,12.265,12.265,0,0,1,2.858-2.575,19.838,19.838,0,0,1,4.491-2.022,58.848,58.848,0,0,1,7.227-1.785c1.209-.241,2.331-.492,3.349-.753a16.023,16.023,0,0,0,2.159-.705,3.741,3.741,0,0,0,1.042-.7,2.216,2.216,0,0,0,.572-.838,2.544,2.544,0,0,0,.175-.923,2.323,2.323,0,0,0-1.1-2.069,5.988,5.988,0,0,0-3.283-.734q-6.023,0-14.84,3.38m40.108,25.64,1.117-15.585.355-8.957c.023-1.615.035-3.257.035-4.943q0-2.57-.07-6.358c2.823.047,5.08.071,6.726.071,1.949,0,4.176-.024,6.711-.071l-.156,4.01a26.329,26.329,0,0,1,2.256-2.3,11.389,11.389,0,0,1,2-1.363,9.672,9.672,0,0,1,2.352-.914,10.835,10.835,0,0,1,2.584-.3,12.446,12.446,0,0,1,2.809.36c.026,2.552.083,4.644.177,6.31l.258,5.4a12.846,12.846,0,0,0-3.633-.573,9.8,9.8,0,0,0-3.638.611,7.6,7.6,0,0,0-2.715,1.866,9.172,9.172,0,0,0-1.878,3.1,21.569,21.569,0,0,0-.979,5.889c-.2,2.68-.292,5.757-.292,9.217,0,1.221.042,2.727.147,4.526-2.282-.047-4.562-.071-6.853-.071C8593.99,395.353,8591.547,395.377,8588.944,395.424Zm-80.205-.81c-6.638-1.638-13.578-3.8-16.232-10.618-3.443-8.886-6.975-19.325,7.363-29.092h.006a212.122,212.122,0,0,1,26.148-14.529,192.485,192.485,0,0,1,27.025-10.217,176.831,176.831,0,0,1,33.242-6.751c11.521-1.042,23.094-.408,33.5,3.271,9.271,3.276,17.127,8.564,22.315,16.234,4.662,6.874,7.2,15.656,6.725,26.6l-.025.526-.42-.317-.062-.047a21.92,21.92,0,0,0-7.837-1.543,10.475,10.475,0,0,0-4,.563,1.835,1.835,0,0,0-1.229,1.747,2.017,2.017,0,0,0,.138.729,2.446,2.446,0,0,0,.512.743,7.461,7.461,0,0,0,.9.79c.35.26,1.236.885,2.628,1.865,1.408.98,2.5,1.795,3.291,2.429a18.308,18.308,0,0,1,2.979,2.85,10.2,10.2,0,0,1,1.585,2.812,9.369,9.369,0,0,1,.522,3.139,9.069,9.069,0,0,1-1.2,4.574,9.563,9.563,0,0,1-3.646,3.494,16.9,16.9,0,0,1-5.278,1.95,31.253,31.253,0,0,1-5.858.54,49.138,49.138,0,0,1-5.095-.346c-2.046-.241-4.423-.648-7.141-1.236-.095-1.027-.18-2.121-.268-3.257s-.244-2.7-.451-4.692l-.28-2.538a54.086,54.086,0,0,0,5.821,2,17.44,17.44,0,0,0,4.5.653,10.22,10.22,0,0,0,2.774-.308,3.1,3.1,0,0,0,1.562-.909,1.944,1.944,0,0,0,.494-1.221,1.923,1.923,0,0,0-.377-1.117,7.476,7.476,0,0,0-1.642-1.482c-1.911-1.4-3.579-2.679-5.05-3.83a21,21,0,0,1-3.255-3.054,10.1,10.1,0,0,1-1.679-2.873,9.1,9.1,0,0,1-.574-3.182,9.694,9.694,0,0,1,1.664-5.449,9.418,9.418,0,0,1,4.9-3.664c.261-.09.529-.175.8-.255.372-11.859-4.983-18.856-12.724-22.823-8.062-4.138-18.705-5-28.194-4.668a121.662,121.662,0,0,0-29.278,4.7,152.739,152.739,0,0,0-27.437,11.021l-.039.019-.036.005a118.3,118.3,0,0,0-13.422,3.385,64.21,64.21,0,0,0-13.035,5.79c-10.116,6.027-7.758,17.014-5.587,26.653.71,3.172,3.2,4.417,6.545,5.832A18.985,18.985,0,0,0,8508.739,394.615Zm30.341-10.4c-.118.932-.4,2.656-.832,5.16l-.889,5.615c-14.65,3.622-29.159.417-29.159-16.844a24.246,24.246,0,0,1,1.473-8.379,16.232,16.232,0,0,1,4.354-6.642,14.81,14.81,0,0,1,6.4-3.508,31.011,31.011,0,0,1,7.75-.9,47.4,47.4,0,0,1,5.017.265,49.966,49.966,0,0,1,6.246,1.174l.075.8c.066.838.111,1.7.149,2.576.018.871.113,2.249.215,4.143l.21,3.11a27.733,27.733,0,0,0-8.867-1.723,10.679,10.679,0,0,0-4.873,1.065,6.915,6.915,0,0,0-3.093,3.077,10.6,10.6,0,0,0-.982,4.668,10.251,10.251,0,0,0,.9,4.5,5.709,5.709,0,0,0,2.858,2.727,10.117,10.117,0,0,0,4.313.909,19.085,19.085,0,0,0,2.826-.251c1.087-.156,2.036-.346,2.851-.54A31.563,31.563,0,0,0,8539.08,384.219Z" transform="translate(-8489.44 -322.958)" fill="#0786bd" fill-rule="evenodd"/>
    <g id="Group_2921" data-name="Group 2921" transform="translate(0 92.064)">
      <g id="Group_2922" data-name="Group 2922">
        <path id="Path_2151" data-name="Path 2151" d="M753.492,341.86c-.106.511-.232,1.218-.379,2.129s-.248,1.616-.3,2.117a33.87,33.87,0,0,1-4.96.415,14.014,14.014,0,0,1-3.915-.527,9.59,9.59,0,0,1-3.321-1.726,6.831,6.831,0,0,1-2.163-2.822,9.752,9.752,0,0,1-.649-3.636,9.872,9.872,0,0,1,.877-4.225,8.278,8.278,0,0,1,2.518-3.13,10.462,10.462,0,0,1,3.6-1.791,15.212,15.212,0,0,1,4.049-.538,28.512,28.512,0,0,1,4.752.492l.027,1.091c.018.476.042,1,.078,1.57l.09,1.48q-1.517-.363-2.46-.493a13.118,13.118,0,0,0-1.745-.129,6.942,6.942,0,0,0-3.155.7,5.288,5.288,0,0,0-2.207,2.037,5.634,5.634,0,0,0-.8,2.96,4.615,4.615,0,0,0,.676,2.538,4.528,4.528,0,0,0,1.823,1.634,6.246,6.246,0,0,0,2.836.578,14.83,14.83,0,0,0,2.005-.149A23.978,23.978,0,0,0,753.492,341.86Z" transform="translate(-737.808 -328.127)" fill="#1e5199"/>
        <path id="Path_2152" data-name="Path 2152" d="M758.78,328.127a14.274,14.274,0,0,1,4,.557,8.988,8.988,0,0,1,3.363,1.784,7.97,7.97,0,0,1,2.156,2.824,8.929,8.929,0,0,1,.714,3.675,10.009,10.009,0,0,1-.787,4.005,8.417,8.417,0,0,1-2.265,3.095,9.271,9.271,0,0,1-3.53,1.864,15.412,15.412,0,0,1-4.272.591,15.14,15.14,0,0,1-4.205-.578,9.1,9.1,0,0,1-3.5-1.869,7.442,7.442,0,0,1-2.108-2.875,9.531,9.531,0,0,1-.624-3.519,9.375,9.375,0,0,1,1.317-4.992,8.794,8.794,0,0,1,3.908-3.355A13.653,13.653,0,0,1,758.78,328.127Zm-.232,3.908a5.094,5.094,0,0,0-2.7.732,4.869,4.869,0,0,0-1.855,2.037,6.193,6.193,0,0,0-.649,2.8,5.4,5.4,0,0,0,.591,2.52,4.182,4.182,0,0,0,1.8,1.784,5.363,5.363,0,0,0,2.557.642,5.02,5.02,0,0,0,2.642-.722,4.661,4.661,0,0,0,1.83-2.023,6.229,6.229,0,0,0,.629-2.734,5.673,5.673,0,0,0-.584-2.562,4.242,4.242,0,0,0-1.715-1.825A5.019,5.019,0,0,0,758.549,332.035Z" transform="translate(-730.191 -328.127)" fill="#1e5199"/>
        <path id="Path_2153" data-name="Path 2153" d="M760.748,346.038l.322-2.624.8-9.1.4-6q2.4.027,3.765.027,1.135,0,3.466-.027c.113.744.209,1.31.286,1.694s.269,1.137.575,2.258.554,2.092.738,2.909.463,2.218.836,4.2q.573-2.037,1.04-3.507t1.17-3.335c.467-1.245.766-2.062.89-2.446s.3-.976.514-1.774q1.95.027,3.816.027,1.273,0,3.531-.027-.246,4.377-.324,7.517-.169,6.151-.17,8.463c0,.322.009.9.027,1.74-1.143-.016-1.943-.027-2.4-.027-.665,0-1.484.011-2.451.027q.106-1.17.263-5.563t.157-5.614c0-.354-.009-.849-.025-1.48l-1.7,5.284-2.444,7.374c-1.126-.016-1.9-.027-2.325-.027-.536,0-1.358.011-2.465.027l-1.6-7.139-.937-3.8c-.034-.149-.074-.329-.117-.546s-.113-.6-.209-1.142l-.325,3.6-.433,7.374-.041,1.662c-1.192-.016-1.954-.027-2.283-.027C762.635,346.011,761.857,346.022,760.748,346.038Z" transform="translate(-720.182 -327.981)" fill="#1e5199"/>
        <path id="Path_2154" data-name="Path 2154" d="M774.712,346.038l.32-2.624.8-9.1.4-6q2.4.027,3.767.027,1.133,0,3.466-.027c.113.744.207,1.31.285,1.694s.269,1.137.576,2.258.552,2.092.738,2.909.463,2.218.835,4.2q.573-2.037,1.04-3.507t1.172-3.335q.7-1.867.889-2.446t.515-1.774q1.947.027,3.816.027,1.273,0,3.531-.027-.249,4.377-.326,7.517-.169,6.151-.168,8.463c0,.322.009.9.026,1.74-1.142-.016-1.943-.027-2.4-.027-.665,0-1.484.011-2.453.027q.106-1.17.264-5.563t.157-5.614c0-.354-.009-.849-.025-1.48l-1.7,5.284-2.442,7.374c-1.126-.016-1.9-.027-2.325-.027-.536,0-1.358.011-2.465.027l-1.6-7.139-.937-3.8c-.036-.149-.074-.329-.119-.546s-.113-.6-.207-1.142L779.8,337l-.431,7.374-.041,1.662c-1.194-.016-1.954-.027-2.283-.027C776.6,346.011,775.819,346.022,774.712,346.038Z" transform="translate(-709.453 -327.981)" fill="#1e5199"/>
        <path id="Path_2155" data-name="Path 2155" d="M788.81,346.038q.326-3.35.476-5.607t.3-6q.152-3.748.15-4.967l-.014-1.142q3.063.027,7.413.027,4.01,0,7.073-.027l-.027.426c-.009.1-.03.481-.065,1.126l-.078,1.409c-.018.3-.025.61-.025.92q-2.507-.1-4.207-.1-1.87,0-2.525.005t-2.044.06l-.157,2.983q1.53.042,3.57.041.729,0,3.869-.09-.13,1.661-.246,3.958-2.247-.024-3.452-.025-1.791,0-4.007.09l-.156,3.155h1.493q.66,0,2.737-.039l2.684-.065q.6-.011,2-.1-.154,1.92-.26,3.974-3.167-.024-6.944-.027l-5.714.014Z" transform="translate(-698.621 -327.981)" fill="#1e5199"/>
        <path id="Path_2156" data-name="Path 2156" d="M798.762,346.072q.247-2.284.391-4.115t.248-4.246q.1-2.414.156-5.095t.051-4.265q1.626.04,2.624.041c.69,0,1.535-.021,2.53-.058s1.963-.06,2.906-.06a29.442,29.442,0,0,1,2.96.131,7.276,7.276,0,0,1,1.772.375,5.07,5.07,0,0,1,1.344.7,4.183,4.183,0,0,1,.907.914,3.9,3.9,0,0,1,.566,1.187,5.122,5.122,0,0,1,.2,1.461,5.836,5.836,0,0,1-.221,1.63,4.76,4.76,0,0,1-.695,1.427,4.582,4.582,0,0,1-1.194,1.155,10.484,10.484,0,0,1-2.019.994l.676,1.648q.287.69.61,1.4l1.74,3.8c.076.166.216.49.414.974-1.425-.016-2.385-.026-2.879-.026-.622,0-1.643.011-3.063.026-.138-.451-.389-1.284-.752-2.506q-.223-.764-.378-1.181-.31-.923-.923-2.584l-1.339-3.673a7.534,7.534,0,0,0,1.377.129,4.914,4.914,0,0,0,1.719-.286,2.315,2.315,0,0,0,1.169-.882,2.243,2.243,0,0,0,.4-1.259,1.649,1.649,0,0,0-.3-.98,1.768,1.768,0,0,0-.941-.629,6.979,6.979,0,0,0-1.981-.207c-.3,0-.615.005-.941.018s-.7.025-1.135.034q-.167,2.661-.3,6.49t-.166,7.517c-1.446-.016-2.387-.026-2.819-.026C800.976,346.045,800.071,346.056,798.762,346.072Z" transform="translate(-690.974 -328.015)" fill="#1e5199"/>
        <path id="Path_2157" data-name="Path 2157" d="M824.687,341.86c-.106.511-.232,1.218-.379,2.129s-.246,1.616-.3,2.117a33.869,33.869,0,0,1-4.96.415,13.99,13.99,0,0,1-3.913-.527,9.583,9.583,0,0,1-3.323-1.726,6.848,6.848,0,0,1-2.163-2.822,9.749,9.749,0,0,1-.647-3.636,9.868,9.868,0,0,1,.875-4.225,8.265,8.265,0,0,1,2.52-3.13,10.432,10.432,0,0,1,3.6-1.791,15.191,15.191,0,0,1,4.048-.538,28.527,28.527,0,0,1,4.753.492l.025,1.091c.018.476.044,1,.078,1.57l.092,1.48q-1.52-.363-2.46-.493a13.162,13.162,0,0,0-1.747-.129,6.941,6.941,0,0,0-3.155.7,5.284,5.284,0,0,0-2.207,2.037,5.633,5.633,0,0,0-.8,2.96,4.616,4.616,0,0,0,.676,2.538,4.527,4.527,0,0,0,1.823,1.634,6.246,6.246,0,0,0,2.836.578,14.829,14.829,0,0,0,2.005-.149A23.9,23.9,0,0,0,824.687,341.86Z" transform="translate(-683.104 -328.127)" fill="#1e5199"/>
        <path id="Path_2158" data-name="Path 2158" d="M819.267,346.038q.326-3.35.476-5.607t.3-6q.149-3.748.149-4.967l-.012-1.142q3.061.027,7.411.027,4.011,0,7.073-.027l-.025.426c-.011.1-.032.481-.065,1.126l-.08,1.409c-.017.3-.025.61-.025.92q-2.506-.1-4.207-.1c-1.247,0-2.087,0-2.525.005s-1.118.025-2.044.06l-.157,2.983q1.53.042,3.572.041.727,0,3.869-.09-.133,1.661-.248,3.958-2.247-.024-3.452-.025-1.791,0-4.007.09l-.154,3.155h1.491c.442,0,1.353-.014,2.737-.039l2.685-.065q.6-.011,2-.1-.154,1.92-.26,3.974-3.167-.024-6.944-.027l-5.712.014Z" transform="translate(-675.219 -327.981)" fill="#1e5199"/>
      </g>
    </g>
  </g>
</svg>
