<svg xmlns="http://www.w3.org/2000/svg" width="47.009" height="47.049" viewBox="0 0 47.009 47.049">
  <g id="그룹_3171" data-name="그룹 3171" transform="translate(0 0)">
    <g id="그룹_3163" data-name="그룹 3163" transform="translate(24.16 0) rotate(45)">
      <g id="그룹_3162" data-name="그룹 3162" transform="translate(0 0)">
        <path id="패스_2174" data-name="패스 2174" d="M0,10.347v0l.858.445A8.565,8.565,0,0,1,8.037,6.474a4.492,4.492,0,0,1,4.881,4.855V17.8h6.474l-.028-6.474c0-1.037.43-4.855,3.667-4.855a3.206,3.206,0,0,1,2.4,1.091,1.579,1.579,0,0,0,1.185.528H31.5a.81.81,0,0,0,.809-.809V.809A.81.81,0,0,0,31.5,0H26.62a1.585,1.585,0,0,0-1.186.528,3.2,3.2,0,0,1-2.4,1.091A3.205,3.205,0,0,1,20.63.528,1.579,1.579,0,0,0,19.446,0H12.892C8.759,0,2,4.494,0,10.347Z" fill="#fff"/>
      </g>
    </g>
    <g id="그룹_3165" data-name="그룹 3165" transform="translate(18.31 21.616) rotate(45)">
      <g id="그룹_3164" data-name="그룹 3164" transform="translate(0 0)">
        <path id="패스_2175" data-name="패스 2175" d="M9.893,11.329c.453-5.1.1-7.077-1.62-11.329H1.8C.083,4.252-.274,6.226.18,11.329,1,20.5.117,20.949.1,22.754S1.109,25.9,2.356,25.9H7.717c1.246,0,2.272-1.337,2.256-3.141S9.075,20.5,9.893,11.329Z" fill="#fff"/>
      </g>
    </g>
  </g>
</svg>
