<svg id="Component_72_2" data-name="Component 72 – 2" xmlns="http://www.w3.org/2000/svg" width="30" height="12.848" viewBox="0 0 30 12.848">
  <path id="Path_1674" data-name="Path 1674" d="M290.523,417.35a3.065,3.065,0,0,1-2.192-.9,2.782,2.782,0,0,1-.8-2.09,2.733,2.733,0,0,1,.958-1.925,3.116,3.116,0,0,1,4.075.007l3.008-2.912a2.857,2.857,0,0,1-.013-.435,3,3,0,0,1,5.987.179l3.147,2.4a2.827,2.827,0,0,1,.531-.6,3.12,3.12,0,0,1,4.085.06l2.671-2.3a2.7,2.7,0,0,1-.414-1.908,2.945,2.945,0,0,1,2.942-2.424,3.122,3.122,0,0,1,.46.034,3.069,3.069,0,0,1,.972.306,2.784,2.784,0,0,1,1.238,3.843,3.056,3.056,0,0,1-2.647,1.5,3.117,3.117,0,0,1-1.273-.274l-3.1,2.66a2.736,2.736,0,0,1,.069.6,2.932,2.932,0,0,1-2.965,2.849,3.323,3.323,0,0,1-.466-.03,2.905,2.905,0,0,1-2.551-2.59l-3.279-2.5a2.876,2.876,0,0,1-.632.607,3.116,3.116,0,0,1-4.036-.4l-2.861,2.77a2.724,2.724,0,0,1-.88,2.713A3.094,3.094,0,0,1,290.523,417.35Zm-.01-4.072a1.28,1.28,0,0,0-1.279,1.057,1.2,1.2,0,0,0,.253.928,1.261,1.261,0,0,0,.843.467,1.3,1.3,0,0,0,1.483-1.041,1.192,1.192,0,0,0-.251-.931,1.263,1.263,0,0,0-.843-.464A1.3,1.3,0,0,0,290.513,413.277Zm16.7-1.324a1.274,1.274,0,0,0-1.275,1.051,1.2,1.2,0,0,0,.253.923,1.269,1.269,0,0,0,.843.467,1.325,1.325,0,0,0,.206.016,1.282,1.282,0,0,0,1.279-1.053,1.21,1.21,0,0,0-.253-.922,1.281,1.281,0,0,0-.843-.468,1.573,1.573,0,0,0-.2-.013Zm-8.683-3.945a1.274,1.274,0,0,0-1.273,1.05,1.242,1.242,0,0,0,1.1,1.39,1.271,1.271,0,0,0,.2.016,1.285,1.285,0,0,0,1.282-1.053l.009-.059a1.2,1.2,0,0,0-.26-.865,1.277,1.277,0,0,0-.846-.466,1.55,1.55,0,0,0-.2-.013Zm15.991-1.892a1.28,1.28,0,0,0-1.279,1.056,1.243,1.243,0,0,0,1.1,1.391,1.307,1.307,0,0,0,1.485-1.04,1.214,1.214,0,0,0-.254-.924,1.263,1.263,0,0,0-.842-.467A1.292,1.292,0,0,0,314.521,406.116Z" transform="translate(-287.528 -404.502)" fill="#fff"/>
</svg>
