<svg xmlns="http://www.w3.org/2000/svg" width="16" height="15.918" viewBox="0 0 16 15.918">
  <path id="パス_211" data-name="パス 211" d="M14.163,61a1.84,1.84,0,0,0-1.816,1.563l-.558.558a5.513,5.513,0,0,1-3.829,1.552H4.286A1.84,1.84,0,0,0,2.554,65.9H2.449a2.449,2.449,0,1,0,0,4.9h.105a1.845,1.845,0,0,0,1.119,1.119v3.167a1.837,1.837,0,0,0,3.673,0V72.02h.612a5.513,5.513,0,0,1,3.829,1.552l.558.558A1.837,1.837,0,0,0,16,73.857V62.837A1.839,1.839,0,0,0,14.163,61ZM2.449,69.571a1.224,1.224,0,1,1,0-2.449Zm3.673,5.51a.612.612,0,0,1-1.224,0V72.02H6.122ZM7.347,70.8H4.286a.613.613,0,0,1-.612-.612V66.51a.613.613,0,0,1,.612-.612H7.347Zm4.98,1.606a6.692,6.692,0,0,0-3.759-1.578V65.87a6.691,6.691,0,0,0,3.759-1.578Zm2.449,1.455a.613.613,0,0,1-.612.612h0a.613.613,0,0,1-.612-.612V62.837a.612.612,0,0,1,1.224,0Z" transform="translate(0 -61)" fill="#fff"/>
</svg>
