<svg xmlns="http://www.w3.org/2000/svg" width="20" height="14" viewBox="0 0 20 14">
  <path id="パス_1738" data-name="パス 1738" d="M19.13,48H.87a.908.908,0,0,0-.175.017A.837.837,0,0,0,0,48.824V61.176a.837.837,0,0,0,.694.807A.909.909,0,0,0,.87,62H19.13a.909.909,0,0,0,.175-.017A.837.837,0,0,0,20,61.176V48.824A.848.848,0,0,0,19.13,48ZM.87,50.456l6.9,4.75L.87,59.956ZM19.13,61.176H.87v-.2L8.5,55.715l1.24.854a.454.454,0,0,0,.511,0l1.24-.854,7.634,5.259Zm0-1.22-6.9-4.751,6.9-4.75Zm0-10.519L10,55.726.87,49.437v-.614H19.13Z" transform="translate(0 -48)" fill="#1e5199"/>
</svg>
