<svg id="コンポーネント_166_1" data-name="コンポーネント 166 – 1" xmlns="http://www.w3.org/2000/svg" width="120" height="30" viewBox="0 0 120 30">
  <g id="長方形_2459" data-name="長方形 2459" fill="#fff" stroke="#dfe6f0" stroke-width="1">
    <rect width="120" height="30" rx="15" stroke="none"/>
    <rect x="0.5" y="0.5" width="119" height="29" rx="14.5" fill="none"/>
  </g>
  <text id="対象者リスト" transform="translate(36 19)" fill="#0786bd" font-size="12" font-family="HiraginoSans-W3, Hiragino Sans"><tspan x="0" y="0">対象者リスト</tspan></text>
  <g id="コンポーネント_213_6" data-name="コンポーネント 213 – 6" transform="translate(14 7)">
    <path id="パス_212" data-name="パス 212" d="M6.248,11.247H8.373V12.5H6.248Zm-2.343-.156a.781.781,0,1,0,.781.781A.781.781,0,0,0,3.905,11.091Zm8.654-3.812H6.248v1.25h6.311ZM3.905,7.123a.781.781,0,1,0,.781.781A.781.781,0,0,0,3.905,7.123ZM12.559,3.53H6.248V4.78h6.311ZM3.905,3.374a.781.781,0,1,0,.781.781A.781.781,0,0,0,3.905,3.374ZM1.25,14.121V1.875a.626.626,0,0,1,.625-.625H14.121a.626.626,0,0,1,.625.625V8.935H16V1.875A1.877,1.877,0,0,0,14.121,0H1.875A1.877,1.877,0,0,0,0,1.875V14.121A1.877,1.877,0,0,0,1.875,16H9.091v-1.25H1.875A.626.626,0,0,1,1.25,14.121ZM15.116,16l-1.244-1.244a2.815,2.815,0,1,1,.9-.862L16,15.116Zm-2.682-2.1a1.562,1.562,0,1,0-1.562-1.562A1.564,1.564,0,0,0,12.434,13.9Z" fill="#0786bd"/>
  </g>
</svg>
