<svg id="组_1096" data-name="组 1096" xmlns="http://www.w3.org/2000/svg" width="20" height="20" viewBox="0 0 20 20">
  <rect id="矩形_256" data-name="矩形 256" width="20" height="20" rx="4" fill="#DDDDDD"/>
  <path id="路径_56" data-name="路径 56" d="M11.931,8.335a.309.309,0,0,0-.238-.113H10.525a3.981,3.981,0,0,0-1.09-1.786c-1.476-.971-5.392-.971-6.869,0A4,4,0,0,0,1.475,8.222H.307a.308.308,0,0,0-.3.37l.173.838a.307.307,0,0,0,.3.245H.826a2.075,2.075,0,0,0-.5,1.356A2.031,2.031,0,0,0,.97,12.556l.014.011v1.173a.461.461,0,0,0,.461.461H2.522a.461.461,0,0,0,.461-.461v-.471H9.017v.471a.461.461,0,0,0,.461.461h1.077a.462.462,0,0,0,.461-.461v-1.15a2.108,2.108,0,0,0,.135-2.916h.369a.306.306,0,0,0,.3-.245l.173-.838A.31.31,0,0,0,11.931,8.335ZM3.072,7.205a7.668,7.668,0,0,1,5.855,0,3.8,3.8,0,0,1,.792,1.5H2.28A3.8,3.8,0,0,1,3.072,7.205ZM1.693,11.146a.907.907,0,1,1,.907.907A.907.907,0,0,1,1.693,11.146Zm7.718.907a.907.907,0,1,1,.907-.907A.907.907,0,0,1,9.411,12.053Z" transform="translate(4.403 0.293)" fill="#fff"/>
</svg>
