<svg id="组_3174" data-name="组 3174" xmlns="http://www.w3.org/2000/svg" width="20" height="20" viewBox="0 0 20 20">
  <rect id="矩形_259" data-name="矩形 259" width="20" height="20" rx="4" fill="#E50012"/>
  <g id="组_3175" data-name="组 3175" transform="translate(-11.5 -13)">
    <g id="グループ_3124" data-name="グループ 3124" transform="translate(16.001 18)">
      <g id="Icons" transform="translate(0 0)">
        <g id="グループ_733" data-name="グループ 733" transform="translate(0)">
          <g id="favorite">
            <path id="パス_47" data-name="パス 47" d="M334.265,487.727l-.77-.77c-2.859-2.529-4.729-4.233-4.729-6.322a2.981,2.981,0,0,1,2.937-3.024h.087a3.3,3.3,0,0,1,2.474,1.155,3.305,3.305,0,0,1,2.474-1.155,2.981,2.981,0,0,1,3.024,2.937q0,.044,0,.087c0,2.089-1.87,3.793-4.729,6.322Z" transform="translate(-328.766 -477.611)" fill="#fff"/>
          </g>
        </g>
      </g>
      <g id="合体_32" data-name="合体 32" transform="translate(6.375 4.145)">
        <path id="路径_2172" data-name="路径 2172" d="M347.708,493.316h-2v-1.74h-1.621v-2.119h1.621v-1.743h2v1.743h1.625v2.119h-1.625v1.74Z" transform="translate(-343.897 -487.526)" fill="#fff"/>
        <path id="路径_2173" data-name="路径 2173" d="M347.264,492.872v-1.74h1.625v-1.74h-1.625V487.65h-1.622v1.743h-1.621v1.74h1.621v1.74h1.622m.378.379h-2.379v-1.74h-1.622v-2.5h1.622v-1.743h2.379v1.743h1.625v2.5h-1.625v1.74Z" transform="translate(-343.642 -487.271)" fill="#748eb7"/>
      </g>
    </g>
  </g>
</svg>
