<svg xmlns="http://www.w3.org/2000/svg" width="20" height="20" viewBox="0 0 20 20">
  <g id="그룹_3791" data-name="그룹 3791" transform="translate(0.112 0)">
    <rect id="사각형_259" data-name="사각형 259" width="20" height="20" rx="4" transform="translate(-0.112 0)" fill="#DDDDDD"/>
    <path id="합치기_79" data-name="합치기 79" d="M0,6.25A6.25,6.25,0,1,1,6.25,12.5,6.275,6.275,0,0,1,0,6.25Zm2.368,0A3.917,3.917,0,0,0,6.25,10.131,3.915,3.915,0,0,0,10.132,6.25,3.915,3.915,0,0,0,6.25,2.368,3.911,3.911,0,0,0,2.368,6.25ZM6.616,7.739a1.532,1.532,0,0,0,.742-.427l1.408.813a3.134,3.134,0,0,1-2.15,1.237Zm-2.881.386,1.408-.813a1.529,1.529,0,0,0,.741.427V9.362A3.134,3.134,0,0,1,3.735,8.125ZM7.721,6.676a1.375,1.375,0,0,0,0-.852L9.141,5a3.127,3.127,0,0,1,0,2.491ZM3.1,6.25A3.122,3.122,0,0,1,3.36,5l1.419.819a1.375,1.375,0,0,0,0,.852L3.36,7.5A3.118,3.118,0,0,1,3.1,6.25Zm2.344,0a.805.805,0,1,1,.805.806A.807.807,0,0,1,5.445,6.25ZM6.616,4.761V3.138a3.134,3.134,0,0,1,2.15,1.237l-1.408.813A1.531,1.531,0,0,0,6.616,4.761ZM3.735,4.375A3.134,3.134,0,0,1,5.884,3.138V4.761a1.528,1.528,0,0,0-.741.427Z" transform="translate(3.888 4)" fill="#fff"/>
  </g>
</svg>
