<svg id="组_3172" data-name="组 3172" xmlns="http://www.w3.org/2000/svg" width="20" height="20" viewBox="0 0 20 20">
  <rect id="矩形_259" data-name="矩形 259" width="20" height="20" rx="4" fill="#DDDDDD"/>
  <g id="组_3173" data-name="组 3173" transform="translate(-34.531 -43.448) rotate(45)">
    <g id="组_3163" data-name="组 3163" transform="translate(64.272)">
      <g id="组_3162" data-name="组 3162" transform="translate(0)">
        <path id="路径_2174" data-name="路径 2174" d="M64.272,3.143h0l.265.135a2.657,2.657,0,0,1,2.222-1.313A1.377,1.377,0,0,1,68.27,3.442V5.409h2l-.009-1.967c0-.315.133-1.475,1.135-1.475a1,1,0,0,1,.744.331.493.493,0,0,0,.367.16h1.512a.248.248,0,0,0,.25-.246V.246A.248.248,0,0,0,74.022,0H72.51a.494.494,0,0,0-.367.16A1,1,0,0,1,71.4.492,1,1,0,0,1,70.656.16.493.493,0,0,0,70.29,0H68.262A5.073,5.073,0,0,0,64.272,3.143Z" transform="translate(-64.272 0)" fill="#fff"/>
      </g>
    </g>
    <g id="组_3165" data-name="组 3165" transform="translate(67.751 6.157)">
      <g id="组_3164" data-name="组 3164">
        <path id="路径_2175" data-name="路径 2175" d="M177.494,195.442A5.972,5.972,0,0,0,177,192h-1.967a5.968,5.968,0,0,0-.492,3.442,11.5,11.5,0,0,1-.025,3.471c-.005.548.307.954.685.954h1.629c.379,0,.69-.406.685-.954A11.5,11.5,0,0,1,177.494,195.442Z" transform="translate(-174.489 -192)" fill="#fff"/>
      </g>
    </g>
  </g>
</svg>
