<svg xmlns="http://www.w3.org/2000/svg" width="20" height="20" viewBox="0 0 20 20"><g transform="translate(0.112 0)"><rect width="20" height="20" rx="4" transform="translate(-0.112 0)" fill="#DDDDDD"/><g transform="translate(-491.16 -490.372)"><rect width="5.076" height="1.103" rx="0.551" transform="translate(498.88 494.402)" fill="#fff"/><g transform="translate(496.721 494.988)"><path d="M505.625,495.758H504.3v.149a.714.714,0,0,1-.714.713h-4.341a.714.714,0,0,1-.713-.713v-.149h-1.323a.49.49,0,0,0-.49.49v9.828a.49.49,0,0,0,.49.49h8.414a.49.49,0,0,0,.49-.49v-9.828A.49.49,0,0,0,505.625,495.758Zm-6.041,8.965a.123.123,0,0,1-.123.123h-1.1a.122.122,0,0,1-.122-.123v-1.1a.122.122,0,0,1,.122-.122h1.1a.123.123,0,0,1,.123.122Zm0-2.676a.122.122,0,0,1-.123.122h-1.1a.122.122,0,0,1-.122-.122v-1.1a.123.123,0,0,1,.122-.123h1.1a.123.123,0,0,1,.123.123Zm0-2.676a.123.123,0,0,1-.123.122h-1.1a.123.123,0,0,1-.122-.122v-1.1a.123.123,0,0,1,.122-.123h1.1a.123.123,0,0,1,.123.123Zm3.382,5.046h-2.29a.245.245,0,1,1,0-.49h2.29a.245.245,0,0,1,0,.49Zm.723-2.676h-3.013a.245.245,0,1,1,0-.49h3.013a.245.245,0,0,1,0,.49Zm.665-2.676h-3.679a.245.245,0,1,1,0-.49h3.679a.245.245,0,0,1,0,.49Z" transform="translate(-496.721 -495.758)" fill="#fff"/></g></g></g></svg>