<svg xmlns="http://www.w3.org/2000/svg" width="54" height="53" viewBox="0 0 54 53">
  <g id="コンポーネント_693_3" data-name="コンポーネント 693 – 3" transform="translate(1 1)">
    <g id="コンポーネント_692_5" data-name="コンポーネント 692 – 5">
      <g id="長方形_257" data-name="長方形 257" fill="#fff" stroke="rgba(30,81,153,0.15)" stroke-width="1">
        <rect width="52" height="51" rx="25.5" stroke="none"/>
        <rect x="-0.5" y="-0.5" width="53" height="52" rx="26" fill="none"/>
      </g>
    </g>
    <path id="パス_1619" data-name="パス 1619" d="M302.461,275.983c0-.391-.428-.712-.957-.712h-2.068l-1.342-3.033a2.843,2.843,0,0,0-2.674-1.882H286.4a2.844,2.844,0,0,0-2.675,1.882l-1.342,3.033h-2.067c-.528,0-.958.323-.958.714a.889.889,0,0,0,.366.842,3.579,3.579,0,0,0,1.246.651l-.026.032a3.3,3.3,0,0,0-.726,2.059v3.012a2.1,2.1,0,0,0,1.5,2h.644v1.052a.617.617,0,0,0,.617.617h1.9a.617.617,0,0,0,.618-.617v-1.052h10.837v1.052a.617.617,0,0,0,.617.617h1.9a.617.617,0,0,0,.617-.617h0v-1.052h.649a2.1,2.1,0,0,0,1.5-2V279.6a3.291,3.291,0,0,0-.768-2.11l0,0a8.977,8.977,0,0,0,1.191-.656A.923.923,0,0,0,302.461,275.983ZM283.88,275.7l1.279-2.893.01-.031a1.3,1.3,0,0,1,1.228-.876h9.025a1.3,1.3,0,0,1,1.227.876l.011.031,1.28,2.893a.218.218,0,0,1-.2.306H284.079A.218.218,0,0,1,283.88,275.7Zm1.657,4.667A1.534,1.534,0,1,1,284,278.83a1.535,1.535,0,0,1,1.534,1.535Zm6.973,1.5H289.3a.756.756,0,0,1,0-1.513h3.209a.756.756,0,0,1,0,1.513Zm5.312-3.034a1.535,1.535,0,0,1,1.535,1.535h0a1.535,1.535,0,1,1-1.535-1.535Z" transform="translate(-265.613 -256.367)" fill="#f98a00"/>
    <path id="パス_368" data-name="パス 368" d="M35.25-2.428a2.5,2.5,0,0,1-2.5-2.5.357.357,0,0,0-.357-.357.357.357,0,0,0-.357.357h0a2.5,2.5,0,0,1-2.5,2.5.357.357,0,0,0-.357.357.357.357,0,0,0,.357.357,2.5,2.5,0,0,1,2.5,2.5h0a.357.357,0,1,0,.715,0,2.5,2.5,0,0,1,2.5-2.5.357.357,0,0,0,.357-.357A.357.357,0,0,0,35.25-2.428Z" transform="translate(0.223 12.443)" fill="#f98a00"/>
    <path id="パス_369" data-name="パス 369" d="M29.36,5.741h0a1.072,1.072,0,0,1-1.072-1.072.357.357,0,1,0-.714,0A1.072,1.072,0,0,1,26.5,5.741h0a.357.357,0,1,0,0,.714,1.072,1.072,0,0,1,1.072,1.072.357.357,0,1,0,.714,0A1.072,1.072,0,0,1,29.36,6.455a.357.357,0,1,0,0-.714Z" transform="translate(8.05 8.475)" fill="#f98a00"/>
    <text id="購入" transform="translate(26 43)" fill="#f98a00" font-size="7" font-family="HiraginoSans-W6, Hiragino Sans"><tspan x="-7" y="0">購入</tspan></text>
  </g>
</svg>
