<svg xmlns="http://www.w3.org/2000/svg" xmlns:xlink="http://www.w3.org/1999/xlink" width="16" height="16" viewBox="0 0 16 16">
  <defs>
    <clipPath id="clip-path">
      <rect width="16" height="16" fill="none"/>
    </clipPath>
  </defs>
  <g id="Repeat_Grid_17" data-name="Repeat Grid 17" clip-path="url(#clip-path)">
    <g transform="translate(0 -3)">
      <g id="Component_222_1" data-name="Component 222 – 1" transform="translate(0 3)">
        <path id="Path_715" data-name="Path 715" d="M13.655,2.344a8,8,0,1,0,0,11.311A7.994,7.994,0,0,0,13.655,2.344ZM8,14.684A6.684,6.684,0,1,1,14.684,8,6.692,6.692,0,0,1,8,14.684Z" transform="translate(0 0)" fill="#0786bd"/>
        <path id="Path_716" data-name="Path 716" d="M175.565,132.843a.657.657,0,1,0,0-1.314h-.842l1.405-2.342a.657.657,0,0,0-1.127-.676l-1.439,2.4-1.439-2.4a.657.657,0,1,0-1.127.676l1.405,2.342h-.842a.657.657,0,0,0,0,1.314h1.345v.688h-1.345a.657.657,0,0,0,0,1.314h1.345v.678a.657.657,0,1,0,1.314,0v-.678h1.345a.657.657,0,0,0,0-1.314H174.22v-.688Z" transform="translate(-165.563 -124.186)" fill="#0786bd"/>
      </g>
    </g>
  </g>
</svg>
