<svg xmlns="http://www.w3.org/2000/svg" width="17.364" height="18.405" viewBox="0 0 17.364 18.405">
  <path id="Path_1673" data-name="Path 1673" d="M296.272,457.336l-.853-2.587a6.577,6.577,0,0,1-2.164-1.327l-2.631.5-1.479-2.564,1.761-2.038a7.915,7.915,0,0,1-.067-2.514l-1.824-2.043,1.56-2.6,2.618.539a6.571,6.571,0,0,1,1.013-.66,7.174,7.174,0,0,1,.657-.315c.125-.055.25-.109.367-.165l.858-2.582,3.034-.049.853,2.587a6.576,6.576,0,0,1,2.165,1.327l2.631-.5,1.478,2.563-1.761,2.038a7.891,7.891,0,0,1,.067,2.515l1.824,2.043-1.56,2.6-2.618-.54a7.373,7.373,0,0,1-1.668.974c-.126.056-.252.11-.369.167l-.857,2.581Zm-2.62-5.211.225.229a5.346,5.346,0,0,0,2.2,1.352l.292.093.765,2.322,1.3-.02.737-2.219.2-.114a7.008,7.008,0,0,1,.682-.329,5.861,5.861,0,0,0,.555-.264,5.48,5.48,0,0,0,1.039-.709l.225-.2,2.357.485.668-1.115-1.618-1.812.049-.285a6.685,6.685,0,0,0-.071-2.636l-.068-.3,1.6-1.846-.627-1.085-2.414.461-.225-.23a5.354,5.354,0,0,0-2.2-1.351l-.292-.093-.765-2.322-1.3.02-.737,2.219-.2.114a7.248,7.248,0,0,1-.677.327,5.525,5.525,0,0,0-.56.267,5.4,5.4,0,0,0-1.039.708l-.224.194-2.356-.484-.668,1.115,1.616,1.811-.049.285a6.7,6.7,0,0,0,.073,2.636l.067.3-1.6,1.847.626,1.085Zm4-1.379a2.707,2.707,0,0,1-2.347-1.351h0a2.7,2.7,0,0,1,4.684-2.706,2.7,2.7,0,0,1-2.337,4.058Zm-1.307-1.95a1.5,1.5,0,1,0,.55-2.058,1.508,1.508,0,0,0-.55,2.058Z" transform="translate(-289.015 -438.931)" fill="#0786bd"/>
</svg>
