<svg xmlns="http://www.w3.org/2000/svg" width="14.555" height="14.555" viewBox="0 0 14.555 14.555">
  <g id="Component_55_1" data-name="Component 55 – 1" transform="translate(7.071) rotate(45)">
    <path id="Path_1637" data-name="Path 1637" d="M10.333,16.953,5.91,12.53a.84.84,0,0,0-.618-.251.8.8,0,0,0-.611.251L.258,16.953a.861.861,0,0,0,0,1.23l.509.509a.808.808,0,0,0,.611.258.808.808,0,0,0,.611-.258l2-1.99v4.783a.724.724,0,0,0,.255.574.907.907,0,0,0,.615.221h.87a.907.907,0,0,0,.615-.221.724.724,0,0,0,.255-.574V16.7l2,1.99a.807.807,0,0,0,.612.258.843.843,0,0,0,.618-.258l.509-.509a.877.877,0,0,0,0-1.23Z" transform="translate(0 -12.279)" fill="#db3394"/>
  </g>
</svg>
