<svg xmlns="http://www.w3.org/2000/svg" width="12.046" height="12" viewBox="0 0 12.046 12">
  <g id="Group_1960" data-name="Group 1960" transform="translate(0 -0.117)">
    <path id="Path_755" data-name="Path 755" d="M9.8,16.464h-2v1.188h2c.595,0,1.056.3,1.056.566v5.27c0,.262-.461.566-1.056.566H2.243c-.595,0-1.056-.3-1.056-.566v-5.27c0-.262.461-.566,1.056-.566h2V16.464h-2A2.022,2.022,0,0,0,0,18.219v5.27a2.022,2.022,0,0,0,2.243,1.754H9.8a2.022,2.022,0,0,0,2.243-1.754v-5.27A2.022,2.022,0,0,0,9.8,16.464Z" transform="translate(0 -13.126)" fill="#0786bd"/>
    <path id="Path_756" data-name="Path 756" d="M22.7,5.809a.589.589,0,0,0-.418.173l-.74.74V.708a.591.591,0,0,0-1.182,0V6.762l-.78-.78a.591.591,0,0,0-.836.836L20.51,8.582a.589.589,0,0,0,.418.173h.009a.588.588,0,0,0,.418-.173l1.765-1.765A.591.591,0,0,0,22.7,5.809Z" transform="translate(-14.889 0)" fill="#0786bd"/>
  </g>
</svg>
