<svg id="구성_요소_85_19" data-name="구성 요소 85 – 19" xmlns="http://www.w3.org/2000/svg" width="16" height="16" viewBox="0 0 16 16">
  <g id="그룹_1541" data-name="그룹 1541">
    <g id="타원_63" data-name="타원 63" fill="#fff" stroke="#1e5199" stroke-width="1">
      <ellipse cx="8" cy="8" rx="8" ry="8" stroke="none"/>
      <ellipse cx="8" cy="8" rx="7.5" ry="7.5" fill="none"/>
    </g>
    <path id="합치기_9" data-name="합치기 9" d="M1.058,10.487a5.293,5.293,0,0,1-.642-.724A5.638,5.638,0,0,1,.04,9.2a.3.3,0,0,1-.014-.266,3.382,3.382,0,0,1,.321-.585,3.94,3.94,0,0,1,2.747-1.73.523.523,0,0,1,.4.1,3.406,3.406,0,0,0,4.017,0,.589.589,0,0,1,.4-.1,3.971,3.971,0,0,1,2.748,1.73,2.992,2.992,0,0,1,.32.585.239.239,0,0,1-.041.266,4.934,4.934,0,0,1-.377.558,6.461,6.461,0,0,1-.641.724,7.016,7.016,0,0,1-4.421,1.237A7.135,7.135,0,0,1,1.058,10.487ZM2.312,3.193A3.194,3.194,0,1,1,5.506,6.387,3.2,3.2,0,0,1,2.312,3.193Z" transform="translate(2.466 3.913)" fill="#1e5199"/>
  </g>
</svg>
