<svg id="Group_1520" data-name="Group 1520" xmlns="http://www.w3.org/2000/svg" width="30" height="30" viewBox="0 0 30 30">
  <rect id="Rectangle_341" data-name="Rectangle 341" width="30" height="30" rx="15" fill="#0786bd"/>
  <g id="Group_2822" data-name="Group 2822" transform="translate(8 8)">
    <g id="コンポーネント_207" data-name="コンポーネント 207" transform="translate(0 0)">
      <path id="Path_99" data-name="Path 99" d="M14,12.767,11.094,9.862a6.029,6.029,0,0,0,1.233-3.7A6.126,6.126,0,0,0,6.164,0,6.126,6.126,0,0,0,0,6.164a6.126,6.126,0,0,0,6.164,6.164,6.029,6.029,0,0,0,3.7-1.233L12.767,14ZM1.761,6.164a4.36,4.36,0,0,1,4.4-4.4,4.36,4.36,0,0,1,4.4,4.4,4.36,4.36,0,0,1-4.4,4.4A4.36,4.36,0,0,1,1.761,6.164Z" transform="translate(0 0)" fill="#fff"/>
    </g>
  </g>
</svg>
