<svg id="コンポーネント_222_2" data-name="コンポーネント 222 – 2" xmlns="http://www.w3.org/2000/svg" width="22" height="22" viewBox="0 0 22 22">
  <path id="パス_715" data-name="パス 715" d="M18.776,3.224a11,11,0,1,0,0,15.553A10.992,10.992,0,0,0,18.776,3.224ZM11,20.191A9.191,9.191,0,1,1,20.191,11,9.2,9.2,0,0,1,11,20.191Z" transform="translate(0 0)" fill="#fff"/>
  <path id="パス_716" data-name="パス 716" d="M177.313,134.587a.9.9,0,1,0,0-1.807h-1.158l1.932-3.22a.9.9,0,1,0-1.549-.93l-1.978,3.3-1.978-3.3a.9.9,0,1,0-1.549.93l1.932,3.22h-1.158a.9.9,0,1,0,0,1.807h1.85v.946h-1.85a.9.9,0,0,0,0,1.807h1.85v.932a.9.9,0,1,0,1.807,0v-.932h1.85a.9.9,0,1,0,0-1.807h-1.85v-.946Z" transform="translate(-163.56 -122.683)" fill="#fff"/>
</svg>
