<svg xmlns="http://www.w3.org/2000/svg" width="22" height="22.099" viewBox="0 0 22 22.099">
  <path id="パス_1726" data-name="パス 1726" d="M18.864,40.579a2.307,2.307,0,0,0-1.673-.767,2.386,2.386,0,0,0-1.693.762l-1.564,1.559c-.129-.069-.257-.134-.381-.2-.178-.089-.347-.173-.49-.262A17,17,0,0,1,8.988,37.96a10.031,10.031,0,0,1-1.337-2.109c.406-.371.782-.757,1.148-1.129.139-.139.277-.282.416-.421a2.271,2.271,0,0,0,0-3.426L7.865,29.525c-.153-.153-.312-.312-.46-.47-.3-.307-.609-.624-.931-.921a2.343,2.343,0,0,0-1.658-.728,2.425,2.425,0,0,0-1.683.728l-.01.01-1.683,1.7a3.622,3.622,0,0,0-1.074,2.3A8.678,8.678,0,0,0,1,35.817a21.315,21.315,0,0,0,3.787,6.317,23.3,23.3,0,0,0,7.757,6.074A12.086,12.086,0,0,0,16.9,49.495c.1,0,.213.01.312.01a3.73,3.73,0,0,0,2.856-1.228c0-.01.015-.015.02-.025a11.255,11.255,0,0,1,.866-.9c.213-.2.431-.416.644-.639A2.47,2.47,0,0,0,22.344,45a2.379,2.379,0,0,0-.762-1.7Zm1.772,5.213s0,0,0,0c-.193.208-.391.4-.6.6a13.015,13.015,0,0,0-.955.99,2.386,2.386,0,0,1-1.861.787c-.074,0-.153,0-.228,0a10.737,10.737,0,0,1-3.861-1.158A21.99,21.99,0,0,1,5.82,41.287a20.1,20.1,0,0,1-3.564-5.936,7.068,7.068,0,0,1-.554-3.1,2.272,2.272,0,0,1,.683-1.47l1.688-1.688a1.125,1.125,0,0,1,.752-.351,1.059,1.059,0,0,1,.723.347l.015.015c.3.282.589.574.891.886.153.158.312.317.47.48l1.351,1.351a.945.945,0,0,1,0,1.535c-.144.144-.282.287-.426.426-.416.426-.812.822-1.243,1.208-.01.01-.02.015-.025.025a1.01,1.01,0,0,0-.257,1.124l.015.045a10.85,10.85,0,0,0,1.6,2.609l0,0a18.17,18.17,0,0,0,4.4,4,6.757,6.757,0,0,0,.609.332c.178.089.347.173.49.262.02.01.04.025.059.035a1.073,1.073,0,0,0,.49.124,1.058,1.058,0,0,0,.752-.342l1.693-1.693a1.12,1.12,0,0,1,.748-.371,1.008,1.008,0,0,1,.713.361l.01.01,2.728,2.728A.979.979,0,0,1,20.637,45.792Z" transform="translate(-0.344 -27.406)" fill="#fff"/>
</svg>
