<svg id="コンポーネント_108_2" data-name="コンポーネント 108 – 2" xmlns="http://www.w3.org/2000/svg" width="27" height="24.163" viewBox="0 0 27 24.163">
  <g id="グループ_2760" data-name="グループ 2760">
    <path id="パス_1738" data-name="パス 1738" d="M484.4,448.226a1.332,1.332,0,0,1-.9-.341l-6.463-5.847a1.317,1.317,0,0,1-.42-.988,1.262,1.262,0,0,1,.42-.895l6.461-5.845a1.332,1.332,0,0,1,.9-.343h.005a1.315,1.315,0,0,1,.924.373,1.258,1.258,0,0,1,.388.911V437.5h6.417a1.3,1.3,0,0,1,1.316,1.286v4.621a1.3,1.3,0,0,1-1.316,1.284h-6.418v2.248a1.284,1.284,0,0,1-.79,1.177A1.323,1.323,0,0,1,484.4,448.226Zm-.18-1.682v-3.31h7.735v-4.266h-7.735v-3.314L478.2,441.1Z" transform="translate(-476.62 -433.968)" fill="#fff"/>
    <path id="パス_1739" data-name="パス 1739" d="M493.716,456.254a1.3,1.3,0,0,1-1.316-1.283v-2.253h-6.422a1.3,1.3,0,0,1-1.316-1.286v-4.619a1.3,1.3,0,0,1,1.316-1.284H492.4v-2.252a1.281,1.281,0,0,1,.79-1.177,1.33,1.33,0,0,1,.525-.107h.25l-.009.026a1.319,1.319,0,0,1,.652.318l6.464,5.848a1.312,1.312,0,0,1,.42.987,1.262,1.262,0,0,1-.42.894l-6.463,5.845a1.335,1.335,0,0,1-.891.343Zm.18-5v3.312l6.02-5.446-6.02-5.445v3.309h-7.738v4.27Z" transform="translate(-474.494 -432.092)" fill="#fff"/>
  </g>
</svg>
