<svg xmlns="http://www.w3.org/2000/svg" width="458.37" height="810.35" viewBox="0 0 458.37 810.35">
  <g id="Group_2992" data-name="Group 2992" transform="translate(-8196.5 17404.5)">
    <g id="グループ_3650" data-name="グループ 3650" transform="translate(8197.46 -17404.5)">
      <path id="パス_2338" data-name="パス 2338" d="M129.93,79.9a8.874,8.874,0,0,1-.54-3.92c.32-7.16-2.15-13.46,0-20.72a8.816,8.816,0,0,1,2.21-3.89,9.576,9.576,0,0,1,4-2.1c6.36-1.55,78.94.42,98.18,0,0,0,80.12-1.72,87.22,0a9.576,9.576,0,0,1,4,2.1,8.816,8.816,0,0,1,2.21,3.89c2.15,7.26-.32,13.56,0,20.72a8.408,8.408,0,0,1-.84,4.55,11.768,11.768,0,0,1-2.12,2.64,10.873,10.873,0,0,1-1.35,1.09V265h0a70.754,70.754,0,0,1-.57,11.08,74.325,74.325,0,0,1-1.7,8.24c-.24,1-1.79,7.07-4,13.22-2.68,7.53-11.59,29.9-24.27,59.82-.07,84.57,0,146.36.15,149.17a23.757,23.757,0,0,0,1.15,5.95c.18.51.34.9.44,1.13,5,12.24,9.1,24.86,14,37.17,0,0,4.58,11.55,10.53,31.12a126.2,126.2,0,0,1,3.07,13.6c.11.62.27,1.59.38,2.85a32.364,32.364,0,0,1,0,5.21V739.32l1.07.49a7.83,7.83,0,0,1,4.36,5.43V763a6.869,6.869,0,0,1-1.63,4.77,6.772,6.772,0,0,1-4,2.21H136.7a6.69,6.69,0,0,1-5.58-7v-17.8a7.9,7.9,0,0,1,3.43-4.93c.2-94.42.14-135.09,0-136.73a25.3,25.3,0,0,1,0-5.22c.06-.64.14-1.28.14-1.28.07-.61.16-1.12.24-1.57,1.34-7.6,3.07-13.6,3.07-13.6,2.35-8.14,4.56-14.06,10.53-31.12.33-.94,4.94-14.09,9.91-26.77,1.36-3.46,2.63-7,4.06-10.4.08-.18.25-.59.45-1.15a20.379,20.379,0,0,0,1.14-5.93v-1.4l.15-147.77c-12.68-29.92-21.59-52.29-24.28-59.82-2.43-6.84-4-13.22-4-13.22a74.327,74.327,0,0,1-1.7-8.24,70.756,70.756,0,0,1-.57-11.08h0c-1.88-6.34-2-64.08,0-180.75h-.05a10,10,0,0,1-1.3-1,8.889,8.889,0,0,1-2.12-2.64A5.162,5.162,0,0,1,129.93,79.9Z" fill="#e3f1f6"/>
      <path id="パス_2339" data-name="パス 2339" d="M43.07,176.34a35.078,35.078,0,0,0-5.52,1.91C32,180.77,21.43,189,17.21,202.93a43.521,43.521,0,0,0-.2,23.5c1.09,4,3.35,11.93,10.66,18.57a33.731,33.731,0,0,0,15,7.9l1.69.36q.1,64.32.29,128.6c.11,39.77.24,79.73.4,119.49A34.146,34.146,0,0,0,33,506.09c-11.58,7.44-14.73,19.87-15.8,24.1s-3.72,15.43,1.8,27.65A38.265,38.265,0,0,0,34.2,575a32.979,32.979,0,0,0,9.47,3.75l1.39.29v68.84a7.876,7.876,0,0,0,1.18,4.94A8,8,0,0,0,50.19,656l.66.23L77,655l33.37-1.61a4.91,4.91,0,0,0,2.82-.91c1.26-.94,1.63-2.35,2-3.93a62.3,62.3,0,0,0,1.51-6.86c.31-4.41,3.14-34.33,7-75.52a10.654,10.654,0,0,1,.4-2.62,10.887,10.887,0,0,1,1.21-2.72c6-9.72,17.64-24.2,17.64-24.2,7.4-9.17,5.47-7.66,10.29-13.31,2.67-3.13,5.26-5.94,7.66-10.58a41.143,41.143,0,0,0,3-7.78V356.34a276.337,276.337,0,0,0-19.21-36.73c-7.12-11.26-9.78-15.8-15.11-24.87-5.51-9.4-3.82-7.34-5.19-9.25s-3.12-4-3.79-7.36a13.77,13.77,0,0,1-.22-3.79c.44-6.32-2.72-39.63-7.05-120.47-.36-6.65-.94-17.75-1.63-31.69a6.513,6.513,0,0,0-1.46-2.6,6.889,6.889,0,0,0-3.9-2.12L82,116.65c-16.24-.27-27.21-.6-30.33-1.05A6.62,6.62,0,0,0,48,116a6.849,6.849,0,0,0-3.18,2.91h0a4.3,4.3,0,0,0-.94,2.91c-.27.74-.42,11,.18,54" fill="#e3f1f6"/>
      <path id="パス_2340" data-name="パス 2340" d="M414.35,175.34a35.192,35.192,0,0,1,5.53,1.91c5.55,2.52,16.12,10.7,20.34,24.68a43.726,43.726,0,0,1,.2,23.5c-1.09,4-3.36,11.93-10.67,18.57a33.625,33.625,0,0,1-15,7.9l-1.68.36q-.12,64.32-.29,128.6c-.12,39.77-.25,79.73-.4,119.49a34.146,34.146,0,0,1,12.05,4.74c11.58,7.44,14.72,19.87,15.8,24.1s3.73,15.43-1.78,27.65A38.272,38.272,0,0,1,423.23,574a32.98,32.98,0,0,1-9.48,3.75l-1.38.29v68.84a7.83,7.83,0,0,1-5.14,8.1l-.66.23L380.44,654l-33.38-1.61a4.932,4.932,0,0,1-2.82-.91c-1.26-.94-1.63-2.35-2-3.93a64.6,64.6,0,0,1-1.51-6.86c-.31-4.41-3.13-34.33-6.95-75.52a10.573,10.573,0,0,0-1.61-5.34c-6-9.72-17.65-24.2-17.65-24.2-7.4-9.17-5.46-7.66-10.28-13.31-2.68-3.13-5.27-5.94-7.67-10.58a41.915,41.915,0,0,1-3.05-7.78V355.34a276.4,276.4,0,0,1,19.22-36.73c7.12-11.26,9.78-15.8,15.11-24.87,5.51-9.4,3.82-7.34,5.18-9.25s3.13-4,3.79-7.36a13.771,13.771,0,0,0,.23-3.79c-.45-6.32,2.72-39.63,7.05-120.47.35-6.65.94-17.75,1.62-31.69a6.653,6.653,0,0,1,1.47-2.6,6.886,6.886,0,0,1,3.89-2.12l24.38-.81c16.25-.27,27.22-.6,30.34-1.05a6.629,6.629,0,0,1,3.63.36,6.9,6.9,0,0,1,3.18,2.91h0a4.3,4.3,0,0,1,.94,2.91c.27.74.41,11-.18,54" fill="#e3f1f6"/>
      <path id="パス_2341" data-name="パス 2341" d="M149.22,265.34c-.55.19-2.54.9-3.57,0a4,4,0,0,1-.9-2.47,9.818,9.818,0,0,1-.06-2.54l1.65-133a4.73,4.73,0,0,1,1.37-3.86,4.065,4.065,0,0,1,1.92-1l156.11-.69a3.84,3.84,0,0,1,2.68.76,4,4,0,0,1,1.44,3.22Q311,194,312.06,262.32a3.43,3.43,0,0,1-1.51,2.68,3.28,3.28,0,0,1-3.5-.07,341.772,341.772,0,0,0-53-8.87,317,317,0,0,0-51.65-.45c-11.48.92-17.21,1.38-22,2.65C170.1,261,159.29,261.85,149.22,265.34Z" fill="#fff"/>
      <path id="パス_2342" data-name="パス 2342" d="M228,265.15a270.843,270.843,0,0,0-29.61.47c-3.92.28-7.88.56-13.23,1.28-7.87,1.07-8.62,1.71-16.17,2.57,0,0-2.55.29-7,1.1-4.81.89-6.1,1.38-7.35,2.2a10.751,10.751,0,0,0-4,4.78,10.878,10.878,0,0,0,0,7.9c7.08,21.8,12.34,37.77,13.78,42.26a43.992,43.992,0,0,0,2.39,5.51c1.54,3.07,2.51,4.23,3.67,5.14a10.109,10.109,0,0,0,3.13,1.65,10.286,10.286,0,0,0,4.41.37c3.3-.38,22.66-.36,50-.14,27.34-.22,46.71-.24,50,.14a10.286,10.286,0,0,0,4.41-.37,10.059,10.059,0,0,0,3.12-1.65c1.16-.91,2.13-2.07,3.68-5.14a42.608,42.608,0,0,0,2.38-5.51c1.45-4.49,6.7-20.46,13.78-42.26a10.878,10.878,0,0,0,0-7.9,10.674,10.674,0,0,0-4-4.78c-1.25-.83-2.54-1.32-7.35-2.2-4.43-.81-7-1.1-7-1.1-7.54-.86-8.3-1.5-16.17-2.57-5.35-.72-9.31-1-13.22-1.28A270.822,270.822,0,0,0,228,265.15Z" fill="#fff"/>
      <path id="パス_2343" data-name="パス 2343" d="M228.69,518.55l-53.36.29a9.126,9.126,0,0,0-3.66,1.91,9.3,9.3,0,0,0-2.49,3.66c-1.27,3.2-6.37,21.41-12.9,46.46a7.4,7.4,0,0,0,2.78,8.94,8.256,8.256,0,0,0,2.49,1.18c9.16,2.59,35.47,3.51,35.47,3.51,4.73.17,3.94.24,9.68.44,8.93.32,16.4.34,21.83.29s12.89,0,21.82-.29c5.73-.2,4.94-.27,9.67-.44,0,0,26.31-.92,35.47-3.51a8.257,8.257,0,0,0,2.49-1.18,7.4,7.4,0,0,0,2.78-8.94c-6.52-25-11.63-43.26-12.9-46.46a8.782,8.782,0,0,0-6.15-5.57l-53.35-.29" fill="#fff"/>
      <path id="パス_2344" data-name="パス 2344" d="M231.7,680.16l-75.95.23a13.148,13.148,0,0,1-4-1.26,13,13,0,0,1-3.85-3,13.134,13.134,0,0,1-2.67-4.82,15.121,15.121,0,0,1-.68-3q-.08-38.46-.14-76.91a5.369,5.369,0,0,1,1.59-2.7,6.061,6.061,0,0,1,5.26-1.12q17.205,2.46,36.35,4.1c14.7,1.22,28.69,1.86,41.87,2.06,13.17-.2,27.17-.84,41.88-2.06,12.75-1.06,24.88-2.47,36.35-4.1A6.069,6.069,0,0,1,313,588.7a5.518,5.518,0,0,1,1.63,2.69l-.15,76.91a14.465,14.465,0,0,1-.67,3,13.222,13.222,0,0,1-2.67,4.82,13,13,0,0,1-7.86,4.22l-76-.22" fill="#fff"/>
      <path id="パス_2345" data-name="パス 2345" d="M80.35,178.37V113.06a7.828,7.828,0,0,0-1.91-3.7,7.933,7.933,0,0,0-3.7-2.27H57.91A5.86,5.86,0,0,0,54,108.64a5.734,5.734,0,0,0-1.67,3V164a23.907,23.907,0,0,1,6.68.83,33.87,33.87,0,0,1,4.9,1.91,59.359,59.359,0,0,1,7.88,4.06,32.2,32.2,0,0,1,5.49,4.06A27.47,27.47,0,0,1,80.35,178.37Z" fill="#fff"/>
      <path id="パス_2360" data-name="パス 2360" d="M376.93,178.37V113.06a7.911,7.911,0,0,1,5.61-6h16.84a5.841,5.841,0,0,1,3.93,1.55,5.734,5.734,0,0,1,1.67,3V164a23.986,23.986,0,0,0-6.68.83,34.265,34.265,0,0,0-4.9,1.91,59.359,59.359,0,0,0-7.88,4.06,32.613,32.613,0,0,0-5.52,4.1A27.5,27.5,0,0,0,376.93,178.37Z" fill="#fff"/>
      <path id="パス_2346" data-name="パス 2346" d="M88.48,116.88v15.4a2.491,2.491,0,0,0,.24,2,2.339,2.339,0,0,0,1.55.83,90.081,90.081,0,0,1,10.62,3.59,4.193,4.193,0,0,0,1.79-.24,4.29,4.29,0,0,0,2.39-2.27,4.169,4.169,0,0,0,.24-2.39V116.94Z" fill="#fff"/>
      <path id="パス_2361" data-name="パス 2361" d="M368.81,116.88v15.4a2.533,2.533,0,0,1-.24,2,2.372,2.372,0,0,1-1.55.83,91.034,91.034,0,0,0-10.63,3.59,4.193,4.193,0,0,1-1.79-.24,4.29,4.29,0,0,1-2.39-2.27,4.159,4.159,0,0,1-.23-2.39V116.94Z" fill="#fff"/>
      <path id="パス_2347" data-name="パス 2347" d="M50,517.07A18.748,18.748,0,0,0,39.3,521c-7.53,5.7-8.29,14.9-8.49,17.38a23.118,23.118,0,0,0,2.77,14,21.123,21.123,0,0,0,8.1,7.9,19.137,19.137,0,0,0,6.91,2.18,18.91,18.91,0,0,0,8.49-1.19A19.868,19.868,0,0,0,63.8,557a21.773,21.773,0,0,0,5.53-9.68,26.185,26.185,0,0,0,.4-13.83,21.711,21.711,0,0,0-6.92-11.65A19,19,0,0,0,50,517.07Z" fill="#fff"/>
      <path id="パス_2359" data-name="パス 2359" d="M407.32,517.07A18.716,18.716,0,0,1,418,521c7.53,5.7,8.29,14.9,8.49,17.38a23.122,23.122,0,0,1-2.76,14,21.257,21.257,0,0,1-8.1,7.9,19.137,19.137,0,0,1-6.91,2.18,18.91,18.91,0,0,1-8.49-1.19,19.876,19.876,0,0,1-6.72-4.34,21.773,21.773,0,0,1-5.53-9.68,26.287,26.287,0,0,1-.4-13.83,21.711,21.711,0,0,1,6.92-11.65A19.1,19.1,0,0,1,407.32,517.07Z" fill="#fff"/>
      <path id="パス_2348" data-name="パス 2348" d="M54.77,610.43H72.52a4.848,4.848,0,0,1,2.62.71,5.079,5.079,0,0,1,2.22,3.43V654.5A5.23,5.23,0,0,1,73,660.14H55.38a6.839,6.839,0,0,1-4.49-3.77v-41.7a5.821,5.821,0,0,1,3.88-4.24Z" fill="#fff"/>
      <path id="パス_2358" data-name="パス 2358" d="M402.51,610.43H384.77a4.8,4.8,0,0,0-2.62.71,5.079,5.079,0,0,0-2.22,3.43V654.5a5.24,5.24,0,0,0,4.33,5.64h17.65a6.91,6.91,0,0,0,4.49-3.77v-41.7a5.862,5.862,0,0,0-3.89-4.24Z" fill="#fff"/>
      <path id="パス_2349" data-name="パス 2349" d="M148.49,436.61h-30.9v89.93l.52-.34,39.81-26.07V436.61Z" fill="#fff"/>
      <path id="パス_2357" data-name="パス 2357" d="M308.8,436.61h30.9v89.93l-.52-.34-39.81-26.07V436.61Z" fill="#fff"/>
      <path id="パス_2350" data-name="パス 2350" d="M137.74,335l-9-10.91v11.14l-1.6,2H119l-2-1.2v-5.24q-.09,46.8-.17,93.61h40.59V359Z" fill="#fff"/>
      <path id="パス_2356" data-name="パス 2356" d="M319.55,335l9-10.91v11.14l1.6,2h8.16l2-1.2v-5.24q.08,46.8.17,93.61H299.86V359Z" fill="#fff"/>
      <path id="パス_2351" data-name="パス 2351" d="M15.22,504.22l18.32-7.43V261.08l-19-8.45v14.93l4.71,1.34V488.29l-3.9,1.89v14.1" fill="#e3f1f6"/>
      <path id="パス_2355" data-name="パス 2355" d="M442.83,502.22l-18.33-7.43V259.08l19-8.45v14.93l-4.71,1.34V486.29l3.9,1.89v14.1" fill="#e3f1f6"/>
      <path id="パス_2352" data-name="パス 2352" d="M134.41,87.3H176a3.53,3.53,0,0,1,3.39,3.49q-1.271,9.93-2.54,19.85a5.584,5.584,0,0,1-1.23,1.51,5.891,5.891,0,0,1-4,1.31c-6.66-.2-33.07,0-36.51,0h-1.5V87.33Z" fill="#fff"/>
      <path id="パス_2363" data-name="パス 2363" d="M320.64,87.3H279a3.7,3.7,0,0,0-2.25.94,3.631,3.631,0,0,0-1.13,2.55q1.26,9.93,2.54,19.85a5.563,5.563,0,0,0,1.22,1.51,5.886,5.886,0,0,0,3.95,1.31c6.66-.2,33.08,0,36.52,0h1.5V87.33Z" fill="#fff"/>
      <path id="パス_2353" data-name="パス 2353" d="M231.38,112.55h-46.9a2.869,2.869,0,0,1-2.4-.53,2.8,2.8,0,0,1-.94-2.82l2.4-18.2a4.6,4.6,0,0,1,3-3.66h41.35" fill="#fff"/>
      <path id="パス_2362" data-name="パス 2362" d="M223.66,112.55h46.9A2.9,2.9,0,0,0,273,112a2.819,2.819,0,0,0,.94-2.82L271.5,91a4.57,4.57,0,0,0-3-3.66H227.12" fill="#fff"/>
      <path id="パス_2354" data-name="パス 2354" d="M230.7,27.8h-82l-14.8,8.45V13.7L149,5.5H308l15.2,8.2V36.25L308.4,27.8h-82" fill="#e3f1f6"/>
      <path id="パス_2364" data-name="パス 2364" d="M230.7,783h-82l-14.8-8.45v22.54l15.2,8.2H308l15.2-8.2V774.55L308.4,783h-82" fill="#e3f1f6"/>
      <ellipse id="楕円形_330" data-name="楕円形 330" cx="19.58" cy="23.15" rx="19.58" ry="23.15" transform="translate(30.37 190.95)" fill="#fff"/>
      <ellipse id="楕円形_331" data-name="楕円形 331" cx="19.58" cy="23.15" rx="19.58" ry="23.15" transform="translate(387.76 190.95)" fill="#fff"/>
      <g id="グループ_3549" data-name="グループ 3549">
        <path id="パス_2184" data-name="パス 2184" d="M149.21,266.34c-.54.19-2.53.9-3.57,0a4,4,0,0,1-.89-2.47,9.821,9.821,0,0,1-.07-2.54q.821-66.52,1.66-133a4.718,4.718,0,0,1,1.36-3.86,4.258,4.258,0,0,1,1.92-1l156.12-.69a3.861,3.861,0,0,1,2.68.76,4,4,0,0,1,1.44,3.22Q311,195,312.06,263.32a3.441,3.441,0,0,1-1.51,2.68,3.26,3.26,0,0,1-3.5-.07,340.678,340.678,0,0,0-53-8.86,317.118,317.118,0,0,0-51.66-.46c-11.47.92-17.21,1.38-22,2.65C170.09,262,159.28,262.85,149.21,266.34Z" fill="none" stroke="#147eb0" stroke-miterlimit="10" stroke-width="2"/>
        <path id="パス_2185" data-name="パス 2185" d="M228,266.15a271.022,271.022,0,0,0-29.62.47c-3.91.28-7.87.56-13.22,1.28-7.87,1.07-8.63,1.72-16.17,2.58,0,0-2.55.29-7,1.1-4.81.88-6.1,1.37-7.35,2.2a10.576,10.576,0,0,0-4,4.78,10.878,10.878,0,0,0,0,7.9c7.08,21.8,12.33,37.76,13.78,42.25a42.608,42.608,0,0,0,2.38,5.51c1.55,3.07,2.52,4.24,3.68,5.15A10,10,0,0,0,173.6,341a10.444,10.444,0,0,0,4.41.37c3.3-.39,22.67-.36,50-.15,27.34-.21,46.71-.24,50,.15a10.444,10.444,0,0,0,4.41-.37,10.06,10.06,0,0,0,3.12-1.65c1.16-.91,2.13-2.08,3.68-5.15a42.61,42.61,0,0,0,2.38-5.51c1.45-4.49,6.7-20.45,13.78-42.25a10.878,10.878,0,0,0,0-7.9,10.633,10.633,0,0,0-4-4.78c-1.25-.83-2.54-1.32-7.35-2.2-4.43-.81-7-1.1-7-1.1-7.54-.86-8.3-1.51-16.17-2.58-5.35-.72-9.31-1-13.22-1.28A270.882,270.882,0,0,0,228,266.15Z" fill="none" stroke="#147eb0" stroke-miterlimit="10" stroke-width="2"/>
        <path id="パス_2186" data-name="パス 2186" d="M228.68,519.55l-53.35.3a9,9,0,0,0-3.66,1.9,9.183,9.183,0,0,0-2.49,3.66c-1.27,3.2-6.38,21.41-12.9,46.46a7.4,7.4,0,0,0,2.78,8.94,8.256,8.256,0,0,0,2.49,1.18c9.16,2.59,35.47,3.51,35.47,3.51,4.73.17,3.94.24,9.67.44,8.94.32,16.41.34,21.83.29s12.89,0,21.82-.29c5.74-.2,4.94-.27,9.67-.44,0,0,26.31-.92,35.47-3.51a8.322,8.322,0,0,0,2.5-1.18,7.4,7.4,0,0,0,2.78-8.94c-6.52-25-11.63-43.26-12.9-46.46a9.29,9.29,0,0,0-2.49-3.66,9,9,0,0,0-3.67-1.9l-53.35-.3" fill="none" stroke="#147eb0" stroke-miterlimit="10" stroke-width="2"/>
        <path id="パス_2187" data-name="パス 2187" d="M231.7,681.16l-75.95.23a13.119,13.119,0,0,1-4-1.26,12.853,12.853,0,0,1-3.85-3,13.134,13.134,0,0,1-2.67-4.82,15.187,15.187,0,0,1-.67-3q-.079-38.46-.14-76.9a5.324,5.324,0,0,1,1.63-2.69,6,6,0,0,1,5.25-1.13q17.205,2.46,36.35,4.1c14.71,1.23,28.7,1.86,41.88,2.07,13.17-.2,27.16-.84,41.88-2.07,12.74-1.06,24.88-2.46,36.35-4.1a6,6,0,0,1,5.25,1.13,5.324,5.324,0,0,1,1.63,2.69q-.06,38.45-.14,76.9a15.186,15.186,0,0,1-.67,3,13.134,13.134,0,0,1-2.67,4.82,12.853,12.853,0,0,1-3.85,3,13.148,13.148,0,0,1-4,1.26l-76-.23" fill="none" stroke="#147eb0" stroke-miterlimit="10" stroke-width="2"/>
        <path id="パス_2188" data-name="パス 2188" d="M230.2,738.14H137.55a7.79,7.79,0,0,0-6.22,6V762a6.869,6.869,0,0,0,1.63,4.77,6.739,6.739,0,0,0,3.95,2.21H231" fill="none" stroke="#147eb0" stroke-miterlimit="10" stroke-width="2"/>
        <path id="パス_2189" data-name="パス 2189" d="M230.57,782.78H151l-15.59-7.56.12,21.76,15.59,7.91h79.11" fill="none" stroke="#147eb0" stroke-miterlimit="10" stroke-width="2"/>
        <path id="パス_2190" data-name="パス 2190" d="M231.52,686.6H134.61" fill="none" stroke="#147eb0" stroke-miterlimit="10" stroke-width="2"/>
        <path id="パス_2191" data-name="パス 2191" d="M135,702.91h37.4" fill="none" stroke="#147eb0" stroke-miterlimit="10" stroke-width="2"/>
        <path id="パス_2192" data-name="パス 2192" d="M151.61,725.73l-.12-22.82" fill="none" stroke="#147eb0" stroke-miterlimit="10" stroke-width="2"/>
        <path id="パス_2193" data-name="パス 2193" d="M135.58,725.85h43.1" fill="none" stroke="#147eb0" stroke-miterlimit="10" stroke-width="2"/>
        <path id="パス_2194" data-name="パス 2194" d="M134.76,739.7V602.5a32.367,32.367,0,0,1,0-5.21,28.175,28.175,0,0,1,.38-2.85,126.254,126.254,0,0,1,3.07-13.6c5.95-19.57,10.53-31.12,10.53-31.12,4.87-12.31,8.93-24.93,14-37.17a20.382,20.382,0,0,0,1.59-7.08V356.87a276.991,276.991,0,0,0-19.22-36.73c-7.12-11.27-9.78-15.8-15.11-24.88-5.51-9.39-3.82-7.33-5.18-9.24s-3.13-4-3.79-7.36a13.771,13.771,0,0,1-.23-3.79c.45-6.32-2.72-39.63-7-120.48-.35-6.65-.94-17.74-1.62-31.69a6.791,6.791,0,0,0-1.47-2.6,6.926,6.926,0,0,0-3.9-2.11l-24.37-.81-2.09-.79" fill="none" stroke="#147eb0" stroke-miterlimit="10" stroke-width="2"/>
        <path id="パス_2195" data-name="パス 2195" d="M80.36,179.37V114.05a8.064,8.064,0,0,0-1.91-3.7,7.912,7.912,0,0,0-3.7-2.26H57.91a5.7,5.7,0,0,0-5.61,4.53V165a24.019,24.019,0,0,1,6.69.83,31.98,31.98,0,0,1,4.9,1.91,58.766,58.766,0,0,1,7.88,4.06,31.59,31.59,0,0,1,5.49,4.06A28.47,28.47,0,0,1,80.36,179.37Z" fill="none" stroke="#147eb0" stroke-miterlimit="10" stroke-width="2"/>
        <path id="パス_2196" data-name="パス 2196" d="M88.48,117.88v15.4a2.533,2.533,0,0,0,.24,2,2.358,2.358,0,0,0,1.55.84,90.211,90.211,0,0,1,10.62,3.58,4.193,4.193,0,0,0,1.79-.24,4.259,4.259,0,0,0,2.39-2.27,4.422,4.422,0,0,0,.24-2.39c-.32-2.1-.31-7.78,0-16.89" fill="none" stroke="#147eb0" stroke-miterlimit="10" stroke-width="2"/>
        <path id="パス_2197" data-name="パス 2197" d="M52,116.12a6.446,6.446,0,0,0-3.63.36,6.661,6.661,0,0,0-3.18,2.91,7.5,7.5,0,0,0-.94,2.91l.18,54" fill="none" stroke="#147eb0" stroke-miterlimit="10" stroke-width="2"/>
        <path id="パス_2198" data-name="パス 2198" d="M53.92,176.19a30.252,30.252,0,0,0-16,2.57C23.53,185,18.5,200.38,17.58,203.45a43.521,43.521,0,0,0-.2,23.5c1.08,4,3.35,11.92,10.66,18.56a33.53,33.53,0,0,0,15,7.9,32,32,0,0,0,17.58-1.18,34.1,34.1,0,0,0,15.6-11.85,42.106,42.106,0,0,0,8.3-21.13C84.89,215.78,86,201,76,189a38.37,38.37,0,0,0-13.83-10.47A29.6,29.6,0,0,0,53.92,176.19Z" fill="none" stroke="#147eb0" stroke-miterlimit="10" stroke-width="2"/>
        <path id="パス_2199" data-name="パス 2199" d="M44.74,253.73q.1,64.339.29,128.66c.11,39.76.25,79.72.4,119.49a33.933,33.933,0,0,0-12,4.74c-11.58,7.43-14.72,19.86-15.8,24.09s-3.73,15.43,1.78,27.65a38.276,38.276,0,0,0,15.21,17.19,32.979,32.979,0,0,0,9.48,3.75,32,32,0,0,0,19.75-2.37c9.43-4.41,13.7-12.18,15.8-16a43.7,43.7,0,0,0,5.14-22.32,39.371,39.371,0,0,0-5.53-19.55,37.007,37.007,0,0,0-13.43-13,36.539,36.539,0,0,0-11.06-3.75,37.064,37.064,0,0,0-9.29-.4" fill="none" stroke="#147eb0" stroke-miterlimit="10" stroke-width="2"/>
        <path id="パス_2200" data-name="パス 2200" d="M50,518.07A18.748,18.748,0,0,0,39.3,522c-7.52,5.7-8.28,14.9-8.49,17.38a23.17,23.17,0,0,0,2.77,14,21.343,21.343,0,0,0,8.1,7.9,19.3,19.3,0,0,0,6.91,2.17,18.909,18.909,0,0,0,8.49-1.19A19.722,19.722,0,0,0,63.8,558a21.773,21.773,0,0,0,5.53-9.68,26.147,26.147,0,0,0,.4-13.82,21.7,21.7,0,0,0-6.92-11.66A19.1,19.1,0,0,0,50,518.07Z" fill="none" stroke="#147eb0" stroke-miterlimit="10" stroke-width="2"/>
        <path id="パス_2201" data-name="パス 2201" d="M45.43,580.88v67.55a7.8,7.8,0,0,0,5.13,8.09" fill="none" stroke="#147eb0" stroke-miterlimit="10" stroke-width="2"/>
        <path id="パス_2202" data-name="パス 2202" d="M54.77,611.44H72.52a4.76,4.76,0,0,1,2.62.7,5.079,5.079,0,0,1,2.22,3.43V655.5A5.23,5.23,0,0,1,73,661.14H55.38a6.91,6.91,0,0,1-4.49-3.77v-41.7a5.864,5.864,0,0,1,1.57-2.82A5.759,5.759,0,0,1,54.77,611.44Z" fill="none" stroke="#147eb0" stroke-miterlimit="10" stroke-width="2"/>
        <path id="パス_2203" data-name="パス 2203" d="M77.36,655.5l33.37-1.62a4.9,4.9,0,0,0,2.82-.9c1.26-1,1.63-2.36,2-3.94a61.667,61.667,0,0,0,1.51-6.85c.31-4.42,3.14-34.33,7-75.52a10.514,10.514,0,0,1,.4-2.62,10.714,10.714,0,0,1,1.21-2.72c6-9.72,17.64-24.2,17.65-24.2,7.4-9.18,5.46-7.66,10.28-13.31,2.67-3.14,5.26-5.94,7.66-10.59a41.119,41.119,0,0,0,3-7.77" fill="none" stroke="#147eb0" stroke-miterlimit="10" stroke-width="2"/>
        <path id="パス_2204" data-name="パス 2204" d="M93.89,529.26l21.38-.2,42.65-27.92V437.61H57.9v56.67a20.053,20.053,0,0,1,7.56.4,23.188,23.188,0,0,1,3.23,1.11,37.569,37.569,0,0,1,9.17,5.44,40.2,40.2,0,0,1,6.86,7.36,47,47,0,0,1,5.44,8.77A45.222,45.222,0,0,1,93.89,529.26Z" fill="none" stroke="#147eb0" stroke-miterlimit="10" stroke-width="2"/>
        <path id="パス_2206" data-name="パス 2206" d="M117.59,437.61v89.64" fill="none" stroke="#147eb0" stroke-miterlimit="10" stroke-width="2"/>
        <path id="パス_2207" data-name="パス 2207" d="M102.77,520.9V503.25l1.11-1.71h3.22l1.62,1.21V521.1l-1.32,1.51-3-.28Z" fill="none" stroke="#147eb0" stroke-miterlimit="10" stroke-width="2"/>
        <path id="パス_2208" data-name="パス 2208" d="M58.42,425.4h99V360l-28.66-34.9V313.52l-1.15-1.59H57.78Z" fill="none" stroke="#147eb0" stroke-miterlimit="10" stroke-width="2"/>
        <path id="パス_2209" data-name="パス 2209" d="M128.77,325.09v11.14l-1.6,2H119l-2-1.2v-5.28" fill="none" stroke="#147eb0" stroke-miterlimit="10" stroke-width="2"/>
        <path id="パス_2210" data-name="パス 2210" d="M117,331.75q-.09,46.811-.17,93.65" fill="none" stroke="#147eb0" stroke-miterlimit="10" stroke-width="2"/>
        <path id="パス_2211" data-name="パス 2211" d="M108.63,413.42v-15a3.05,3.05,0,0,0-5.87,0v16.81a2.5,2.5,0,0,0,.61,1.53,2.6,2.6,0,0,0,1,.68" fill="none" stroke="#147eb0" stroke-miterlimit="10" stroke-width="2"/>
        <path id="パス_2212" data-name="パス 2212" d="M15.22,505.23l18.32-7.44V262.08l-19-8.45v14.93l4.71,1.34V489.29l-3.9,1.89v14.1" fill="none" stroke="#147eb0" stroke-miterlimit="10" stroke-width="2"/>
        <path id="パス_2213" data-name="パス 2213" d="M128.77,320.07l11.4-6.52" fill="none" stroke="#147eb0" stroke-miterlimit="10" stroke-width="2"/>
        <path id="パス_2214" data-name="パス 2214" d="M129.33,294.16l-7.89,17.77" fill="none" stroke="#147eb0" stroke-miterlimit="10" stroke-width="2"/>
        <path id="パス_2215" data-name="パス 2215" d="M164.44,356.29c-12.67-29.92-21.58-52.29-24.27-59.82-2.18-6.15-3.73-12.26-4-13.22a74.326,74.326,0,0,1-1.7-8.24,62.209,62.209,0,0,1-.57-11.08V83.18c0-.55-1-.94-1.35-1.08-1-.44-1.46-1.39-2.12-2.65a8.223,8.223,0,0,1-.84-4.55V54.18a7.986,7.986,0,0,1,6.21-5.99H321.2a8,8,0,0,1,6.21,6V74.9a8.222,8.222,0,0,1-.84,4.55c-.66,1.26-1.15,2.21-2.12,2.65-.31.14-1.34.53-1.35,1.08V263.93a63.16,63.16,0,0,1-.56,11.08,79.212,79.212,0,0,1-1.7,8.24c-.24,1-1.8,7.07-4,13.22-2.69,7.53-11.59,29.9-24.27,59.82" fill="none" stroke="#147eb0" stroke-miterlimit="10" stroke-width="2"/>
        <path id="パス_2216" data-name="パス 2216" d="M133.92,84h189.2" fill="none" stroke="#147eb0" stroke-miterlimit="10" stroke-width="2"/>
        <path id="パス_2217" data-name="パス 2217" d="M134.4,87.31H176a3.53,3.53,0,0,1,3.38,3.48l-2.54,19.85a5.413,5.413,0,0,1-1.22,1.51,6,6,0,0,1-4,1.32h-38" fill="none" stroke="#147eb0" stroke-miterlimit="10" stroke-width="2"/>
        <path id="パス_2218" data-name="パス 2218" d="M133.92,119.21l100.18-.8" fill="none" stroke="#147eb0" stroke-miterlimit="10" stroke-width="2"/>
        <path id="パス_2219" data-name="パス 2219" d="M231.38,112.55h-46.9a2.929,2.929,0,0,1-2.41-.52,2.83,2.83,0,0,1-.94-2.82L183.54,91a4.645,4.645,0,0,1,1-2.3,4.7,4.7,0,0,1,2-1.36h41.35" fill="none" stroke="#147eb0" stroke-miterlimit="10" stroke-width="2"/>
        <path id="パス_2220" data-name="パス 2220" d="M230.69,28.79h-82l-14.81,8.46V14.7L149,6.5H308l15.2,8.2V37.25l-14.81-8.46h-82" fill="none" stroke="#147eb0" stroke-miterlimit="10" stroke-width="2"/>
        <circle id="楕円形_276" data-name="楕円形 276" cx="10.71" cy="10.71" r="10.71" transform="translate(137.95 55.95)" fill="#fff" stroke="#147eb0" stroke-miterlimit="10" stroke-width="2"/>
        <path id="パス_2221" data-name="パス 2221" d="M230.2,738.14h91.29a7.79,7.79,0,0,1,6.22,6V762a6.913,6.913,0,0,1-1.62,4.77,6.8,6.8,0,0,1-4,2.21H228" fill="none" stroke="#147eb0" stroke-miterlimit="10" stroke-width="2"/>
        <path id="パス_2222" data-name="パス 2222" d="M229.47,782.78h79.58l15.59-7.56q-.06,10.88-.11,21.76l-15.59,7.91H229.83" fill="none" stroke="#147eb0" stroke-miterlimit="10" stroke-width="2"/>
        <path id="パス_2223" data-name="パス 2223" d="M225.52,686.6h96.91" fill="none" stroke="#147eb0" stroke-miterlimit="10" stroke-width="2"/>
        <path id="パス_2224" data-name="パス 2224" d="M322.06,702.91h-37.4" fill="none" stroke="#147eb0" stroke-miterlimit="10" stroke-width="2"/>
        <path id="パス_2225" data-name="パス 2225" d="M306.43,725.73l.12-22.82" fill="none" stroke="#147eb0" stroke-miterlimit="10" stroke-width="2"/>
        <path id="パス_2226" data-name="パス 2226" d="M321.45,725.85h-43.1" fill="none" stroke="#147eb0" stroke-miterlimit="10" stroke-width="2"/>
        <path id="パス_2227" data-name="パス 2227" d="M322.28,739.7V602.5a32.364,32.364,0,0,0,0-5.21,28.17,28.17,0,0,0-.38-2.85,126.254,126.254,0,0,0-3.07-13.6c-5.95-19.57-10.53-31.12-10.53-31.12-4.87-12.31-8.93-24.93-14-37.17a20.383,20.383,0,0,1-1.59-7.08V356.87A275.878,275.878,0,0,1,312,320.14c7.12-11.27,9.78-15.8,15.11-24.88,5.51-9.39,3.82-7.33,5.18-9.24s3.13-4,3.79-7.36a13.771,13.771,0,0,0,.23-3.79c-.45-6.32,2.72-39.63,7.05-120.48.35-6.65.94-17.74,1.62-31.69a6.912,6.912,0,0,1,1.46-2.6,7,7,0,0,1,3.9-2.11l24.38-.81,2.09-.79" fill="none" stroke="#147eb0" stroke-miterlimit="10" stroke-width="2"/>
        <path id="パス_2228" data-name="パス 2228" d="M376.68,179.37V114.05a8.065,8.065,0,0,1,1.91-3.7,7.912,7.912,0,0,1,3.7-2.26h16.84a5.7,5.7,0,0,1,5.61,4.53V165a24.019,24.019,0,0,0-6.69.83,31.98,31.98,0,0,0-4.9,1.91,58.707,58.707,0,0,0-7.88,4.06,31.553,31.553,0,0,0-5.49,4.06A28.471,28.471,0,0,0,376.68,179.37Z" fill="none" stroke="#147eb0" stroke-miterlimit="10" stroke-width="2"/>
        <path id="パス_2229" data-name="パス 2229" d="M368.56,117.88v15.4a2.533,2.533,0,0,1-.24,2,2.358,2.358,0,0,1-1.55.84,90.212,90.212,0,0,0-10.62,3.58,4.193,4.193,0,0,1-1.79-.24,4.259,4.259,0,0,1-2.39-2.27,4.328,4.328,0,0,1-.24-2.39c.32-2.1.31-7.78,0-16.89" fill="none" stroke="#147eb0" stroke-miterlimit="10" stroke-width="2"/>
        <path id="パス_2230" data-name="パス 2230" d="M405,116.12a6.446,6.446,0,0,1,3.63.36,6.661,6.661,0,0,1,3.18,2.91,7.5,7.5,0,0,1,.94,2.91q-.09,26-.17,51.9" fill="none" stroke="#147eb0" stroke-miterlimit="10" stroke-width="2"/>
        <path id="パス_2231" data-name="パス 2231" d="M403.12,174.19a30.252,30.252,0,0,1,16,2.57c14.39,6.27,19.42,21.62,20.34,24.69a43.521,43.521,0,0,1,.2,23.5c-1.08,4-3.35,11.92-10.66,18.56a33.53,33.53,0,0,1-15,7.9,32,32,0,0,1-17.58-1.18,34.1,34.1,0,0,1-15.6-11.85,42,42,0,0,1-8.3-21.13c-.36-3.47-1.43-18.21,8.49-30.22a38.37,38.37,0,0,1,13.83-10.47A29.579,29.579,0,0,1,403.12,174.19Z" fill="none" stroke="#147eb0" stroke-miterlimit="10" stroke-width="2"/>
        <path id="パス_2232" data-name="パス 2232" d="M412.31,252.11q-.12,65.14-.3,130.28c-.11,38.6-.25,80.89-.4,119.49a33.929,33.929,0,0,1,12.05,4.74c11.58,7.43,14.73,19.86,15.8,24.09s3.73,15.43-1.78,27.65a38.276,38.276,0,0,1-15.21,17.19A32.908,32.908,0,0,1,413,579.3a32,32,0,0,1-19.75-2.37c-9.43-4.41-13.7-12.18-15.8-16a43.589,43.589,0,0,1-5.13-22.32,39.169,39.169,0,0,1,5.53-19.55,36.826,36.826,0,0,1,13.43-13,36.357,36.357,0,0,1,11.06-3.75,36.983,36.983,0,0,1,9.28-.4" fill="none" stroke="#147eb0" stroke-miterlimit="10" stroke-width="2"/>
        <path id="パス_2233" data-name="パス 2233" d="M407.07,518.07A18.748,18.748,0,0,1,417.74,522c7.52,5.7,8.28,14.9,8.49,17.38a23.17,23.17,0,0,1-2.77,14,21.406,21.406,0,0,1-8.1,7.9,19.3,19.3,0,0,1-6.91,2.17,18.894,18.894,0,0,1-8.49-1.19,19.709,19.709,0,0,1-6.72-4.34,21.773,21.773,0,0,1-5.53-9.68,26.147,26.147,0,0,1-.4-13.82,21.682,21.682,0,0,1,6.91-11.66A19.138,19.138,0,0,1,407.07,518.07Z" fill="none" stroke="#147eb0" stroke-miterlimit="10" stroke-width="2"/>
        <path id="パス_2234" data-name="パス 2234" d="M411.61,580.88v67.55a7.8,7.8,0,0,1-5.13,8.09" fill="none" stroke="#147eb0" stroke-miterlimit="10" stroke-width="2"/>
        <path id="パス_2235" data-name="パス 2235" d="M402.27,611.44H384.52a4.824,4.824,0,0,0-2.62.7,5.111,5.111,0,0,0-2.22,3.43V655.5a5.23,5.23,0,0,0,4.34,5.64h17.64a6.91,6.91,0,0,0,4.49-3.77v-41.7a5.864,5.864,0,0,0-1.57-2.82A5.759,5.759,0,0,0,402.27,611.44Z" fill="none" stroke="#147eb0" stroke-miterlimit="10" stroke-width="2"/>
        <path id="パス_2236" data-name="パス 2236" d="M379.68,655.5l-33.37-1.62a4.992,4.992,0,0,1-2.83-.9c-1.25-1-1.63-2.36-2-3.94a61.657,61.657,0,0,1-1.51-6.85c-.31-4.42-3.14-34.33-7-75.52a10.573,10.573,0,0,0-1.61-5.34c-6-9.72-17.65-24.2-17.65-24.2-7.4-9.18-5.46-7.66-10.28-13.31-2.67-3.14-5.26-5.94-7.66-10.59a41.059,41.059,0,0,1-3.05-7.77" fill="none" stroke="#147eb0" stroke-miterlimit="10" stroke-width="2"/>
        <path id="パス_2237" data-name="パス 2237" d="M363.15,529.26l-21.38-.2-42.65-27.92V437.61h100v56.67a20.053,20.053,0,0,0-7.56.4,23.189,23.189,0,0,0-3.23,1.11,37.569,37.569,0,0,0-9.17,5.44,39.542,39.542,0,0,0-6.86,7.36,47.006,47.006,0,0,0-5.44,8.77A45.239,45.239,0,0,0,363.15,529.26Z" fill="none" stroke="#147eb0" stroke-miterlimit="10" stroke-width="2"/>
        <path id="パス_2239" data-name="パス 2239" d="M339.45,437.61v89.64" fill="none" stroke="#147eb0" stroke-miterlimit="10" stroke-width="2"/>
        <path id="パス_2240" data-name="パス 2240" d="M354.27,520.9V503.25l-1.11-1.71h-3.22l-1.62,1.21V521.1l1.31,1.51,3-.28Z" fill="none" stroke="#147eb0" stroke-miterlimit="10" stroke-width="2"/>
        <path id="パス_2241" data-name="パス 2241" d="M398.62,424.4h-99V359l28.65-34.9V312.52l1.16-1.59h69.84Z" fill="none" stroke="#147eb0" stroke-miterlimit="10" stroke-width="2"/>
        <path id="パス_2242" data-name="パス 2242" d="M328.26,325.09v11.14l1.6,2H338l2-1.2v-5.28" fill="none" stroke="#147eb0" stroke-miterlimit="10" stroke-width="2"/>
        <path id="パス_2243" data-name="パス 2243" d="M340,331.75q.09,46.811.17,93.65" fill="none" stroke="#147eb0" stroke-miterlimit="10" stroke-width="2"/>
        <path id="パス_2244" data-name="パス 2244" d="M348.41,413.42v-15a3.05,3.05,0,0,1,5.87,0v16.81a2.5,2.5,0,0,1-.61,1.53,2.6,2.6,0,0,1-1,.68" fill="none" stroke="#147eb0" stroke-miterlimit="10" stroke-width="2"/>
        <path id="パス_2245" data-name="パス 2245" d="M441.82,503.23l-18.32-7.44V260.08l19-8.45v14.93l-4.71,1.34V487.29l3.9,1.89v14.1" fill="none" stroke="#147eb0" stroke-miterlimit="10" stroke-width="2"/>
        <path id="パス_2246" data-name="パス 2246" d="M328.26,320.07l-11.39-6.52" fill="none" stroke="#147eb0" stroke-miterlimit="10" stroke-width="2"/>
        <path id="パス_2247" data-name="パス 2247" d="M327.71,294.16q3.941,8.891,7.88,17.77" fill="none" stroke="#147eb0" stroke-miterlimit="10" stroke-width="2"/>
        <path id="パス_2248" data-name="パス 2248" d="M322.45,87.31H279.18a3.828,3.828,0,0,0-2.35.94,3.579,3.579,0,0,0-1.18,2.54l2.65,19.85a5.439,5.439,0,0,0,1.27,1.51,6.356,6.356,0,0,0,4.11,1.32h39.55" fill="none" stroke="#147eb0" stroke-miterlimit="10" stroke-width="2"/>
        <path id="パス_2249" data-name="パス 2249" d="M323.12,119.21l-100.18-.8" fill="none" stroke="#147eb0" stroke-miterlimit="10" stroke-width="2"/>
        <path id="パス_2250" data-name="パス 2250" d="M222.66,112.55h46.9A2.93,2.93,0,0,0,272,112a2.83,2.83,0,0,0,.94-2.82L270.5,91a4.621,4.621,0,0,0-3-3.66H226.12" fill="none" stroke="#147eb0" stroke-miterlimit="10" stroke-width="2"/>
        <circle id="楕円形_277" data-name="楕円形 277" cx="10.71" cy="10.71" r="10.71" transform="translate(294.67 54.95)" fill="#fff" stroke="#147eb0" stroke-miterlimit="10" stroke-width="2"/>
        <ellipse id="楕円形_278" data-name="楕円形 278" cx="19.58" cy="23.15" rx="19.58" ry="23.15" transform="translate(30.37 191.96)" fill="none" stroke="#147eb0" stroke-miterlimit="10" stroke-width="2"/>
        <ellipse id="楕円形_279" data-name="楕円形 279" cx="19.58" cy="23.15" rx="19.58" ry="23.15" transform="translate(387.08 189.91)" fill="none" stroke="#147eb0" stroke-miterlimit="10" stroke-width="2"/>
      </g>
    </g>
    <g id="グループ_3651" data-name="グループ 3651" transform="translate(8196.5 -17404.5)">
      <circle id="楕円形_280" data-name="楕円形 280" cx="12.35" cy="12.35" r="12.35" transform="translate(101.42 412.88)" fill="#fff" stroke="#d1dde9" stroke-miterlimit="10" stroke-width="1"/>
      <g id="グループ_3550" data-name="グループ 3550">
        <circle id="楕円形_281" data-name="楕円形 281" cx="12.35" cy="12.35" r="12.35" transform="translate(1.5 402.75)" fill="#fff"/>
        <circle id="楕円形_282" data-name="楕円形 282" cx="12.35" cy="12.35" r="12.35" transform="translate(1.5 402.75)" fill="none" stroke="#d1dde9" stroke-miterlimit="10" stroke-width="1"/>
      </g>
      <circle id="楕円形_283" data-name="楕円形 283" cx="12.35" cy="12.35" r="12.35" transform="translate(33.14 382.8)" fill="#fff" stroke="#d1dde9" stroke-miterlimit="10" stroke-width="1"/>
      <circle id="楕円形_284" data-name="楕円形 284" cx="12.35" cy="12.35" r="12.35" transform="translate(76.72 357.82)" fill="#fff" stroke="#d1dde9" stroke-miterlimit="10" stroke-width="1"/>
      <circle id="楕円形_285" data-name="楕円形 285" cx="12.35" cy="12.35" r="12.35" transform="translate(121.42 356.82)" fill="#fff" stroke="#d1dde9" stroke-miterlimit="10" stroke-width="1"/>
      <circle id="楕円形_286" data-name="楕円形 286" cx="12.35" cy="12.35" r="12.35" transform="translate(138.86 319.66)" fill="#fff" stroke="#d1dde9" stroke-miterlimit="10" stroke-width="1"/>
      <circle id="楕円形_287" data-name="楕円形 287" cx="12.35" cy="12.35" r="12.35" transform="translate(99.79 308.32)" fill="#fff" stroke="#d1dde9" stroke-miterlimit="10" stroke-width="1"/>
      <circle id="楕円形_288" data-name="楕円形 288" cx="12.35" cy="12.35" r="12.35" transform="translate(87.44 221.61)" fill="#fff" stroke="#d1dde9" stroke-miterlimit="10" stroke-width="1"/>
      <circle id="楕円形_289" data-name="楕円形 289" cx="12.35" cy="12.35" r="12.35" transform="translate(38.31 202.01)" fill="#fff" stroke="#d1dde9" stroke-miterlimit="10" stroke-width="1"/>
      <circle id="楕円形_290" data-name="楕円形 290" cx="12.35" cy="12.35" r="12.35" transform="translate(0.53 202.01)" fill="#fff" stroke="#d1dde9" stroke-miterlimit="10" stroke-width="1"/>
      <circle id="楕円形_291" data-name="楕円形 291" cx="12.35" cy="12.35" r="12.35" transform="translate(79.72 455.05)" fill="#fff" stroke="#d1dde9" stroke-miterlimit="10" stroke-width="1"/>
      <circle id="楕円形_292" data-name="楕円形 292" cx="12.35" cy="12.35" r="12.35" transform="translate(124.76 455.05)" fill="#fff" stroke="#d1dde9" stroke-miterlimit="10" stroke-width="1"/>
      <circle id="楕円形_293" data-name="楕円形 293" cx="12.35" cy="12.35" r="12.35" transform="translate(0.5 530.04)" fill="#fff" stroke="#d1dde9" stroke-miterlimit="10" stroke-width="1"/>
      <circle id="楕円形_294" data-name="楕円形 294" cx="12.35" cy="12.35" r="12.35" transform="translate(38.92 529.7)" fill="#fff" stroke="#d1dde9" stroke-miterlimit="10" stroke-width="1"/>
      <circle id="楕円形_295" data-name="楕円形 295" cx="12.35" cy="12.35" r="12.35" transform="translate(84.94 570.07)" fill="#fff" stroke="#d1dde9" stroke-miterlimit="10" stroke-width="1"/>
      <circle id="楕円形_296" data-name="楕円形 296" cx="12.35" cy="12.35" r="12.35" transform="translate(216.83 625.46)" fill="#fff" stroke="#d1dde9" stroke-miterlimit="10" stroke-width="1"/>
      <circle id="楕円形_297" data-name="楕円形 297" cx="12.35" cy="12.35" r="12.35" transform="matrix(0.033, -0.999, 0.999, 0.033, 116.986, 725.352)" fill="#fff" stroke="#d1dde9" stroke-miterlimit="10" stroke-width="1"/>
      <circle id="楕円形_298" data-name="楕円形 298" cx="12.35" cy="12.35" r="12.35" transform="translate(167.01 701.07)" fill="#fff" stroke="#d1dde9" stroke-miterlimit="10" stroke-width="1"/>
      <circle id="楕円形_299" data-name="楕円形 299" cx="12.35" cy="12.35" r="12.35" transform="translate(216.83 741.85)" fill="#fff" stroke="#d1dde9" stroke-miterlimit="10" stroke-width="1"/>
      <circle id="楕円形_300" data-name="楕円形 300" cx="12.35" cy="12.35" r="12.35" transform="translate(216.83 785.15)" fill="#fff" stroke="#d1dde9" stroke-miterlimit="10" stroke-width="1"/>
      <circle id="楕円形_301" data-name="楕円形 301" cx="12.35" cy="12.35" r="12.35" transform="translate(216.83 535.47)" fill="#fff" stroke="#d1dde9" stroke-miterlimit="10" stroke-width="1"/>
      <circle id="楕円形_302" data-name="楕円形 302" cx="12.35" cy="12.35" r="12.35" transform="translate(216.83 401.75)" fill="#fff" stroke="#d1dde9" stroke-miterlimit="10" stroke-width="1"/>
      <circle id="楕円形_303" data-name="楕円形 303" cx="12.35" cy="12.35" r="12.35" transform="translate(216.83 289.17)" fill="#fff" stroke="#d1dde9" stroke-miterlimit="10" stroke-width="1"/>
      <circle id="楕円形_304" data-name="楕円形 304" cx="12.35" cy="12.35" r="12.35" transform="translate(216.83 170.21)" fill="#fff" stroke="#d1dde9" stroke-miterlimit="10" stroke-width="1"/>
      <circle id="楕円形_305" data-name="楕円形 305" cx="12.35" cy="12.35" r="12.35" transform="translate(145.12 87.35)" fill="#fff" stroke="#d1dde9" stroke-miterlimit="10" stroke-width="1"/>
      <circle id="楕円形_306" data-name="楕円形 306" cx="12.35" cy="12.35" r="12.35" transform="translate(216.83 87.35)" fill="#fff" stroke="#d1dde9" stroke-miterlimit="10" stroke-width="1"/>
      <circle id="楕円形_307" data-name="楕円形 307" cx="12.35" cy="12.35" r="12.35" transform="translate(216.83 51.3)" fill="#fff" stroke="#d1dde9" stroke-miterlimit="10" stroke-width="1"/>
      <circle id="楕円形_309" data-name="楕円形 309" cx="12.35" cy="12.35" r="12.35" transform="translate(432.86 201.26)" fill="#fff" stroke="#d1dde9" stroke-miterlimit="10" stroke-width="1"/>
      <circle id="楕円形_310" data-name="楕円形 310" cx="12.35" cy="12.35" r="12.35" transform="translate(395.68 202.01)" fill="#fff" stroke="#d1dde9" stroke-miterlimit="10" stroke-width="1"/>
      <circle id="楕円形_311" data-name="楕円形 311" cx="12.35" cy="12.35" r="12.35" transform="translate(346.23 220.61)" fill="#fff" stroke="#d1dde9" stroke-miterlimit="10" stroke-width="1"/>
      <circle id="楕円形_312" data-name="楕円形 312" cx="12.35" cy="12.35" r="12.35" transform="translate(333.88 307.32)" fill="#fff" stroke="#d1dde9" stroke-miterlimit="10" stroke-width="1"/>
      <circle id="楕円形_313" data-name="楕円形 313" cx="12.35" cy="12.35" r="12.35" transform="translate(356.95 357.82)" fill="#fff" stroke="#d1dde9" stroke-miterlimit="10" stroke-width="1"/>
      <circle id="楕円形_314" data-name="楕円形 314" cx="12.35" cy="12.35" r="12.35" transform="translate(400.63 382.33)" fill="#fff" stroke="#d1dde9" stroke-miterlimit="10" stroke-width="1"/>
      <circle id="楕円形_315" data-name="楕円形 315" cx="12.35" cy="12.35" r="12.35" transform="translate(311.68 356.82)" fill="#fff" stroke="#d1dde9" stroke-miterlimit="10" stroke-width="1"/>
      <circle id="楕円形_316" data-name="楕円形 316" cx="12.35" cy="12.35" r="12.35" transform="translate(293.97 319.66)" fill="#fff" stroke="#d1dde9" stroke-miterlimit="10" stroke-width="1"/>
      <circle id="楕円形_317" data-name="楕円形 317" cx="12.35" cy="12.35" r="12.35" transform="translate(332.25 412.88)" fill="#fff" stroke="#d1dde9" stroke-miterlimit="10" stroke-width="1"/>
      <circle id="楕円形_318" data-name="楕円形 318" cx="12.35" cy="12.35" r="12.35" transform="translate(432.17 402.75)" fill="#fff" stroke="#d1dde9" stroke-miterlimit="10" stroke-width="1"/>
      <circle id="楕円形_319" data-name="楕円形 319" cx="12.35" cy="12.35" r="12.35" transform="translate(353.95 455.05)" fill="#fff" stroke="#d1dde9" stroke-miterlimit="10" stroke-width="1"/>
      <circle id="楕円形_320" data-name="楕円形 320" cx="12.35" cy="12.35" r="12.35" transform="translate(306.91 455.05)" fill="#fff" stroke="#d1dde9" stroke-miterlimit="10" stroke-width="1"/>
      <circle id="楕円形_321" data-name="楕円形 321" cx="12.35" cy="12.35" r="12.35" transform="translate(433.17 530.04)" fill="#fff" stroke="#d1dde9" stroke-miterlimit="10" stroke-width="1"/>
      <circle id="楕円形_322" data-name="楕円形 322" cx="12.35" cy="12.35" r="12.35" transform="translate(394.75 529.7)" fill="#fff" stroke="#d1dde9" stroke-miterlimit="10" stroke-width="1"/>
      <circle id="楕円形_323" data-name="楕円形 323" cx="12.35" cy="12.35" r="12.35" transform="translate(348.73 570.07)" fill="#fff" stroke="#d1dde9" stroke-miterlimit="10" stroke-width="1"/>
      <circle id="楕円形_324" data-name="楕円形 324" cx="12.35" cy="12.35" r="12.35" transform="translate(316.28 701.07)" fill="#fff" stroke="#d1dde9" stroke-miterlimit="10" stroke-width="1"/>
      <circle id="楕円形_325" data-name="楕円形 325" cx="12.35" cy="12.35" r="12.35" transform="translate(266.66 701.07)" fill="#fff" stroke="#d1dde9" stroke-miterlimit="10" stroke-width="1"/>
      <circle id="楕円形_326" data-name="楕円形 326" cx="12.35" cy="12.35" r="12.35" transform="translate(288.55 87.35)" fill="#fff" stroke="#d1dde9" stroke-miterlimit="10" stroke-width="1"/>
      <circle id="楕円形_327" data-name="楕円形 327" cx="12.35" cy="12.35" r="12.35" transform="translate(323.9 51.3)" fill="#fff" stroke="#d1dde9" stroke-miterlimit="10" stroke-width="1"/>
      <circle id="楕円形_328" data-name="楕円形 328" cx="12.35" cy="12.35" r="12.35" transform="translate(216.83 0.5)" fill="#fff" stroke="#d1dde9" stroke-miterlimit="10" stroke-width="1"/>
      <g id="グループ_3552" data-name="グループ 3552">
        <g id="グループ_3551" data-name="グループ 3551">
          <path id="パス_2251" data-name="パス 2251" d="M229.52,68.25V61.49l-1.71,1.33-1.13-1.55,3-2.22h2v9.2Z" fill="#0c689c"/>
        </g>
      </g>
      <g id="グループ_3554" data-name="グループ 3554">
        <g id="グループ_3553" data-name="グループ 3553">
          <path id="パス_2252" data-name="パス 2252" d="M226,104.43v-1.82l3.59-3.24a3.216,3.216,0,0,0,.55-.67,1.39,1.39,0,0,0,.21-.75,1,1,0,0,0-.32-.8,1.25,1.25,0,0,0-1.72.09,1.752,1.752,0,0,0-.41,1L225.76,98a3.2,3.2,0,0,1,1.16-2.19,3.388,3.388,0,0,1,1.07-.59,4.247,4.247,0,0,1,1.28-.2,4.6,4.6,0,0,1,1.23.17,3.234,3.234,0,0,1,1.07.52,2.684,2.684,0,0,1,.75.89,2.639,2.639,0,0,1,.28,1.24,2.984,2.984,0,0,1-.13.9,3.564,3.564,0,0,1-.36.73,4.023,4.023,0,0,1-.52.63c-.19.19-.39.39-.6.58l-2.13,1.9h3.76v1.9Z" fill="#0c689c"/>
        </g>
      </g>
      <g id="グループ_3556" data-name="グループ 3556">
        <g id="グループ_3555" data-name="グループ 3555">
          <path id="パス_2253" data-name="パス 2253" d="M232.77,184.49a2.629,2.629,0,0,1-.3,1.29,2.8,2.8,0,0,1-.8.91,3.613,3.613,0,0,1-1.12.53,4.374,4.374,0,0,1-1.25.18,5.419,5.419,0,0,1-1.21-.14,3.767,3.767,0,0,1-1.08-.44,3,3,0,0,1-1.4-1.86l2-.54a1.573,1.573,0,0,0,.53.8,1.532,1.532,0,0,0,1,.35,1.5,1.5,0,0,0,.47-.07,1.191,1.191,0,0,0,.43-.2.993.993,0,0,0,.31-.35,1.169,1.169,0,0,0,.13-.55,1,1,0,0,0-.17-.58,1.126,1.126,0,0,0-.43-.38,2.353,2.353,0,0,0-.6-.2,5.008,5.008,0,0,0-.67-.05h-.59V181.6h.64a3.009,3.009,0,0,0,.6,0,1.338,1.338,0,0,0,.51-.17.908.908,0,0,0,.37-.33,1.007,1.007,0,0,0,.13-.55.881.881,0,0,0-.35-.76,1.345,1.345,0,0,0-.8-.26,1.27,1.27,0,0,0-1.26,1l-2-.47a3,3,0,0,1,.5-1,3.473,3.473,0,0,1,.8-.73,4,4,0,0,1,2.13-.59,4.35,4.35,0,0,1,1.19.16,2.993,2.993,0,0,1,1,.48,2.505,2.505,0,0,1,.74.81,2.346,2.346,0,0,1,.28,1.16,1.941,1.941,0,0,1-.44,1.29,2.058,2.058,0,0,1-1.11.71h0a2.319,2.319,0,0,1,.71.3,2.4,2.4,0,0,1,1.11,1.84Z" fill="#0c689c"/>
        </g>
      </g>
      <g id="グループ_3558" data-name="グループ 3558">
        <g id="グループ_3557" data-name="グループ 3557">
          <path id="パス_2254" data-name="パス 2254" d="M221.76,306.25v-1.82l3.58-3.24a3.445,3.445,0,0,0,.55-.66,1.444,1.444,0,0,0,.21-.76,1.079,1.079,0,0,0-.31-.8,1.132,1.132,0,0,0-.84-.3,1.161,1.161,0,0,0-.89.38,1.782,1.782,0,0,0-.41,1l-2.09-.29a3.239,3.239,0,0,1,.38-1.25,3.189,3.189,0,0,1,.78-.93,3.388,3.388,0,0,1,1.07-.59,3.715,3.715,0,0,1,1.28-.2,4.371,4.371,0,0,1,1.24.17,3.066,3.066,0,0,1,1.06.52,2.546,2.546,0,0,1,.75.88,2.706,2.706,0,0,1,.28,1.25,2.978,2.978,0,0,1-.13.89,3.063,3.063,0,0,1-.36.73,3.945,3.945,0,0,1-.52.64l-.6.57-2.14,1.9h3.76v1.9Z" fill="#0c689c"/>
          <path id="パス_2255" data-name="パス 2255" d="M230.15,306.25v-1.82l3.59-3.24a3.863,3.863,0,0,0,.55-.66,1.444,1.444,0,0,0,.21-.76,1,1,0,0,0-.32-.8,1.1,1.1,0,0,0-.83-.3,1.161,1.161,0,0,0-.89.38,1.782,1.782,0,0,0-.41,1l-2.09-.29a3.239,3.239,0,0,1,.38-1.25,3.189,3.189,0,0,1,.78-.93,3.291,3.291,0,0,1,1.07-.59,3.691,3.691,0,0,1,1.28-.2,4.229,4.229,0,0,1,1.23.17,2.993,2.993,0,0,1,1.07.52,2.546,2.546,0,0,1,.75.88,2.707,2.707,0,0,1,.28,1.25,2.978,2.978,0,0,1-.13.89,3.062,3.062,0,0,1-.36.73,4.571,4.571,0,0,1-.52.64l-.6.57-2.13,1.9h3.75v1.9Z" fill="#0c689c"/>
        </g>
      </g>
      <g id="グループ_3560" data-name="グループ 3560">
        <g id="グループ_3559" data-name="グループ 3559">
          <path id="パス_2256" data-name="パス 2256" d="M224.27,418.7v-6.76l-1.72,1.33-1.13-1.55,3-2.22h2v9.2Z" fill="#0c689c"/>
          <path id="パス_2257" data-name="パス 2257" d="M235.68,416.91v1.79h-2v-1.79h-4.32v-1.84l3.74-5.57h2.61v5.64H237v1.77Zm-2-5.18h0l-2.19,3.41h2.23Z" fill="#0c689c"/>
        </g>
      </g>
      <g id="グループ_3562" data-name="グループ 3562">
        <g id="グループ_3561" data-name="グループ 3561">
          <path id="パス_2258" data-name="パス 2258" d="M221.74,552.42v-1.81l3.58-3.25a3.134,3.134,0,0,0,.55-.66,1.437,1.437,0,0,0,.21-.75,1.079,1.079,0,0,0-.31-.8,1.188,1.188,0,0,0-.84-.31,1.149,1.149,0,0,0-.89.39,1.752,1.752,0,0,0-.41,1l-2.09-.28a3.2,3.2,0,0,1,1.16-2.19,3.388,3.388,0,0,1,1.07-.59,4.28,4.28,0,0,1,1.28-.2,4.684,4.684,0,0,1,1.24.17,3.284,3.284,0,0,1,1.06.52,2.569,2.569,0,0,1,.75.89,2.639,2.639,0,0,1,.28,1.24,2.915,2.915,0,0,1-.13.89,2.8,2.8,0,0,1-.36.74,3.49,3.49,0,0,1-.52.63c-.19.2-.39.39-.6.58l-2.13,1.9h3.76v1.9Z" fill="#0c689c"/>
          <path id="パス_2259" data-name="パス 2259" d="M236.83,549.75a2.64,2.64,0,0,1-1.11,2.21,3.445,3.445,0,0,1-1.11.53,4.444,4.444,0,0,1-1.25.18,5.021,5.021,0,0,1-1.22-.15,3.856,3.856,0,0,1-1.08-.43,3.229,3.229,0,0,1-.85-.76,3.005,3.005,0,0,1-.54-1.11l2-.53a1.682,1.682,0,0,0,.54.8,1.474,1.474,0,0,0,1,.34,1.991,1.991,0,0,0,.48-.06,1.4,1.4,0,0,0,.43-.2,1.192,1.192,0,0,0,.31-.36,1.061,1.061,0,0,0,.12-.55,1,1,0,0,0-.16-.58,1.092,1.092,0,0,0-.43-.37,2.12,2.12,0,0,0-.6-.2,4.989,4.989,0,0,0-.67,0h-.59v-1.59h.64a4,4,0,0,0,.6,0,1.8,1.8,0,0,0,.51-.17,1,1,0,0,0,.36-.34.944.944,0,0,0,.14-.55A.849.849,0,0,0,234,545a1.284,1.284,0,0,0-2.07.75l-2-.47a3,3,0,0,1,.5-1,3.127,3.127,0,0,1,.8-.73,3.986,3.986,0,0,1,1-.44,4.2,4.2,0,0,1,1.12-.15,4.35,4.35,0,0,1,1.19.16,3.23,3.23,0,0,1,1,.48,2.586,2.586,0,0,1,.73.81,2.237,2.237,0,0,1,.28,1.16,2,2,0,0,1-.43,1.3,2.275,2.275,0,0,1-1.11.71h0a2.08,2.08,0,0,1,.71.29,2.319,2.319,0,0,1,.56.48,1.992,1.992,0,0,1,.37.62A2.253,2.253,0,0,1,236.83,549.75Z" fill="#0c689c"/>
        </g>
      </g>
      <g id="グループ_3564" data-name="グループ 3564">
        <g id="グループ_3563" data-name="グループ 3563">
          <path id="パス_2260" data-name="パス 2260" d="M224.47,642.29v-6.76l-1.72,1.33-1.13-1.55,3-2.22h2v9.2Z" fill="#0c689c"/>
          <path id="パス_2261" data-name="パス 2261" d="M236.75,639.25a3.354,3.354,0,0,1-.3,1.46,2.862,2.862,0,0,1-.8,1,3.327,3.327,0,0,1-1.13.6,4.225,4.225,0,0,1-1.32.2,4.348,4.348,0,0,1-1.19-.16,3.734,3.734,0,0,1-1-.46,3.133,3.133,0,0,1-.8-.74,2.726,2.726,0,0,1-.48-1l2-.61a1.512,1.512,0,0,0,.54.79,1.549,1.549,0,0,0,1,.32,1.521,1.521,0,0,0,1-.34,1.19,1.19,0,0,0,.41-1,1.343,1.343,0,0,0-.16-.68,1.4,1.4,0,0,0-.44-.43,1.906,1.906,0,0,0-.6-.23,3.874,3.874,0,0,0-.68-.06,6.1,6.1,0,0,0-1.12.11,6.373,6.373,0,0,0-1.13.29l.23-5.27h5.64V635h-3.71l-.08,1.46a2.559,2.559,0,0,1,.47-.07,3.527,3.527,0,0,1,.46,0,4.8,4.8,0,0,1,1.3.18,3.154,3.154,0,0,1,1.06.55,2.776,2.776,0,0,1,.71.92A3.058,3.058,0,0,1,236.75,639.25Z" fill="#0c689c"/>
        </g>
      </g>
      <g id="グループ_3566" data-name="グループ 3566">
        <g id="グループ_3565" data-name="グループ 3565">
          <path id="パス_2262" data-name="パス 2262" d="M130,715.35a2.67,2.67,0,0,1-.3,1.3,2.8,2.8,0,0,1-.8.91,3.551,3.551,0,0,1-1.11.53,4.443,4.443,0,0,1-1.26.18,5.423,5.423,0,0,1-1.21-.14,3.767,3.767,0,0,1-1.08-.44,3.059,3.059,0,0,1-1.4-1.87l2-.53a1.658,1.658,0,0,0,.53.8,1.532,1.532,0,0,0,1,.35,1.867,1.867,0,0,0,.47-.07,1.318,1.318,0,0,0,.43-.2,1,1,0,0,0,.31-.36,1.116,1.116,0,0,0,.13-.54,1,1,0,0,0-.17-.59,1.159,1.159,0,0,0-.42-.37,2.174,2.174,0,0,0-.61-.19,3.762,3.762,0,0,0-.67-.06h-.59v-1.59h.64a4,4,0,0,0,.6,0,1.8,1.8,0,0,0,.51-.17,1,1,0,0,0,.36-.34.944.944,0,0,0,.14-.55.849.849,0,0,0-.35-.75,1.284,1.284,0,0,0-2.07.75l-2-.47a3,3,0,0,1,1.31-1.75,3.983,3.983,0,0,1,1-.44,4.2,4.2,0,0,1,1.12-.15,4.35,4.35,0,0,1,1.19.16,3.209,3.209,0,0,1,1,.48,2.574,2.574,0,0,1,.73.81,2.247,2.247,0,0,1,.28,1.16,1.941,1.941,0,0,1-.43,1.29,2.145,2.145,0,0,1-1.11.71h0a2.57,2.57,0,0,1,.71.29,2.319,2.319,0,0,1,.56.48,2,2,0,0,1,.49,1.36Z" fill="#0c689c"/>
          <path id="パス_2263" data-name="パス 2263" d="M134.49,718v-6.77l-1.72,1.33L131.64,711l3-2.22h2V718Z" fill="#0c689c"/>
        </g>
      </g>
      <g id="グループ_3568" data-name="グループ 3568">
        <g id="グループ_3567" data-name="グループ 3567">
          <path id="パス_2264" data-name="パス 2264" d="M178.64,715.35a2.67,2.67,0,0,1-.3,1.3,2.8,2.8,0,0,1-.8.91,3.665,3.665,0,0,1-1.11.53,4.443,4.443,0,0,1-1.26.18,5.423,5.423,0,0,1-1.21-.14,3.767,3.767,0,0,1-1.08-.44,3,3,0,0,1-1.4-1.87l2-.53a1.658,1.658,0,0,0,.53.8,1.532,1.532,0,0,0,1,.35,1.867,1.867,0,0,0,.47-.07,1.318,1.318,0,0,0,.43-.2,1,1,0,0,0,.31-.36,1.116,1.116,0,0,0,.13-.54,1,1,0,0,0-.17-.59,1.19,1.19,0,0,0-.43-.37,2.11,2.11,0,0,0-.6-.19,3.874,3.874,0,0,0-.68-.06H174v-1.59h.64a4,4,0,0,0,.6,0,1.8,1.8,0,0,0,.51-.17,1,1,0,0,0,.36-.34.944.944,0,0,0,.14-.55.849.849,0,0,0-.35-.75,1.284,1.284,0,0,0-2.07.75l-2-.47a3.252,3.252,0,0,1,.51-1,3.09,3.09,0,0,1,.8-.73,3.983,3.983,0,0,1,1-.44,4.2,4.2,0,0,1,1.12-.15,4.348,4.348,0,0,1,1.19.16,3.207,3.207,0,0,1,1,.48,2.574,2.574,0,0,1,.73.81,2.247,2.247,0,0,1,.28,1.16,1.941,1.941,0,0,1-.43,1.29,2.144,2.144,0,0,1-1.11.71h0a2.572,2.572,0,0,1,.71.29,2.316,2.316,0,0,1,.56.48,2.015,2.015,0,0,1,.36.63A1.993,1.993,0,0,1,178.64,715.35Z" fill="#0c689c"/>
          <path id="パス_2265" data-name="パス 2265" d="M187.26,713.4a9.015,9.015,0,0,1-.2,1.86,4.863,4.863,0,0,1-.63,1.55,3.247,3.247,0,0,1-1.11,1.07,3.33,3.33,0,0,1-4.45-1.07,4.764,4.764,0,0,1-.63-1.55,9.015,9.015,0,0,1-.2-1.86,8.786,8.786,0,0,1,.2-1.85,4.7,4.7,0,0,1,.63-1.54,3.31,3.31,0,0,1,1.13-1,3.728,3.728,0,0,1,3.32,0,3.163,3.163,0,0,1,1.11,1,4.7,4.7,0,0,1,.63,1.54A8.785,8.785,0,0,1,187.26,713.4Zm-2.24,0a6.051,6.051,0,0,0-.05-.95,4.666,4.666,0,0,0-.2-1,2,2,0,0,0-.41-.75.85.85,0,0,0-.7-.31.908.908,0,0,0-.7.31,2.13,2.13,0,0,0-.42.75,4.666,4.666,0,0,0-.2,1c0,.32-.05.63-.05.95a7.112,7.112,0,0,0,.05,1,4.548,4.548,0,0,0,.2,1,2.181,2.181,0,0,0,.42.76.9.9,0,0,0,.7.3.881.881,0,0,0,.7-.3,2.007,2.007,0,0,0,.41-.76,4.666,4.666,0,0,0,.2-1c.03-.4.03-.71.03-1Z" fill="#0c689c"/>
        </g>
      </g>
      <g id="グループ_3570" data-name="グループ 3570">
        <g id="グループ_3569" data-name="グループ 3569">
          <path id="パス_2266" data-name="パス 2266" d="M271.44,718.15v-1.82l3.59-3.24a3.4,3.4,0,0,0,.54-.66,1.352,1.352,0,0,0,.21-.76,1.112,1.112,0,0,0-.31-.8,1.209,1.209,0,0,0-.83-.3,1.119,1.119,0,0,0-.89.39,1.683,1.683,0,0,0-.41,1l-2.1-.28a3.441,3.441,0,0,1,.39-1.25,3.343,3.343,0,0,1,.77-.94,3.192,3.192,0,0,1,1.07-.58,3.771,3.771,0,0,1,1.29-.2,4.259,4.259,0,0,1,1.23.16,3.565,3.565,0,0,1,1.07.52,2.652,2.652,0,0,1,.74.89,2.568,2.568,0,0,1,.28,1.25,2.686,2.686,0,0,1-.13.89,2.9,2.9,0,0,1-.35.73,4.547,4.547,0,0,1-.52.63l-.61.58-2.13,1.9h3.76v1.9Z" fill="#0c689c"/>
          <path id="パス_2267" data-name="パス 2267" d="M286.77,712a3.822,3.822,0,0,1-.28,1.49,8.808,8.808,0,0,1-.75,1.35l-2.22,3.32h-2.63l2.29-3.17h0a1.744,1.744,0,0,1-.31.08h-.34a3.247,3.247,0,0,1-1.15-.21,3.008,3.008,0,0,1-1-.61,2.865,2.865,0,0,1-.66-1,2.911,2.911,0,0,1-.25-1.23,3.233,3.233,0,0,1,.29-1.4,3.073,3.073,0,0,1,.77-1,3.521,3.521,0,0,1,1.16-.66,4.413,4.413,0,0,1,1.4-.23,4.478,4.478,0,0,1,1.41.23,3.186,3.186,0,0,1,2.21,3.06Zm-2.17,0a1.46,1.46,0,0,0-.39-1,1.3,1.3,0,0,0-1-.44,1.412,1.412,0,0,0-1.06.41,1.61,1.61,0,0,0,0,2.11,1.446,1.446,0,0,0,2.454-.966c0-.038,0-.076,0-.114Z" fill="#0c689c"/>
        </g>
      </g>
      <g id="グループ_3572" data-name="グループ 3572">
        <g id="グループ_3571" data-name="グループ 3571">
          <path id="パス_2268" data-name="パス 2268" d="M328.88,715.35a2.652,2.652,0,0,1-.31,1.3,2.7,2.7,0,0,1-.8.91,3.551,3.551,0,0,1-1.11.53,4.443,4.443,0,0,1-1.26.18,5.54,5.54,0,0,1-1.21-.14,3.909,3.909,0,0,1-1.08-.44,3.059,3.059,0,0,1-1.4-1.87l2-.53a1.658,1.658,0,0,0,.53.8,1.556,1.556,0,0,0,1,.35,2,2,0,0,0,.48-.07,1.418,1.418,0,0,0,.43-.2,1.2,1.2,0,0,0,.31-.36,1.1,1.1,0,0,0,.12-.54.993.993,0,0,0-.16-.59,1.276,1.276,0,0,0-.43-.37,2.174,2.174,0,0,0-.61-.19,3.762,3.762,0,0,0-.67-.06h-.59v-1.59h.64a4,4,0,0,0,.6,0,1.789,1.789,0,0,0,.51-.17,1,1,0,0,0,.37-.34.94.94,0,0,0,.13-.55.849.849,0,0,0-.35-.75,1.294,1.294,0,0,0-.8-.27,1.329,1.329,0,0,0-.82.28,1.261,1.261,0,0,0-.44.75l-2-.47a3,3,0,0,1,.5-1,3.473,3.473,0,0,1,.8-.73,4,4,0,0,1,2.13-.59,4.35,4.35,0,0,1,1.19.16,3.207,3.207,0,0,1,1,.48,2.726,2.726,0,0,1,.74.81,2.333,2.333,0,0,1,.28,1.16,1.941,1.941,0,0,1-.44,1.29,2.058,2.058,0,0,1-1.11.71h0a2.572,2.572,0,0,1,.71.29,2.145,2.145,0,0,1,.56.48,2.232,2.232,0,0,1,.37.63A2,2,0,0,1,328.88,715.35Z" fill="#0c689c"/>
          <path id="パス_2269" data-name="パス 2269" d="M333.37,718v-6.77l-1.72,1.33L330.52,711l3-2.22h2V718Z" fill="#0c689c"/>
        </g>
      </g>
      <g id="グループ_3574" data-name="グループ 3574">
        <g id="グループ_3573" data-name="グループ 3573">
          <path id="パス_2270" data-name="パス 2270" d="M224.35,758.68v-6.76l-1.72,1.33-1.13-1.55,3-2.23h2v9.2Z" fill="#0c689c"/>
          <path id="パス_2271" data-name="パス 2271" d="M236.87,755.58a3.338,3.338,0,0,1-.28,1.4,2.993,2.993,0,0,1-.78,1.06,3.391,3.391,0,0,1-1.16.65,4.385,4.385,0,0,1-2.8,0,3.256,3.256,0,0,1-1.15-.65,3.054,3.054,0,0,1-.78-1,3.252,3.252,0,0,1-.29-1.37,3.844,3.844,0,0,1,.29-1.49,8.08,8.08,0,0,1,.74-1.35l2.22-3.32h2.64l-2.27,3.15v.06a1.744,1.744,0,0,1,.31-.08h.34a3.161,3.161,0,0,1,1.15.21,2.925,2.925,0,0,1,1,.61,3.109,3.109,0,0,1,.66,1A3.065,3.065,0,0,1,236.87,755.58Zm-2.17.06a1.469,1.469,0,0,0-.39-1,1.418,1.418,0,0,0-1.05-.41,1.46,1.46,0,0,0-1,.4,1.391,1.391,0,0,0-.4,1.06,1.429,1.429,0,0,0,.39,1,1.348,1.348,0,0,0,1.05.43,1.416,1.416,0,0,0,1.06-.4,1.438,1.438,0,0,0,.39-1.06Z" fill="#0c689c"/>
        </g>
      </g>
      <g id="グループ_3576" data-name="グループ 3576">
        <g id="グループ_3575" data-name="グループ 3575">
          <path id="パス_2272" data-name="パス 2272" d="M222.6,802.22V800.4l3.59-3.24a3.393,3.393,0,0,0,.54-.66,1.354,1.354,0,0,0,.21-.75,1,1,0,0,0-.31-.8,1.25,1.25,0,0,0-1.72.07,1.742,1.742,0,0,0-.41,1l-2.09-.28a3.184,3.184,0,0,1,.38-1.25,3.343,3.343,0,0,1,.77-.94,3.387,3.387,0,0,1,1.07-.59,4.006,4.006,0,0,1,1.29-.2,4.691,4.691,0,0,1,1.23.17,3.234,3.234,0,0,1,1.07.52,2.507,2.507,0,0,1,.74.88,2.607,2.607,0,0,1,.28,1.25,2.686,2.686,0,0,1-.13.89,2.986,2.986,0,0,1-.35.74,6.144,6.144,0,0,1-.52.63l-.6.58-2.14,1.9h3.76v1.9Z" fill="#0c689c"/>
          <path id="パス_2273" data-name="パス 2273" d="M233.79,802.22v-6.76l-1.71,1.33L231,795.24l3-2.22h2v9.2Z" fill="#0c689c"/>
        </g>
      </g>
      <g id="グループ_3578" data-name="グループ 3578">
        <g id="グループ_3577" data-name="グループ 3577">
          <path id="パス_2274" data-name="パス 2274" d="M93.43,587v-6.76l-1.72,1.33L90.58,580l3-2.22h2V587Z" fill="#0c689c"/>
          <path id="パス_2275" data-name="パス 2275" d="M101.82,587v-6.76l-1.71,1.33L99,580l3-2.22h2V587Z" fill="#0c689c"/>
        </g>
      </g>
      <g id="グループ_3580" data-name="グループ 3580">
        <g id="グループ_3579" data-name="グループ 3579">
          <path id="パス_2276" data-name="パス 2276" d="M50.55,544a2.64,2.64,0,0,1-1.11,2.21,3.445,3.445,0,0,1-1.11.53,4.441,4.441,0,0,1-1.26.18,4.988,4.988,0,0,1-1.21-.15,3.6,3.6,0,0,1-1.08-.43,3.051,3.051,0,0,1-.85-.75,3.326,3.326,0,0,1-.55-1.12l2-.53a1.658,1.658,0,0,0,.53.8,1.486,1.486,0,0,0,1,.34,1.991,1.991,0,0,0,.48-.06,1.262,1.262,0,0,0,.42-.2,1.225,1.225,0,0,0,.32-.36,1.112,1.112,0,0,0,.12-.54.993.993,0,0,0-.16-.59,1.19,1.19,0,0,0-.43-.37,2.108,2.108,0,0,0-.6-.19,3.868,3.868,0,0,0-.68-.06H45.8V541.1h.63a2.946,2.946,0,0,0,.6-.05,1.368,1.368,0,0,0,.52-.17.875.875,0,0,0,.36-.33,1,1,0,0,0,.14-.55.91.91,0,0,0-.35-.76A1.365,1.365,0,0,0,47,539a1.274,1.274,0,0,0-.81.28,1.329,1.329,0,0,0-.45.75l-2-.47a3.017,3.017,0,0,1,.51-1,3.126,3.126,0,0,1,.8-.73,3.983,3.983,0,0,1,1-.44,4.165,4.165,0,0,1,1.11-.15,4.274,4.274,0,0,1,1.19.16,3.081,3.081,0,0,1,1,.48,2.464,2.464,0,0,1,.73.81,2.33,2.33,0,0,1,.28,1.15,1.941,1.941,0,0,1-.43,1.3,2.122,2.122,0,0,1-1.12.71h0a2.3,2.3,0,0,1,.72.3,2.13,2.13,0,0,1,.56.48,2.1,2.1,0,0,1,.49,1.35Z" fill="#0c689c"/>
          <path id="パス_2277" data-name="パス 2277" d="M59.17,543.56a3.392,3.392,0,0,1-.29,1.4A3,3,0,0,1,58.1,546a3.451,3.451,0,0,1-1.15.65,4.416,4.416,0,0,1-2.81,0A3.45,3.45,0,0,1,53,546a3.316,3.316,0,0,1-.78-1,3.231,3.231,0,0,1-.28-1.37,3.823,3.823,0,0,1,.28-1.49,9.768,9.768,0,0,1,.74-1.35l2.22-3.32h2.64l-2.26,3.15v.06a1.574,1.574,0,0,1,.31-.08h.34a3.151,3.151,0,0,1,1.14.21,2.91,2.91,0,0,1,1,.61,3.016,3.016,0,0,1,.66,1A3.066,3.066,0,0,1,59.17,543.56Zm-2.18.06a1.38,1.38,0,0,0-.39-1,1.348,1.348,0,0,0-1-.41,1.439,1.439,0,0,0-1.06.4,1.413,1.413,0,0,0-.4,1,1.46,1.46,0,0,0,.39,1,1.371,1.371,0,0,0,1.06.43,1.41,1.41,0,0,0,1.05-.4,1.454,1.454,0,0,0,.39-1.07Z" fill="#0c689c"/>
        </g>
      </g>
      <g id="グループ_3582" data-name="グループ 3582">
        <g id="グループ_3581" data-name="グループ 3581">
          <path id="パス_2278" data-name="パス 2278" d="M12.25,544.31a2.64,2.64,0,0,1-1.11,2.22,3.446,3.446,0,0,1-1.11.53,4.846,4.846,0,0,1-1.25.18,5.021,5.021,0,0,1-1.22-.15,3.854,3.854,0,0,1-1.08-.43,3.247,3.247,0,0,1-.85-.76,3.307,3.307,0,0,1-.55-1.11l2-.53a1.658,1.658,0,0,0,.53.8,1.539,1.539,0,0,0,1,.34,2.044,2.044,0,0,0,.48-.06,1.262,1.262,0,0,0,.42-.2,1.225,1.225,0,0,0,.32-.36,1.154,1.154,0,0,0,.12-.55,1,1,0,0,0-.16-.58,1.091,1.091,0,0,0-.43-.37,2.12,2.12,0,0,0-.6-.2,3.868,3.868,0,0,0-.68-.06H7.56v-1.58h.63a3.885,3.885,0,0,0,.6-.05,1.368,1.368,0,0,0,.52-.17.924.924,0,0,0,.5-.88.889.889,0,0,0-.35-.76,1.313,1.313,0,0,0-.81-.26,1.209,1.209,0,0,0-.81.28,1.3,1.3,0,0,0-.45.75l-2-.47a3.145,3.145,0,0,1,.51-1,2.932,2.932,0,0,1,.8-.73,3.363,3.363,0,0,1,1-.44,4.165,4.165,0,0,1,1.11-.15,4.689,4.689,0,0,1,1.19.15,3.2,3.2,0,0,1,1,.49,2.464,2.464,0,0,1,.73.81,2.2,2.2,0,0,1,.28,1.15,2,2,0,0,1-.43,1.3,2.186,2.186,0,0,1-1.12.71h0a2.062,2.062,0,0,1,.72.29,2.316,2.316,0,0,1,.56.48,1.83,1.83,0,0,1,.36.62A1.991,1.991,0,0,1,12.25,544.31Z" fill="#0c689c"/>
          <path id="パス_2279" data-name="パス 2279" d="M14,547v-1.82l3.59-3.24a3.538,3.538,0,0,0,.55-.67,1.385,1.385,0,0,0,.2-.75,1,1,0,0,0-.31-.8,1.261,1.261,0,0,0-1.72.08,1.742,1.742,0,0,0-.41,1l-2.09-.28A3.259,3.259,0,0,1,16,537.74a4.247,4.247,0,0,1,1.28-.2,4.691,4.691,0,0,1,1.23.17,3.233,3.233,0,0,1,1.07.52,2.6,2.6,0,0,1,1,2.13,2.749,2.749,0,0,1-.13.9,3.085,3.085,0,0,1-.35.73,4.541,4.541,0,0,1-.52.63l-.6.58-2.14,1.9H20.6V547Z" fill="#0c689c"/>
        </g>
      </g>
      <g id="グループ_3584" data-name="グループ 3584">
        <g id="グループ_3583" data-name="グループ 3583">
          <path id="パス_2280" data-name="パス 2280" d="M95.7,466a4,4,0,0,1-.29,1.49,8.481,8.481,0,0,1-.74,1.36l-2.22,3.32H89.81L92.1,469h0a1.222,1.222,0,0,1-.32.08h-.33a3.073,3.073,0,0,1-1.16-.22,2.8,2.8,0,0,1-1-.61,3,3,0,0,1-.91-2.17,3.357,3.357,0,0,1,.29-1.4,2.994,2.994,0,0,1,.78-1.06,3.665,3.665,0,0,1,1.15-.66,4.165,4.165,0,0,1,1.4-.22,4.311,4.311,0,0,1,1.42.22,3.665,3.665,0,0,1,1.15.66,3.162,3.162,0,0,1,.77,1A3.37,3.37,0,0,1,95.7,466Zm-2.18,0a1.54,1.54,0,0,0-.38-1,1.339,1.339,0,0,0-1-.43,1.419,1.419,0,0,0-1.07.41,1.5,1.5,0,0,0-.4,1.07,1.44,1.44,0,0,0,.39,1,1.388,1.388,0,0,0,1,.41,1.369,1.369,0,0,0,1.459-1.274,1.29,1.29,0,0,0,0-.176Z" fill="#0c689c"/>
        </g>
      </g>
      <g id="グループ_3586" data-name="グループ 3586">
        <g id="グループ_3585" data-name="グループ 3585">
          <path id="パス_2281" data-name="パス 2281" d="M129.47,472.13v-1.82l3.59-3.24a3.538,3.538,0,0,0,.55-.67,1.385,1.385,0,0,0,.2-.75,1,1,0,0,0-.31-.8,1.262,1.262,0,0,0-1.72.08,1.711,1.711,0,0,0-.41,1l-2.09-.29a3.239,3.239,0,0,1,.38-1.25,3.286,3.286,0,0,1,.77-.93,3.448,3.448,0,0,1,1.08-.59,3.691,3.691,0,0,1,1.28-.2,4.3,4.3,0,0,1,1.23.17,2.993,2.993,0,0,1,1.07.52,2.546,2.546,0,0,1,.75.88,2.931,2.931,0,0,1-.21,2.87,4.545,4.545,0,0,1-.52.63l-.6.58-2.13,1.9h3.75v1.9Z" fill="#0c689c"/>
          <path id="パス_2282" data-name="パス 2282" d="M143.68,470.33v1.8h-2v-1.8h-4.33V468.5l3.75-5.58h2.61v5.64H145v1.77Zm-2-5.17h0l-2.19,3.4h2.23Z" fill="#0c689c"/>
        </g>
      </g>
      <g id="グループ_3588" data-name="グループ 3588">
        <g id="グループ_3587" data-name="グループ 3587">
          <path id="パス_2283" data-name="パス 2283" d="M109.08,429.83v-6.77l-1.72,1.33-1.13-1.55,3-2.22h2v9.2Z" fill="#0c689c"/>
          <path id="パス_2284" data-name="パス 2284" d="M117.78,429.83h-2.54l3.73-7.34h-4.35v-1.87h6.68v1.74Z" fill="#0c689c"/>
        </g>
      </g>
      <g id="グループ_3590" data-name="グループ 3590">
        <g id="グループ_3589" data-name="グループ 3589">
          <path id="パス_2285" data-name="パス 2285" d="M126.13,373.89v-1.82l3.59-3.24a3.394,3.394,0,0,0,.54-.66,1.354,1.354,0,0,0,.21-.75,1,1,0,0,0-.31-.8,1.25,1.25,0,0,0-1.72.07,1.742,1.742,0,0,0-.41,1l-2.09-.28a3.183,3.183,0,0,1,.38-1.25,3.342,3.342,0,0,1,.77-.94,3.388,3.388,0,0,1,1.07-.59,4.007,4.007,0,0,1,1.29-.2,4.692,4.692,0,0,1,1.23.17,3.334,3.334,0,0,1,1.07.52,2.561,2.561,0,0,1,1,2.13,2.686,2.686,0,0,1-.13.89,2.97,2.97,0,0,1-.35.74,6.146,6.146,0,0,1-.52.63l-.6.58L129,372h3.76v1.9Z" fill="#0c689c"/>
          <path id="パス_2286" data-name="パス 2286" d="M140.34,372.1v1.79h-2V372.1H134v-1.84l3.75-5.57h2.61v5.64h1.27v1.77Zm-2-5.18h0l-2.18,3.41h2.22Z" fill="#0c689c"/>
        </g>
      </g>
      <g id="グループ_3592" data-name="グループ 3592">
        <g id="グループ_3591" data-name="グループ 3591">
          <path id="パス_2287" data-name="パス 2287" d="M88.89,374.76H86.36l3.73-7.33H85.73v-1.87h6.69v1.75Z" fill="#0c689c"/>
        </g>
      </g>
      <g id="グループ_3594" data-name="グループ 3594">
        <g id="グループ_3593" data-name="グループ 3593">
          <path id="パス_2288" data-name="パス 2288" d="M40.77,399.75V393l-1.72,1.32-1.13-1.55,3-2.22h2v9.2Z" fill="#0c689c"/>
          <path id="パス_2289" data-name="パス 2289" d="M53.07,397.08a2.685,2.685,0,0,1-.31,1.3,2.8,2.8,0,0,1-.8.91,3.551,3.551,0,0,1-1.11.53,4.442,4.442,0,0,1-1.26.18,4.988,4.988,0,0,1-1.21-.15,3.727,3.727,0,0,1-1.08-.43,2.942,2.942,0,0,1-.85-.76,3,3,0,0,1-.55-1.11l2-.53a1.658,1.658,0,0,0,.53.8,1.486,1.486,0,0,0,1,.34,1.858,1.858,0,0,0,.47-.06,1.32,1.32,0,0,0,.43-.2,1.064,1.064,0,0,0,.31-.36,1.127,1.127,0,0,0,.13-.54.993.993,0,0,0-.16-.59,1.181,1.181,0,0,0-.43-.37,2.491,2.491,0,0,0-.6-.2,5.149,5.149,0,0,0-.68,0h-.58V394.2H49a2.946,2.946,0,0,0,.6-.05,1.368,1.368,0,0,0,.52-.17.924.924,0,0,0,.5-.88.933.933,0,0,0-.35-.76,1.391,1.391,0,0,0-.81-.26,1.2,1.2,0,0,0-.81.28,1.3,1.3,0,0,0-.45.75l-2-.47a3.017,3.017,0,0,1,.51-1,3.126,3.126,0,0,1,.8-.73,3.737,3.737,0,0,1,1-.44,4.381,4.381,0,0,1,2.31.01,3.164,3.164,0,0,1,1,.48,2.464,2.464,0,0,1,.73.81,2.3,2.3,0,0,1,.28,1.15,1.9,1.9,0,0,1-.44,1.3,2.058,2.058,0,0,1-1.11.71h0a2.3,2.3,0,0,1,.72.3,2.13,2.13,0,0,1,.56.48,2.1,2.1,0,0,1,.49,1.35Z" fill="#0c689c"/>
        </g>
      </g>
      <g id="グループ_3596" data-name="グループ 3596">
        <g id="グループ_3595" data-name="グループ 3595">
          <path id="パス_2290" data-name="パス 2290" d="M6.29,419.7v-1.82l3.59-3.24a3.807,3.807,0,0,0,.54-.66,1.444,1.444,0,0,0,.21-.76,1.112,1.112,0,0,0-.31-.8,1.209,1.209,0,0,0-.83-.3,1.15,1.15,0,0,0-.9.39,1.67,1.67,0,0,0-.4,1l-2.1-.28A3.091,3.091,0,0,1,6.48,412a3,3,0,0,1,.77-.94,3.19,3.19,0,0,1,1.07-.58,3.715,3.715,0,0,1,1.28-.2,4.327,4.327,0,0,1,1.24.16,3.5,3.5,0,0,1,1.06.52,2.569,2.569,0,0,1,.75.89,2.682,2.682,0,0,1,.28,1.25,2.978,2.978,0,0,1-.13.89,3.282,3.282,0,0,1-.36.73,4.024,4.024,0,0,1-.52.63c-.19.2-.39.39-.6.58l-2.13,1.9H13v1.9Z" fill="#0c689c"/>
          <path id="パス_2291" data-name="パス 2291" d="M21.6,415.07a8.879,8.879,0,0,1-.2,1.86,4.558,4.558,0,0,1-.62,1.55,3.189,3.189,0,0,1-1.12,1.07,3.35,3.35,0,0,1-4.45-1.02,4.562,4.562,0,0,1-.63-1.55,8.692,8.692,0,0,1,0-3.71,4.388,4.388,0,0,1,.63-1.53,3.124,3.124,0,0,1,1.12-1.05A3.337,3.337,0,0,1,18,410.3a3.27,3.27,0,0,1,1.65.39,3.21,3.21,0,0,1,1.12,1.05,4.376,4.376,0,0,1,.62,1.53A8.858,8.858,0,0,1,21.6,415.07Zm-2.24,0a8.149,8.149,0,0,0-.05-.95,4.666,4.666,0,0,0-.2-1,2,2,0,0,0-.41-.75.88.88,0,0,0-.7-.31,1,1,0,0,0-.7.31,2.23,2.23,0,0,0-.42.75,4.666,4.666,0,0,0-.2,1c0,.32-.05.63-.05.95a7.112,7.112,0,0,0,.05,1,4.547,4.547,0,0,0,.2,1,2.182,2.182,0,0,0,.42.76.9.9,0,0,0,.7.3.849.849,0,0,0,.7-.3,2.007,2.007,0,0,0,.41-.76,4.547,4.547,0,0,0,.2-1A8.564,8.564,0,0,0,19.36,415.07Z" fill="#0c689c"/>
        </g>
      </g>
      <g id="グループ_3598" data-name="グループ 3598">
        <g id="グループ_3597" data-name="グループ 3597">
          <path id="パス_2292" data-name="パス 2292" d="M104.58,325.27v-1.82l3.58-3.24a3.444,3.444,0,0,0,.55-.66,1.437,1.437,0,0,0,.21-.75,1.079,1.079,0,0,0-.31-.8,1.131,1.131,0,0,0-.83-.3,1.152,1.152,0,0,0-.9.38,1.7,1.7,0,0,0-.4,1l-2.1-.29a3.441,3.441,0,0,1,.39-1.25,3.255,3.255,0,0,1,1.84-1.52,3.715,3.715,0,0,1,1.28-.2,4,4,0,0,1,1.24.17,3.075,3.075,0,0,1,1.06.52,2.441,2.441,0,0,1,.75.88,2.682,2.682,0,0,1,.28,1.25,2.978,2.978,0,0,1-.13.89,2.919,2.919,0,0,1-.36.73,3.5,3.5,0,0,1-.52.63l-.6.58-2.13,1.9h3.75v1.9Z" fill="#0c689c"/>
          <path id="パス_2293" data-name="パス 2293" d="M119.89,322.18a3.369,3.369,0,0,1-.28,1.4,3.237,3.237,0,0,1-.78,1.05,3.614,3.614,0,0,1-1.16.66,4.14,4.14,0,0,1-1.4.22,4.249,4.249,0,0,1-1.41-.22,3.665,3.665,0,0,1-1.15-.66,3.169,3.169,0,0,1-1.06-2.4,3.61,3.61,0,0,1,.29-1.49,7.817,7.817,0,0,1,.74-1.36l2.22-3.32h2.64l-2.27,3.15v.06a1.737,1.737,0,0,1,.31-.07h.34a3.252,3.252,0,0,1,1.15.21,2.895,2.895,0,0,1,1.9,2.8Zm-2.17.05a1.44,1.44,0,0,0-.39-1,1.457,1.457,0,0,0-2.12,2,1.409,1.409,0,0,0,1.06.43,1.459,1.459,0,0,0,1-.4,1.482,1.482,0,0,0,.4-1.07Z" fill="#0c689c"/>
        </g>
      </g>
      <g id="グループ_3600" data-name="グループ 3600">
        <g id="グループ_3599" data-name="グループ 3599">
          <path id="パス_2294" data-name="パス 2294" d="M146.52,336.62v-6.76l-1.72,1.32-1.13-1.54,3-2.23h2v9.2Z" fill="#0c689c"/>
          <path id="パス_2295" data-name="パス 2295" d="M155.22,336.62h-2.54l3.73-7.34h-4.35v-1.87h6.68v1.75Z" fill="#0c689c"/>
        </g>
      </g>
      <g id="グループ_3602" data-name="グループ 3602">
        <g id="グループ_3601" data-name="グループ 3601">
          <path id="パス_2296" data-name="パス 2296" d="M103.31,235.4a3.214,3.214,0,0,1-.3,1.46,2.772,2.772,0,0,1-.8,1,3.451,3.451,0,0,1-1.13.61,4.547,4.547,0,0,1-1.32.2,4.777,4.777,0,0,1-1.19-.16,3.779,3.779,0,0,1-1-.47,2.933,2.933,0,0,1-.8-.73,2.807,2.807,0,0,1-.48-1l2-.61a1.613,1.613,0,0,0,.54.79,1.489,1.489,0,0,0,.95.31,1.463,1.463,0,0,0,1-.34,1.209,1.209,0,0,0,.4-1,1.294,1.294,0,0,0-.16-.67,1.313,1.313,0,0,0-.44-.44,1.592,1.592,0,0,0-.6-.22,3.043,3.043,0,0,0-.68-.07,6.1,6.1,0,0,0-1.12.11,6.374,6.374,0,0,0-1.13.29l.23-5.26h5.64v1.87H99.14l-.07,1.46a3.4,3.4,0,0,1,.46-.08h.46a4.4,4.4,0,0,1,1.3.19,3.066,3.066,0,0,1,1.06.55,2.686,2.686,0,0,1,.71.92A2.906,2.906,0,0,1,103.31,235.4Z" fill="#0c689c"/>
        </g>
      </g>
      <g id="グループ_3604" data-name="グループ 3604">
        <g id="グループ_3603" data-name="グループ 3603">
          <path id="パス_2297" data-name="パス 2297" d="M49.86,216.29a2.572,2.572,0,0,1-.31,1.3,2.7,2.7,0,0,1-.8.91,3.444,3.444,0,0,1-1.11.53,4.445,4.445,0,0,1-1.25.18,5.019,5.019,0,0,1-1.22-.15,3.854,3.854,0,0,1-1.08-.43,3.085,3.085,0,0,1-.85-.76,3,3,0,0,1-.54-1.11l2-.53a1.682,1.682,0,0,0,.54.8,1.453,1.453,0,0,0,1,.34,1.991,1.991,0,0,0,.48-.06,1.4,1.4,0,0,0,.43-.2,1.064,1.064,0,0,0,.31-.36,1.216,1.216,0,0,0-.04-1.13,1.19,1.19,0,0,0-.43-.37,2.091,2.091,0,0,0-.61-.2,3.759,3.759,0,0,0-.67-.06h-.59v-1.58h.64a4.006,4.006,0,0,0,.6,0,1.338,1.338,0,0,0,.51-.17.879.879,0,0,0,.5-.88.87.87,0,0,0-.35-.76,1.283,1.283,0,0,0-.8-.26,1.247,1.247,0,0,0-1.26,1.03l-2-.47a2.938,2.938,0,0,1,.5-1,3.254,3.254,0,0,1,.8-.73,3.59,3.59,0,0,1,1-.44,4.282,4.282,0,0,1,1.12-.15,4.781,4.781,0,0,1,1.19.15,3.279,3.279,0,0,1,1,.49,2.394,2.394,0,0,1,.74.81,2.3,2.3,0,0,1,.28,1.15,2,2,0,0,1-.44,1.3,2.058,2.058,0,0,1-1.11.71h0a2.6,2.6,0,0,1,.71.29,2.165,2.165,0,0,1,.56.48,2.232,2.232,0,0,1,.37.63A2,2,0,0,1,49.86,216.29Z" fill="#0c689c"/>
          <path id="パス_2298" data-name="パス 2298" d="M57.37,217.16V219h-2v-1.8H51v-1.83l3.74-5.57h2.62v5.64h1.27v1.76Zm-2-5.17h0l-2.18,3.41h2.22Z" fill="#0c689c"/>
        </g>
      </g>
      <g id="グループ_3606" data-name="グループ 3606">
        <g id="グループ_3605" data-name="グループ 3605">
          <path id="パス_2299" data-name="パス 2299" d="M12.28,216.29a2.568,2.568,0,0,1-.3,1.3,2.7,2.7,0,0,1-.8.91,3.444,3.444,0,0,1-1.11.53,4.445,4.445,0,0,1-1.25.18,5.019,5.019,0,0,1-1.22-.15,3.854,3.854,0,0,1-1.08-.43,3.14,3.14,0,0,1-1.4-1.87l2-.53a1.682,1.682,0,0,0,.54.8,1.453,1.453,0,0,0,1,.34,1.991,1.991,0,0,0,.48-.06,1.4,1.4,0,0,0,.43-.2,1.064,1.064,0,0,0,.31-.36,1.216,1.216,0,0,0-.04-1.13,1.19,1.19,0,0,0-.43-.37,2.491,2.491,0,0,0-.6-.2,3.871,3.871,0,0,0-.68-.06H7.6v-1.58h.64a4.006,4.006,0,0,0,.6,0,1.338,1.338,0,0,0,.51-.17.924.924,0,0,0,.5-.88.87.87,0,0,0-.35-.76,1.313,1.313,0,0,0-.81-.26,1.209,1.209,0,0,0-.81.28,1.3,1.3,0,0,0-.45.75l-2-.47a3.146,3.146,0,0,1,.51-1,2.933,2.933,0,0,1,.8-.73,3.363,3.363,0,0,1,1-.44,4.2,4.2,0,0,1,1.12-.15,4.781,4.781,0,0,1,1.19.15,3.279,3.279,0,0,1,1,.49,2.464,2.464,0,0,1,.73.81,2.2,2.2,0,0,1,.28,1.15,1.934,1.934,0,0,1-.43,1.3,2.138,2.138,0,0,1-1.11.71h0a2.6,2.6,0,0,1,.71.29,2.317,2.317,0,0,1,.56.48,2.232,2.232,0,0,1,.37.63A2.009,2.009,0,0,1,12.28,216.29Z" fill="#0c689c"/>
          <path id="パス_2300" data-name="パス 2300" d="M14,219v-1.82l3.58-3.24a3.445,3.445,0,0,0,.55-.66,1.444,1.444,0,0,0,.21-.76,1.112,1.112,0,0,0-.31-.8,1.22,1.22,0,0,0-.84-.3,1.131,1.131,0,0,0-.89.39,1.752,1.752,0,0,0-.41,1l-2.09-.29a3.3,3.3,0,0,1,2.27-2.8,3.715,3.715,0,0,1,1.28-.2,4.327,4.327,0,0,1,1.24.16,3.5,3.5,0,0,1,1.06.52,2.569,2.569,0,0,1,1,2.14,2.978,2.978,0,0,1-.13.89,3.283,3.283,0,0,1-.36.73,3.493,3.493,0,0,1-.52.63l-.6.58-2.14,1.9h3.76V219Z" fill="#0c689c"/>
        </g>
      </g>
      <g id="グループ_3608" data-name="グループ 3608">
        <g id="グループ_3607" data-name="グループ 3607">
          <path id="パス_2301" data-name="パス 2301" d="M150,104.3v-1.81l3.59-3.25a3.513,3.513,0,0,0,.55-.66,1.341,1.341,0,0,0,.2-.75A1,1,0,0,0,154,97a1.1,1.1,0,0,0-.83-.3,1.161,1.161,0,0,0-.89.38,1.711,1.711,0,0,0-.41,1l-2.09-.29a3.239,3.239,0,0,1,.38-1.25,3.286,3.286,0,0,1,.77-.93,3.447,3.447,0,0,1,1.08-.59,3.947,3.947,0,0,1,1.28-.2,4.3,4.3,0,0,1,1.23.17,2.993,2.993,0,0,1,1.07.52,2.546,2.546,0,0,1,.75.88,2.706,2.706,0,0,1,.28,1.25,2.983,2.983,0,0,1-.13.89,3.062,3.062,0,0,1-.36.73,4.545,4.545,0,0,1-.52.63l-.6.58-2.13,1.9h3.75v1.9Z" fill="#0c689c"/>
          <path id="パス_2302" data-name="パス 2302" d="M165.15,101.68a2.69,2.69,0,0,1-.29,1.27,2.63,2.63,0,0,1-.76.9,3.355,3.355,0,0,1-1.09.53,4.839,4.839,0,0,1-1.3.17,4.428,4.428,0,0,1-1.31-.17,3.394,3.394,0,0,1-1.1-.53,2.519,2.519,0,0,1-.76-.89,2.666,2.666,0,0,1-.29-1.27,2.293,2.293,0,0,1,.13-.77,1.994,1.994,0,0,1,.36-.64,3,3,0,0,1,.52-.48,2.652,2.652,0,0,1,.64-.3h0a2.238,2.238,0,0,1-1-.72,1.926,1.926,0,0,1-.4-1.27,2.346,2.346,0,0,1,.26-1.13,2.5,2.5,0,0,1,.7-.82,3.08,3.08,0,0,1,1-.5,4.23,4.23,0,0,1,1.22-.17,4.572,4.572,0,0,1,1.22.16,3.3,3.3,0,0,1,1,.49,2.521,2.521,0,0,1,.71.81,2.323,2.323,0,0,1,.26,1.13,2.034,2.034,0,0,1-1.39,2.01h0a2.494,2.494,0,0,1,.64.3,2.372,2.372,0,0,1,.52.48,2.461,2.461,0,0,1,.35.64A2.543,2.543,0,0,1,165.15,101.68ZM163,101.6a1.19,1.19,0,0,0-.36-.89,1.37,1.37,0,0,0-1.84,0,1.231,1.231,0,0,0-.36.9,1.11,1.11,0,0,0,.36.89,1.252,1.252,0,0,0,.92.33,1.269,1.269,0,0,0,.93-.33,1.152,1.152,0,0,0,.35-.89Zm-.17-4a.941.941,0,0,0-.33-.75,1.077,1.077,0,0,0-.78-.3,1.028,1.028,0,0,0-1.09,1.05,1.149,1.149,0,0,0,.29.77,1,1,0,0,0,.8.32,1.089,1.089,0,0,0,.8-.32A1.122,1.122,0,0,0,162.83,97.6Z" fill="#0c689c"/>
        </g>
      </g>
      <g id="グループ_3648" data-name="グループ 3648">
        <circle id="楕円形_308" data-name="楕円形 308" cx="12.35" cy="12.35" r="12.35" transform="translate(108.77 51.3)" fill="#fff" stroke="#d1dde9" stroke-miterlimit="10" stroke-width="1"/>
        <g id="グループ_3610" data-name="グループ 3610">
          <g id="グループ_3609" data-name="グループ 3609">
            <path id="パス_2303" data-name="パス 2303" d="M121.37,65.58a2.67,2.67,0,0,1-.3,1.3,2.8,2.8,0,0,1-.8.91,3.551,3.551,0,0,1-1.11.53,4.832,4.832,0,0,1-1.26.17,5.539,5.539,0,0,1-1.21-.14,3.909,3.909,0,0,1-1.08-.44,2.908,2.908,0,0,1-.85-.75,3.307,3.307,0,0,1-.55-1.11l2-.54a1.573,1.573,0,0,0,.53.8,1.55,1.55,0,0,0,1,.35,1.589,1.589,0,0,0,.48-.07,1,1,0,0,0,.42-.2A1.069,1.069,0,0,0,119,66a1.154,1.154,0,0,0,.12-.55,1,1,0,0,0-.16-.58,1.091,1.091,0,0,0-.43-.37,1.847,1.847,0,0,0-.6-.2,3.872,3.872,0,0,0-.68-.06h-.58V62.69h.63a3.755,3.755,0,0,0,.6,0,1.866,1.866,0,0,0,.52-.17,1,1,0,0,0,.36-.34.944.944,0,0,0,.14-.55.879.879,0,0,0-.35-.75,1.284,1.284,0,0,0-2.07.75l-2-.47a3.252,3.252,0,0,1,.51-1,3.071,3.071,0,0,1,.8-.72,3.676,3.676,0,0,1,1-.45,4.166,4.166,0,0,1,1.11-.15,4.274,4.274,0,0,1,1.19.16,3.186,3.186,0,0,1,1,.48,2.507,2.507,0,0,1,.73.82,2.2,2.2,0,0,1,.28,1.15,1.941,1.941,0,0,1-.43,1.29,2.123,2.123,0,0,1-1.12.71h0a2.542,2.542,0,0,1,.72.29,2.317,2.317,0,0,1,.56.48,2.192,2.192,0,0,1,.36.63A1.837,1.837,0,0,1,121.37,65.58Z" fill="#0c689c"/>
            <path id="パス_2304" data-name="パス 2304" d="M125.86,68.25V61.49l-1.71,1.33L123,61.27l3-2.22h2v9.2Z" fill="#0c689c"/>
          </g>
        </g>
      </g>
      <g id="グループ_3612" data-name="グループ 3612">
        <g id="グループ_3611" data-name="グループ 3611">
          <path id="パス_2305" data-name="パス 2305" d="M224.43,17.45V10.69L222.71,12l-1.13-1.55,3-2.22h2v9.2Z" fill="#0c689c"/>
          <path id="パス_2306" data-name="パス 2306" d="M236.79,14.82a2.666,2.666,0,0,1-.29,1.27,2.729,2.729,0,0,1-.75.9,3.1,3.1,0,0,1-1.1.53,4.821,4.821,0,0,1-2.61,0,3.172,3.172,0,0,1-1.1-.52,2.588,2.588,0,0,1-.76-.89,2.69,2.69,0,0,1-.29-1.27,2.221,2.221,0,0,1,.13-.77,1.919,1.919,0,0,1,.36-.64,2.551,2.551,0,0,1,1.16-.79h0a2.238,2.238,0,0,1-1-.72,2,2,0,0,1-.4-1.27,2.6,2.6,0,0,1,.26-1.13,2.5,2.5,0,0,1,.7-.82,3.08,3.08,0,0,1,1-.5,4.243,4.243,0,0,1,1.25-.2,4.572,4.572,0,0,1,1.22.16,3.3,3.3,0,0,1,1,.49,2.533,2.533,0,0,1,.71.81,2.323,2.323,0,0,1,.26,1.13,2,2,0,0,1-1.4,2h0a2.34,2.34,0,0,1,.64.3,2.42,2.42,0,0,1,.52.49,2.175,2.175,0,0,1,.35.63A2.455,2.455,0,0,1,236.79,14.82Zm-2.17-.07a1.21,1.21,0,0,0-.36-.9,1.19,1.19,0,0,0-.91-.35,1.233,1.233,0,0,0-.93.35,1.2,1.2,0,0,0-.36.9,1.117,1.117,0,0,0,.36.89,1.3,1.3,0,0,0,.93.33,1.252,1.252,0,0,0,.92-.33A1.161,1.161,0,0,0,234.62,14.75Zm-.17-4a1,1,0,0,0-.32-.76,1.142,1.142,0,0,0-.78-.3,1.108,1.108,0,0,0-.8.3,1,1,0,0,0-.3.76,1.09,1.09,0,0,0,1.888.762l0,0a1.092,1.092,0,0,0,.31-.77Z" fill="#0c689c"/>
        </g>
      </g>
      <g id="グループ_3614" data-name="グループ 3614">
        <g id="グループ_3613" data-name="グループ 3613">
          <path id="パス_2307" data-name="パス 2307" d="M336.5,65.58a2.67,2.67,0,0,1-.3,1.3,3,3,0,0,1-.8.91,3.663,3.663,0,0,1-1.11.53,4.832,4.832,0,0,1-1.26.17,5.419,5.419,0,0,1-1.21-.14,3.767,3.767,0,0,1-1.08-.44,2.908,2.908,0,0,1-.85-.75,3.114,3.114,0,0,1-.55-1.11l2-.54a1.573,1.573,0,0,0,.53.8,1.532,1.532,0,0,0,1,.35,1.5,1.5,0,0,0,.47-.07,1.155,1.155,0,0,0,.74-.55,1.169,1.169,0,0,0,.13-.55,1.06,1.06,0,0,0-.16-.58,1.084,1.084,0,0,0-.43-.37,1.9,1.9,0,0,0-.61-.2,3.761,3.761,0,0,0-.67-.06h-.59V62.69h.64a4,4,0,0,0,.6,0,1.792,1.792,0,0,0,.51-.17,1.086,1.086,0,0,0,.37-.34,1,1,0,0,0,.13-.55.849.849,0,0,0-.35-.75,1.284,1.284,0,0,0-2.07.75l-2-.47a3.275,3.275,0,0,1,.51-1,3.071,3.071,0,0,1,.8-.72,3.676,3.676,0,0,1,1-.45,4.2,4.2,0,0,1,1.12-.15,4.35,4.35,0,0,1,1.19.16,3.231,3.231,0,0,1,1,.48,2.5,2.5,0,0,1,.73.82,2.192,2.192,0,0,1,.28,1.15,1.941,1.941,0,0,1-.43,1.29,2.134,2.134,0,0,1-1.11.71h0a2.6,2.6,0,0,1,.71.29,2.318,2.318,0,0,1,.56.48,2.953,2.953,0,0,1,.56,1.36Z" fill="#0c689c"/>
          <path id="パス_2308" data-name="パス 2308" d="M341,68.25V61.49l-1.72,1.33-1.13-1.55,3-2.22h2v9.2Z" fill="#0c689c"/>
        </g>
      </g>
      <g id="グループ_3616" data-name="グループ 3616">
        <g id="グループ_3615" data-name="グループ 3615">
          <path id="パス_2309" data-name="パス 2309" d="M293.49,104.43v-1.82l3.59-3.24a3.168,3.168,0,0,0,.54-.67,1.389,1.389,0,0,0,.21-.75,1.079,1.079,0,0,0-.31-.8,1.169,1.169,0,0,0-.83-.3,1.119,1.119,0,0,0-.89.39,1.622,1.622,0,0,0-.41,1l-2.1-.28a3.378,3.378,0,0,1,.39-1.25,3.177,3.177,0,0,1,.77-.94,3.388,3.388,0,0,1,1.07-.59,4.343,4.343,0,0,1,1.28-.2,4.683,4.683,0,0,1,1.24.17,3.284,3.284,0,0,1,1.06.52,2.571,2.571,0,0,1,1.03,2.13,2.75,2.75,0,0,1-.49,1.63,3.494,3.494,0,0,1-.52.63c-.19.19-.39.39-.6.58l-2.13,1.9h3.75v1.9Z" fill="#0c689c"/>
          <path id="パス_2310" data-name="パス 2310" d="M305,104.43h-2.54l3.74-7.33h-4.36V95.22h6.68V97Z" fill="#0c689c"/>
        </g>
      </g>
      <g id="グループ_3618" data-name="グループ 3618">
        <g id="グループ_3617" data-name="グループ 3617">
          <path id="パス_2311" data-name="パス 2311" d="M361.13,235.77v1.79h-2v-1.79h-4.32v-1.83l3.74-5.58h2.62V234h1.27v1.77Zm-2-5.17h0l-2.19,3.4h2.23Z" fill="#0c689c"/>
        </g>
      </g>
      <g id="グループ_3620" data-name="グループ 3620">
        <g id="グループ_3619" data-name="グループ 3619">
          <path id="パス_2312" data-name="パス 2312" d="M407.41,216.29a2.572,2.572,0,0,1-.31,1.3,2.7,2.7,0,0,1-.8.91,3.444,3.444,0,0,1-1.11.53,4.445,4.445,0,0,1-1.25.18,5.019,5.019,0,0,1-1.22-.15,3.854,3.854,0,0,1-1.08-.43,3.085,3.085,0,0,1-.85-.76,3.216,3.216,0,0,1-.55-1.11l2-.53a1.682,1.682,0,0,0,.54.8,1.453,1.453,0,0,0,1,.34,1.991,1.991,0,0,0,.48-.06,1.4,1.4,0,0,0,.43-.2,1.065,1.065,0,0,0,.31-.36,1.216,1.216,0,0,0-.04-1.13,1.19,1.19,0,0,0-.43-.37,2.12,2.12,0,0,0-.6-.2,3.871,3.871,0,0,0-.68-.06h-.58v-1.58h.64a4.006,4.006,0,0,0,.6,0,1.339,1.339,0,0,0,.51-.17.924.924,0,0,0,.5-.88.87.87,0,0,0-.35-.76,1.309,1.309,0,0,0-.81-.26,1.209,1.209,0,0,0-.81.28,1.3,1.3,0,0,0-.45.75l-2-.47a3.167,3.167,0,0,1,.51-1,2.933,2.933,0,0,1,.8-.73,3.363,3.363,0,0,1,1-.44,4.2,4.2,0,0,1,1.12-.15,4.781,4.781,0,0,1,1.19.15,3.056,3.056,0,0,1,1,.49,2.464,2.464,0,0,1,.73.81,2.192,2.192,0,0,1,.28,1.15,2,2,0,0,1-.43,1.3,2.134,2.134,0,0,1-1.11.71h0a2.6,2.6,0,0,1,.71.29,2.317,2.317,0,0,1,.56.48,2,2,0,0,1,.49,1.36Z" fill="#0c689c"/>
          <path id="パス_2313" data-name="パス 2313" d="M415.81,216.29a2.639,2.639,0,0,1-1.11,2.21,3.55,3.55,0,0,1-1.11.53,4.443,4.443,0,0,1-1.26.18,4.988,4.988,0,0,1-1.21-.15,3.854,3.854,0,0,1-1.08-.43,2.941,2.941,0,0,1-.85-.76,3,3,0,0,1-.55-1.11l2-.53a1.658,1.658,0,0,0,.53.8,1.486,1.486,0,0,0,1,.34,1.858,1.858,0,0,0,.47-.06,1.32,1.32,0,0,0,.43-.2,1.03,1.03,0,0,0,.44-.9.993.993,0,0,0-.16-.59,1.19,1.19,0,0,0-.43-.37,2.491,2.491,0,0,0-.6-.2,3.871,3.871,0,0,0-.68-.06h-.58v-1.58h.63a4.006,4.006,0,0,0,.6,0,1.368,1.368,0,0,0,.52-.17.924.924,0,0,0,.5-.88.92.92,0,0,0-.35-.76,1.332,1.332,0,0,0-.81-.26,1.209,1.209,0,0,0-.81.28,1.3,1.3,0,0,0-.45.75l-2-.47a3.017,3.017,0,0,1,.51-1,2.933,2.933,0,0,1,.8-.73,3.363,3.363,0,0,1,1-.44,4.166,4.166,0,0,1,1.11-.15,4.688,4.688,0,0,1,1.19.15,3.222,3.222,0,0,1,1,.49,2.465,2.465,0,0,1,.73.81,2.2,2.2,0,0,1,.28,1.15,2,2,0,0,1-.43,1.3,2.123,2.123,0,0,1-1.12.71h0a2.53,2.53,0,0,1,.72.29,2.317,2.317,0,0,1,.56.48,2.192,2.192,0,0,1,.36.63A2,2,0,0,1,415.81,216.29Z" fill="#0c689c"/>
        </g>
      </g>
      <g id="グループ_3622" data-name="グループ 3622">
        <g id="グループ_3621" data-name="グループ 3621">
          <path id="パス_2314" data-name="パス 2314" d="M444.61,215.54a2.572,2.572,0,0,1-.31,1.3,2.7,2.7,0,0,1-.8.91,3.444,3.444,0,0,1-1.11.53,4.445,4.445,0,0,1-1.25.18,5.019,5.019,0,0,1-1.22-.15,3.854,3.854,0,0,1-1.08-.43,3.229,3.229,0,0,1-.85-.76,3,3,0,0,1-.54-1.11l2-.53a1.682,1.682,0,0,0,.54.8,1.474,1.474,0,0,0,1,.34,1.991,1.991,0,0,0,.48-.06,1.4,1.4,0,0,0,.43-.2,1.192,1.192,0,0,0,.31-.36,1.22,1.22,0,0,0,0-1.13,1.19,1.19,0,0,0-.43-.37,2.12,2.12,0,0,0-.6-.2,3.871,3.871,0,0,0-.68-.06h-.58v-1.58h.63a4.006,4.006,0,0,0,.6,0,2.032,2.032,0,0,0,.52-.17,1.056,1.056,0,0,0,.36-.34,1,1,0,0,0,.14-.55.9.9,0,0,0-.35-.75,1.337,1.337,0,0,0-.81-.27,1.3,1.3,0,0,0-.81.28,1.28,1.28,0,0,0-.45.75l-2-.47a2.882,2.882,0,0,1,.51-1,3.126,3.126,0,0,1,.8-.73,4.058,4.058,0,0,1,1-.44,4.239,4.239,0,0,1,1.12-.15,4.349,4.349,0,0,1,1.19.16,3.23,3.23,0,0,1,1,.48,2.384,2.384,0,0,1,.74.81,2.346,2.346,0,0,1,.28,1.16,2,2,0,0,1-.44,1.3,2.176,2.176,0,0,1-1.11.71h0a2.384,2.384,0,0,1,.72.3,2.1,2.1,0,0,1,.55.48,2.033,2.033,0,0,1,.5,1.32Z" fill="#0c689c"/>
          <path id="パス_2315" data-name="パス 2315" d="M446.31,218.21V216.4l3.59-3.25a3.514,3.514,0,0,0,.55-.66,1.341,1.341,0,0,0,.2-.75,1,1,0,0,0-.31-.8,1.1,1.1,0,0,0-.83-.3,1.139,1.139,0,0,0-.89.38,1.782,1.782,0,0,0-.41,1l-2.09-.29a3.206,3.206,0,0,1,2.23-2.77,3.947,3.947,0,0,1,1.28-.2,4.6,4.6,0,0,1,1.23.17,2.993,2.993,0,0,1,1.07.52,2.649,2.649,0,0,1,.75.88,2.716,2.716,0,0,1,.27,1.25,2.469,2.469,0,0,1-.13.89,3,3,0,0,1-.35.74,5.058,5.058,0,0,1-.52.63l-.61.57-2.13,1.9H453v1.9Z" fill="#0c689c"/>
        </g>
      </g>
      <g id="グループ_3624" data-name="グループ 3624">
        <g id="グループ_3623" data-name="グループ 3623">
          <path id="パス_2316" data-name="パス 2316" d="M338.79,324.27v-1.82l3.59-3.24a3.862,3.862,0,0,0,.55-.66,1.341,1.341,0,0,0,.2-.75,1,1,0,0,0-.31-.8,1.1,1.1,0,0,0-.83-.3,1.079,1.079,0,0,0-.89.38,1.782,1.782,0,0,0-.41,1l-2.09-.29a3.239,3.239,0,0,1,.38-1.25,3.285,3.285,0,0,1,.77-.93,3.088,3.088,0,0,1,1.08-.59,3.692,3.692,0,0,1,1.28-.2,3.94,3.94,0,0,1,1.23.17,2.993,2.993,0,0,1,1.07.52,2.546,2.546,0,0,1,.75.88,2.678,2.678,0,0,1,.27,1.25,2.49,2.49,0,0,1-.13.89,2.9,2.9,0,0,1-.35.73,4.024,4.024,0,0,1-.52.63l-.6.58-2.13,1.9h3.75v1.9Z" fill="#0c689c"/>
          <path id="パス_2317" data-name="パス 2317" d="M353.87,321.23a3.354,3.354,0,0,1-.3,1.46,2.862,2.862,0,0,1-.8,1,3.3,3.3,0,0,1-1.14.6,4.129,4.129,0,0,1-1.31.2,4.349,4.349,0,0,1-1.19-.16,3.976,3.976,0,0,1-1-.46,3.251,3.251,0,0,1-.79-.74,2.906,2.906,0,0,1-.49-1l2-.61a1.512,1.512,0,0,0,.54.79,1.55,1.55,0,0,0,1.91,0,1.19,1.19,0,0,0,.41-1,1.257,1.257,0,0,0-.17-.68,1.182,1.182,0,0,0-.43-.43,1.9,1.9,0,0,0-.6-.23,3.98,3.98,0,0,0-.68-.07,7.029,7.029,0,0,0-1.12.12,6.209,6.209,0,0,0-1.13.29l.22-5.27h5.64v1.87h-3.7l-.08,1.46a2.472,2.472,0,0,1,.46-.07h.47a4.838,4.838,0,0,1,1.3.18,3,3,0,0,1,1,.55,2.538,2.538,0,0,1,.71.92A3.007,3.007,0,0,1,353.87,321.23Z" fill="#0c689c"/>
        </g>
      </g>
      <g id="グループ_3626" data-name="グループ 3626">
        <g id="グループ_3625" data-name="グループ 3625">
          <path id="パス_2318" data-name="パス 2318" d="M301.64,336.62v-6.76l-1.72,1.32-1.13-1.54,3-2.23h2v9.2Z" fill="#0c689c"/>
          <path id="パス_2319" data-name="パス 2319" d="M310.33,336.62H307.8l3.73-7.34h-4.36v-1.87h6.68v1.75Z" fill="#0c689c"/>
        </g>
      </g>
      <g id="グループ_3628" data-name="グループ 3628">
        <g id="グループ_3627" data-name="グループ 3627">
          <path id="パス_2320" data-name="パス 2320" d="M316.39,373.89v-1.82l3.59-3.24a3.358,3.358,0,0,0,.54-.66,1.437,1.437,0,0,0,.21-.75,1.079,1.079,0,0,0-.31-.8,1.25,1.25,0,0,0-1.72.07,1.742,1.742,0,0,0-.41,1l-2.1-.28a3.378,3.378,0,0,1,.39-1.25,3.177,3.177,0,0,1,.77-.94,3.387,3.387,0,0,1,1.07-.59,4,4,0,0,1,1.28-.2,4.683,4.683,0,0,1,1.24.17,3.334,3.334,0,0,1,1.07.52,2.562,2.562,0,0,1,1,2.13,2.687,2.687,0,0,1-.13.89,2.658,2.658,0,0,1-.36.74,4.3,4.3,0,0,1-.52.63l-.6.58-2.13,1.9h3.76v1.9Z" fill="#0c689c"/>
          <path id="パス_2321" data-name="パス 2321" d="M330.6,372.1v1.79h-2V372.1h-4.33v-1.84l3.74-5.57h2.62v5.64h1.27v1.77Zm-2-5.18h0l-2.18,3.41h2.22Z" fill="#0c689c"/>
        </g>
      </g>
      <g id="グループ_3630" data-name="グループ 3630">
        <g id="グループ_3629" data-name="グループ 3629">
          <path id="パス_2322" data-name="パス 2322" d="M372.92,371.55a3.392,3.392,0,0,1-.29,1.4,3,3,0,0,1-.78,1.05,3.466,3.466,0,0,1-1.15.66,4.415,4.415,0,0,1-2.81,0,3.476,3.476,0,0,1-1.15-.66,3.1,3.1,0,0,1-.78-1,3.186,3.186,0,0,1-.28-1.36,3.787,3.787,0,0,1,.28-1.49,9.878,9.878,0,0,1,.74-1.36l2.22-3.31h2.64l-2.26,3.14v.07a1.074,1.074,0,0,1,.31-.08,1.935,1.935,0,0,1,.34,0,3.043,3.043,0,0,1,1.15.22,2.8,2.8,0,0,1,1,.61,2.993,2.993,0,0,1,.65.95A3.09,3.09,0,0,1,372.92,371.55Zm-2.17.05a1.46,1.46,0,0,0-.39-1,1.388,1.388,0,0,0-1.05-.41,1.439,1.439,0,0,0-1.06.4,1.41,1.41,0,0,0-.4,1.05,1.551,1.551,0,0,0,.39,1,1.371,1.371,0,0,0,1.06.43,1.41,1.41,0,0,0,1.05-.4,1.46,1.46,0,0,0,.4-1.07Z" fill="#0c689c"/>
        </g>
      </g>
      <g id="グループ_3632" data-name="グループ 3632">
        <g id="グループ_3631" data-name="グループ 3631">
          <path id="パス_2323" data-name="パス 2323" d="M339.92,429.83v-6.77l-1.72,1.33-1.13-1.55,3-2.22h2v9.2Z" fill="#0c689c"/>
          <path id="パス_2324" data-name="パス 2324" d="M348.61,429.83h-2.53l3.73-7.34h-4.36v-1.87h6.69v1.74Z" fill="#0c689c"/>
        </g>
      </g>
      <g id="グループ_3634" data-name="グループ 3634">
        <g id="グループ_3633" data-name="グループ 3633">
          <path id="パス_2325" data-name="パス 2325" d="M311.62,472.13v-1.82l3.59-3.24a3.168,3.168,0,0,0,.54-.67,1.312,1.312,0,0,0,.21-.75,1,1,0,0,0-.31-.8,1.262,1.262,0,0,0-1.72.08,1.711,1.711,0,0,0-.41,1l-2.1-.29a3.441,3.441,0,0,1,.39-1.25,3.286,3.286,0,0,1,.77-.93,3.388,3.388,0,0,1,1.07-.59,3.772,3.772,0,0,1,1.29-.2,4.3,4.3,0,0,1,1.23.17,2.993,2.993,0,0,1,1.07.52,2.422,2.422,0,0,1,.74.88,2.608,2.608,0,0,1,.28,1.25,2.838,2.838,0,0,1-.48,1.62,4.545,4.545,0,0,1-.52.63l-.6.58-2.14,1.9h3.76v1.9Z" fill="#0c689c"/>
          <path id="パス_2326" data-name="パス 2326" d="M325.83,470.33v1.8h-2v-1.8H319.5V468.5l3.74-5.58h2.62v5.64h1.27v1.77Zm-2-5.17h0l-2.18,3.4h2.22Z" fill="#0c689c"/>
        </g>
      </g>
      <g id="グループ_3636" data-name="グループ 3636">
        <g id="グループ_3635" data-name="グループ 3635">
          <path id="パス_2327" data-name="パス 2327" d="M369.75,469.38a2.69,2.69,0,0,1-.29,1.27,2.726,2.726,0,0,1-.76.9,3.394,3.394,0,0,1-1.1.53,4.717,4.717,0,0,1-1.3.17,4.5,4.5,0,0,1-1.31-.17,3.5,3.5,0,0,1-1.1-.53,2.548,2.548,0,0,1-1.04-2.16,1.985,1.985,0,0,1,.13-.77,2.242,2.242,0,0,1,.35-.64,2.982,2.982,0,0,1,.53-.48,2.494,2.494,0,0,1,.64-.3h0a2.19,2.19,0,0,1-1-.72,1.928,1.928,0,0,1-.4-1.27,2.346,2.346,0,0,1,.26-1.13,2.5,2.5,0,0,1,.7-.82,3.13,3.13,0,0,1,1-.5,4.234,4.234,0,0,1,1.23-.17,4.494,4.494,0,0,1,1.21.16,3.117,3.117,0,0,1,1,.49,2.306,2.306,0,0,1,.71.81,2.33,2.33,0,0,1,.27,1.13,2.08,2.08,0,0,1-.39,1.28,2,2,0,0,1-1,.73h0a2.557,2.557,0,0,1,.65.3,2.135,2.135,0,0,1,.51.48,2.242,2.242,0,0,1,.35.64A2.281,2.281,0,0,1,369.75,469.38Zm-2.17-.08a1.19,1.19,0,0,0-.36-.89,1.262,1.262,0,0,0-.92-.36,1.292,1.292,0,0,0-.93.35,1.179,1.179,0,0,0-.35.9,1.128,1.128,0,0,0,.35.89,1.44,1.44,0,0,0,1.86,0,1.18,1.18,0,0,0,.35-.89Zm-.17-4a.941.941,0,0,0-.33-.75,1.076,1.076,0,0,0-.78-.3,1.028,1.028,0,0,0-1.09,1.05,1.149,1.149,0,0,0,.29.77,1,1,0,0,0,.8.32,1.089,1.089,0,0,0,.8-.32,1.128,1.128,0,0,0,.31-.78Z" fill="#0c689c"/>
        </g>
      </g>
      <g id="グループ_3638" data-name="グループ 3638">
        <g id="グループ_3637" data-name="グループ 3637">
          <path id="パス_2328" data-name="パス 2328" d="M406.48,544a2.568,2.568,0,0,1-.3,1.3,2.8,2.8,0,0,1-.8.91,3.55,3.55,0,0,1-1.11.53,4.441,4.441,0,0,1-1.26.18,5.037,5.037,0,0,1-1.21-.15,3.486,3.486,0,0,1-1.08-.43,3.051,3.051,0,0,1-.85-.75,3.159,3.159,0,0,1-.55-1.12l2-.53a1.665,1.665,0,0,0,.53.8,1.486,1.486,0,0,0,1,.34,1.859,1.859,0,0,0,.47-.06,1.321,1.321,0,0,0,.43-.2,1.225,1.225,0,0,0,.32-.36,1.245,1.245,0,0,0,.12-.54.993.993,0,0,0-.16-.59,1.19,1.19,0,0,0-.43-.37,2.184,2.184,0,0,0-.6-.19,3.868,3.868,0,0,0-.68-.06h-.58V541.1h.63a3.017,3.017,0,0,0,.6-.05,1.368,1.368,0,0,0,.52-.17.924.924,0,0,0,.5-.88.929.929,0,0,0-.35-.76,1.391,1.391,0,0,0-.81-.26,1.251,1.251,0,0,0-.81.28,1.329,1.329,0,0,0-.45.75l-2-.47a3.018,3.018,0,0,1,.51-1,3.128,3.128,0,0,1,.8-.73,4.059,4.059,0,0,1,1-.44,4.281,4.281,0,0,1,1.12-.15,4.35,4.35,0,0,1,1.19.16,3.155,3.155,0,0,1,1,.48,2.465,2.465,0,0,1,.73.81,2.331,2.331,0,0,1,.28,1.15,2,2,0,0,1-.44,1.3,2.058,2.058,0,0,1-1.11.71h0a2.385,2.385,0,0,1,.72.3,2.129,2.129,0,0,1,.56.48,2.007,2.007,0,0,1,.36.62A1.8,1.8,0,0,1,406.48,544Z" fill="#0c689c"/>
          <path id="パス_2329" data-name="パス 2329" d="M414.87,543.61a3.369,3.369,0,0,1-.3,1.47,3,3,0,0,1-.8,1,3.457,3.457,0,0,1-1.14.6,4.441,4.441,0,0,1-1.31.2,4.777,4.777,0,0,1-1.19-.16,4.025,4.025,0,0,1-1-.47,3,3,0,0,1-.79-.73,3.117,3.117,0,0,1-.49-1l2-.61a1.547,1.547,0,0,0,.54.79,1.47,1.47,0,0,0,.95.31,1.406,1.406,0,0,0,1-.34,1.19,1.19,0,0,0,.41-1,1.26,1.26,0,0,0-.6-1.11,1.9,1.9,0,0,0-.6-.23,3.868,3.868,0,0,0-.68-.06,6.1,6.1,0,0,0-1.12.11,6.378,6.378,0,0,0-1.13.29l.23-5.26h5.64v1.87h-3.7l-.08,1.46a2.315,2.315,0,0,1,.46-.07,3.934,3.934,0,0,1,.46,0,4.09,4.09,0,0,1,1.3.18,2.983,2.983,0,0,1,1.06.55,2.686,2.686,0,0,1,.71.92A2.922,2.922,0,0,1,414.87,543.61Z" fill="#0c689c"/>
        </g>
      </g>
      <g id="グループ_3640" data-name="グループ 3640">
        <g id="グループ_3639" data-name="グループ 3639">
          <path id="パス_2330" data-name="パス 2330" d="M356.25,587v-6.76l-1.72,1.33L353.4,580l3-2.22h2V587Z" fill="#0c689c"/>
          <path id="パス_2331" data-name="パス 2331" d="M368.77,582.39a8.878,8.878,0,0,1-.2,1.86,4.558,4.558,0,0,1-.62,1.55,3.247,3.247,0,0,1-1.11,1.07,3.208,3.208,0,0,1-1.66.4,3.129,3.129,0,0,1-2.79-1.47,4.56,4.56,0,0,1-.63-1.55,9.161,9.161,0,0,1,0-3.71,4.387,4.387,0,0,1,.63-1.53,3.211,3.211,0,0,1,1.12-1,3.37,3.37,0,0,1,1.67-.39,3.3,3.3,0,0,1,1.66.39,3.172,3.172,0,0,1,1.11,1,4.376,4.376,0,0,1,.62,1.53A8.281,8.281,0,0,1,368.77,582.39Zm-2.23,0a8.374,8.374,0,0,0-.06-.95,4.666,4.666,0,0,0-.2-1,2.183,2.183,0,0,0-.4-.75,1,1,0,0,0-1.41,0,2.23,2.23,0,0,0-.42.75,4.666,4.666,0,0,0-.2,1c0,.35-.05.67-.05.95a7.4,7.4,0,0,0,.05,1,4.548,4.548,0,0,0,.2,1,2.182,2.182,0,0,0,.42.76,1,1,0,0,0,.7.31.92.92,0,0,0,.71-.31,2.12,2.12,0,0,0,.4-.76,4.548,4.548,0,0,0,.2-1v-1Z" fill="#0c689c"/>
        </g>
      </g>
      <g id="グループ_3642" data-name="グループ 3642">
        <g id="グループ_3641" data-name="グループ 3641">
          <path id="パス_2332" data-name="パス 2332" d="M444.93,544.31a2.675,2.675,0,0,1-.3,1.31,2.8,2.8,0,0,1-.8.91,3.663,3.663,0,0,1-1.11.53,4.7,4.7,0,0,1-2.47,0,3.727,3.727,0,0,1-1.08-.43,3.14,3.14,0,0,1-1.4-1.87l2-.53a1.659,1.659,0,0,0,.53.8,1.532,1.532,0,0,0,1,.34,1.859,1.859,0,0,0,.47-.06,1.318,1.318,0,0,0,.43-.2,1.064,1.064,0,0,0,.31-.36,1.17,1.17,0,0,0,.13-.55,1,1,0,0,0-.17-.58,1.078,1.078,0,0,0-.42-.37,2.221,2.221,0,0,0-.6-.2,3.874,3.874,0,0,0-.68-.06h-.58v-1.58h.63a4,4,0,0,0,.6-.05,1.448,1.448,0,0,0,.52-.17,1.009,1.009,0,0,0,.36-.33,1.068,1.068,0,0,0,.14-.55.92.92,0,0,0-.35-.76,1.333,1.333,0,0,0-.81-.26,1.2,1.2,0,0,0-.81.28,1.254,1.254,0,0,0-.45.75l-2-.47a2.808,2.808,0,0,1,.51-1,2.934,2.934,0,0,1,.8-.73,3.427,3.427,0,0,1,1-.44,4.241,4.241,0,0,1,1.12-.15,4.781,4.781,0,0,1,1.19.15,3.067,3.067,0,0,1,1,.49,2.4,2.4,0,0,1,.74.81,2.3,2.3,0,0,1,.28,1.15,2,2,0,0,1-.44,1.3,2.118,2.118,0,0,1-1.11.71h0a2.13,2.13,0,0,1,.72.29,2.1,2.1,0,0,1,.55.48,1.864,1.864,0,0,1,.37.62A2.276,2.276,0,0,1,444.93,544.31Z" fill="#0c689c"/>
          <path id="パス_2333" data-name="パス 2333" d="M446.63,547v-1.82l3.59-3.24a3.17,3.17,0,0,0,.54-.67,1.31,1.31,0,0,0,.21-.75,1.079,1.079,0,0,0-.31-.8,1.17,1.17,0,0,0-.83-.3,1.139,1.139,0,0,0-.89.38,1.742,1.742,0,0,0-.41,1l-2.1-.28a3.377,3.377,0,0,1,.39-1.25,3.341,3.341,0,0,1,.77-.94,3.387,3.387,0,0,1,1.07-.59,4.34,4.34,0,0,1,1.29-.2,4.691,4.691,0,0,1,1.23.17,3.313,3.313,0,0,1,1.07.52,2.643,2.643,0,0,1,.74.89,2.543,2.543,0,0,1,.28,1.24,2.749,2.749,0,0,1-.13.9,3.087,3.087,0,0,1-.35.73,4.542,4.542,0,0,1-.52.63l-.61.58-2.13,1.9h3.76V547Z" fill="#0c689c"/>
        </g>
      </g>
      <g id="グループ_3644" data-name="グループ 3644">
        <g id="グループ_3643" data-name="グループ 3643">
          <path id="パス_2334" data-name="パス 2334" d="M439.68,419.82v-6.76L438,414.39l-1.13-1.55,3-2.22h2v9.2Z" fill="#0c689c"/>
          <path id="パス_2335" data-name="パス 2335" d="M452.21,413.66a3.787,3.787,0,0,1-.28,1.49,8.481,8.481,0,0,1-.74,1.36L449,419.83h-2.64l2.29-3.18h0a1.222,1.222,0,0,1-.32.08H448a3.075,3.075,0,0,1-1.16-.22,2.879,2.879,0,0,1-1.91-2.79,3.391,3.391,0,0,1,.29-1.4,3.1,3.1,0,0,1,.78-1.05,3.665,3.665,0,0,1,1.15-.66,4.19,4.19,0,0,1,1.4-.22,4.31,4.31,0,0,1,1.42.22,3.665,3.665,0,0,1,1.15.66,3.11,3.11,0,0,1,1,2.4Zm-2.17,0a1.54,1.54,0,0,0-.38-1,1.34,1.34,0,0,0-1.05-.43,1.419,1.419,0,0,0-1.07.41,1.5,1.5,0,0,0-.4,1.07,1.423,1.423,0,0,0,.4,1,1.348,1.348,0,0,0,1,.41,1.447,1.447,0,0,0,1.06-.4,1.42,1.42,0,0,0,.4-1.06Z" fill="#0c689c"/>
        </g>
      </g>
      <g id="グループ_3646" data-name="グループ 3646">
        <g id="グループ_3645" data-name="グループ 3645">
          <path id="パス_2336" data-name="パス 2336" d="M408.28,399.41v-6.76L406.56,394l-1.13-1.55,3-2.22h2v9.2Z" fill="#0c689c"/>
          <path id="パス_2337" data-name="パス 2337" d="M413.88,399.41v-1.82l3.59-3.24a3.863,3.863,0,0,0,.55-.66,1.439,1.439,0,0,0,.2-.76,1.071,1.071,0,0,0-.31-.8,1.178,1.178,0,0,0-.83-.3,1.119,1.119,0,0,0-.89.39,1.683,1.683,0,0,0-.41,1l-2.09-.28a3.239,3.239,0,0,1,.38-1.25,3.342,3.342,0,0,1,.77-.94,3.246,3.246,0,0,1,1.08-.58,3.691,3.691,0,0,1,1.28-.2,4.259,4.259,0,0,1,1.23.16,3.45,3.45,0,0,1,1.07.52,2.6,2.6,0,0,1,1,2.14,2.686,2.686,0,0,1-.13.89,2.9,2.9,0,0,1-.35.73,4.545,4.545,0,0,1-.52.63l-.6.58-2.13,1.9h3.75v1.9Z" fill="#0c689c"/>
        </g>
      </g>
    </g>
  </g>
</svg>
