<svg xmlns="http://www.w3.org/2000/svg" width="59" height="72.49" viewBox="0 0 59 72.49">
  <g id="Group_2884" data-name="Group 2884" transform="translate(-637.609 -773.51)">
    <g id="Group_2884-2" data-name="Group 2884" transform="translate(637.609 773.51)">
      <g id="Page-1" transform="translate(9.553 9.468)">
        <circle id="Oval" cx="24.64" cy="24.64" r="24.64" transform="translate(0.167 0.166)" fill="#fff"/>
        <g id="Group_2326" data-name="Group 2326" transform="translate(0 0)" opacity="0.496" style="mix-blend-mode: multiply;isolation: isolate">
          <rect id="Rectangle_1742" data-name="Rectangle 1742" width="0.397" height="4.347" transform="translate(24.524)" fill="#4e5558"/>
          <rect id="Rectangle_1743" data-name="Rectangle 1743" width="4.347" height="0.397" transform="translate(0 24.524)" fill="#4e5558"/>
          <rect id="Rectangle_1745" data-name="Rectangle 1745" width="4.348" height="0.397" transform="translate(45.098 24.524)" fill="#4e5558"/>
          <rect id="Rectangle_1746" data-name="Rectangle 1746" width="4.348" height="0.397" transform="translate(42.301 14.368) rotate(-30.007)" fill="#4e5558"/>
          <rect id="Rectangle_1747" data-name="Rectangle 1747" width="4.348" height="0.396" transform="matrix(0.501, -0.865, 0.865, 0.501, 34.732, 6.945)" fill="#4e5558"/>
          <rect id="Rectangle_1748" data-name="Rectangle 1748" width="0.397" height="4.347" transform="translate(3.182 12.538) rotate(-59.999)" fill="#4e5558"/>
          <rect id="Rectangle_1749" data-name="Rectangle 1749" width="0.397" height="4.348" transform="translate(12.194 3.38) rotate(-29.996)" fill="#4e5558"/>
          <rect id="Rectangle_1750" data-name="Rectangle 1750" width="0.397" height="4.347" transform="matrix(0.5, -0.866, 0.866, 0.5, 42.301, 35.077)" fill="#4e5558"/>
          <rect id="Rectangle_1752" data-name="Rectangle 1752" width="4.347" height="0.396" transform="translate(3.182 36.908) rotate(-30.011)" fill="#4e5558"/>
          <g id="Group_2287" data-name="Group 2287" transform="translate(14.511 0.113)">
            <rect id="Rectangle_1754" data-name="Rectangle 1754" width="0.397" height="1.665" transform="translate(7.385 0.041) rotate(-5.983)" fill="#4e5558"/>
            <rect id="Rectangle_1755" data-name="Rectangle 1755" width="0.397" height="1.665" transform="translate(4.856 0.463) rotate(-11.976)" fill="#4e5558"/>
            <rect id="Rectangle_1756" data-name="Rectangle 1756" width="0.397" height="1.665" transform="matrix(0.951, -0.309, 0.309, 0.951, 2.385, 1.147)" fill="#4e5558"/>
            <rect id="Rectangle_1757" data-name="Rectangle 1757" width="0.397" height="1.665" transform="matrix(0.914, -0.406, 0.406, 0.914, 0, 2.084)" fill="#4e5558"/>
          </g>
          <g id="Group_2290" data-name="Group 2290" transform="translate(26.98 0.113)">
            <rect id="Rectangle_1766" data-name="Rectangle 1766" width="1.665" height="0.397" transform="translate(0 1.656) rotate(-83.948)" fill="#4e5558"/>
            <rect id="Rectangle_1767" data-name="Rectangle 1767" width="1.665" height="0.397" transform="translate(2.364 2.009) rotate(-78.047)" fill="#4e5558"/>
            <rect id="Rectangle_1768" data-name="Rectangle 1768" width="1.665" height="0.397" transform="translate(4.677 2.608) rotate(-71.988)" fill="#4e5558"/>
            <rect id="Rectangle_1769" data-name="Rectangle 1769" width="1.665" height="0.397" transform="matrix(0.406, -0.914, 0.914, 0.406, 6.916, 3.445)" fill="#4e5558"/>
          </g>
          <g id="Group_2291" data-name="Group 2291" transform="translate(0.114 26.981)">
            <rect id="Rectangle_1770" data-name="Rectangle 1770" width="1.665" height="0.397" transform="translate(0 0.173) rotate(-5.972)" fill="#4e5558"/>
            <path id="Path_1687" data-name="Path 1687" d="M658.185,872.667l-.082-.388,1.629-.346.082.388Z" transform="translate(-657.723 -869.569)" fill="#4e5558"/>
            <rect id="Rectangle_1771" data-name="Rectangle 1771" width="1.665" height="0.397" transform="translate(1.024 5.19) rotate(-17.961)" fill="#4e5558"/>
            <rect id="Rectangle_1772" data-name="Rectangle 1772" width="1.665" height="0.397" transform="matrix(0.913, -0.407, 0.407, 0.913, 1.923, 7.591)" fill="#4e5558"/>
          </g>
          <g id="Group_2292" data-name="Group 2292" transform="translate(45.726 26.98)">
            <path id="Path_1688" data-name="Path 1688" d="M826.545,864.056l-1.656-.174.042-.394,1.656.174Z" transform="translate(-822.981 -863.487)" fill="#4e5558"/>
            <path id="Path_1689" data-name="Path 1689" d="M825.111,872.667l-1.629-.346.082-.388,1.629.346Z" transform="translate(-821.968 -869.569)" fill="#4e5558"/>
            <path id="Path_1690" data-name="Path 1690" d="M822.784,881.089l-1.584-.514.122-.378,1.584.514Z" transform="translate(-820.324 -875.521)" fill="#4e5558"/>
            <rect id="Rectangle_1773" data-name="Rectangle 1773" width="0.397" height="1.665" transform="matrix(0.406, -0.914, 0.914, 0.406, 0, 7.278)" fill="#4e5558"/>
          </g>
          <g id="Group_2293" data-name="Group 2293" transform="translate(45.726 14.51)">
            <path id="Path_1691" data-name="Path 1691" d="M824.931,846.385l-.042-.395,1.656-.174.042.395Z" transform="translate(-822.981 -838.431)" fill="#4e5558"/>
            <rect id="Rectangle_1774" data-name="Rectangle 1774" width="1.665" height="0.397" transform="matrix(0.978, -0.206, 0.206, 0.978, 1.514, 5.202)" fill="#4e5558"/>
            <rect id="Rectangle_1775" data-name="Rectangle 1775" width="1.665" height="0.397" transform="translate(0.876 2.9) rotate(-17.935)" fill="#4e5558"/>
            <rect id="Rectangle_1776" data-name="Rectangle 1776" width="1.665" height="0.397" transform="matrix(0.913, -0.407, 0.407, 0.913, 0, 0.677)" fill="#4e5558"/>
          </g>
          <g id="Group_2294" data-name="Group 2294" transform="translate(4.701 4.423)">
            <rect id="Rectangle_1777" data-name="Rectangle 1777" width="0.397" height="1.665" transform="matrix(0.815, -0.58, 0.58, 0.815, 5.428, 0.23)" fill="#4e5558"/>
            <rect id="Rectangle_1778" data-name="Rectangle 1778" width="0.397" height="1.665" transform="matrix(0.75, -0.662, 0.662, 0.75, 3.432, 1.84)" fill="#4e5558"/>
            <rect id="Rectangle_1779" data-name="Rectangle 1779" width="0.397" height="1.665" transform="matrix(0.677, -0.736, 0.736, 0.677, 1.617, 3.65)" fill="#4e5558"/>
            <rect id="Rectangle_1780" data-name="Rectangle 1780" width="0.397" height="1.665" transform="matrix(0.596, -0.803, 0.803, 0.596, 0, 5.639)" fill="#4e5558"/>
          </g>
          <g id="Group_2297" data-name="Group 2297" transform="translate(38.391 4.701)">
            <rect id="Rectangle_1789" data-name="Rectangle 1789" width="1.665" height="0.397" transform="translate(5.045 6.393) rotate(-35.419)" fill="#4e5558"/>
            <rect id="Rectangle_1790" data-name="Rectangle 1790" width="1.665" height="0.397" transform="translate(3.543 4.534) rotate(-41.431)" fill="#4e5558"/>
            <rect id="Rectangle_1791" data-name="Rectangle 1791" width="1.665" height="0.397" transform="translate(1.855 2.843) rotate(-47.43)" fill="#4e5558"/>
            <rect id="Rectangle_1792" data-name="Rectangle 1792" width="1.665" height="0.397" transform="matrix(0.596, -0.803, 0.803, 0.596, 0, 1.337)" fill="#4e5558"/>
          </g>
          <g id="Group_2298" data-name="Group 2298" transform="translate(0.114 14.511)">
            <rect id="Rectangle_1793" data-name="Rectangle 1793" width="0.397" height="1.665" transform="translate(0 7.78) rotate(-83.997)" fill="#4e5558"/>
            <rect id="Rectangle_1794" data-name="Rectangle 1794" width="0.397" height="1.665" transform="translate(0.38 5.245) rotate(-78.008)" fill="#4e5558"/>
            <rect id="Rectangle_1795" data-name="Rectangle 1795" width="0.397" height="1.665" transform="matrix(0.309, -0.951, 0.951, 0.309, 1.024, 2.763)" fill="#4e5558"/>
            <rect id="Rectangle_1796" data-name="Rectangle 1796" width="0.397" height="1.665" transform="matrix(0.406, -0.914, 0.914, 0.406, 1.923, 0.363)" fill="#4e5558"/>
          </g>
        </g>
      </g>
      <path id="Subtraction_1" data-name="Subtraction 1" d="M2.978,24.723H0A24.21,24.21,0,0,1,1.975,15.1,24.616,24.616,0,0,1,7.362,7.241a25.087,25.087,0,0,1,7.99-5.3,25.387,25.387,0,0,1,27.557,5.3A24.627,24.627,0,0,1,48.295,15.1a24.221,24.221,0,0,1,1.975,9.622H47.292a21.354,21.354,0,0,0-1.741-8.483A21.691,21.691,0,0,0,40.8,9.313a22.106,22.106,0,0,0-7.042-4.671,22.575,22.575,0,0,0-17.249,0A22.111,22.111,0,0,0,9.467,9.313,21.7,21.7,0,0,0,4.719,16.24a21.355,21.355,0,0,0-1.741,8.483Z" transform="translate(0 25.135) rotate(-30)" fill="#0786bd" opacity="0.794"/>
      <g id="Polygon_56" data-name="Polygon 56" transform="translate(46.927 25.593) rotate(60)" fill="#db3394">
        <path d="M 1.45841109752655 12.8154182434082 L 0.5389013290405273 12.8154182434082 L 0.9986562132835388 6.685374736785889 L 1.45841109752655 12.8154182434082 Z" stroke="none"/>
        <path d="M 0.9986562132835388 -1.9073486328125e-06 L 1.997316241264343 13.3154182434082 L -3.814697265625e-06 13.3154182434082 L 0.9986562132835388 -1.9073486328125e-06 Z" stroke="none" fill="#db3394"/>
      </g>
      <g id="Ellipse_163" data-name="Ellipse 163" transform="translate(35.883 30.432) rotate(60)" fill="#db3394" stroke="#db3394" stroke-width="2">
        <circle cx="2.33" cy="2.33" r="2.33" stroke="none"/>
        <circle cx="2.33" cy="2.33" r="1.33" fill="none"/>
      </g>
    </g>
    <text id="_90_" data-name="90%" transform="translate(671.609 830.783)" fill="#0786bd" font-size="16" font-family="AvenirNext-Bold, Avenir Next" font-weight="700" letter-spacing="0.1em"><tspan x="-14.891" y="0">90</tspan><tspan y="0" font-size="10">%</tspan></text>
    <text id="達成" transform="translate(671.609 845)" fill="#0786bd" font-size="10" font-family="HiraginoSans-W6, Hiragino Sans" letter-spacing="0.1em"><tspan x="-10.5" y="0">達成</tspan></text>
  </g>
</svg>
