<svg xmlns="http://www.w3.org/2000/svg" width="54" height="53" viewBox="0 0 54 53">
  <g id="コンポーネント_695_1" data-name="コンポーネント 695 – 1" transform="translate(1 1)">
    <g id="長方形_3044" data-name="長方形 3044" fill="#fff" stroke="rgba(30,81,153,0.15)" stroke-width="1">
      <rect width="52" height="51" rx="25.5" stroke="none"/>
      <rect x="-0.5" y="-0.5" width="53" height="52" rx="26" fill="none"/>
    </g>
    <path id="パス_371" data-name="パス 371" d="M146.089,301.739a2.139,2.139,0,0,0-3.022,0l-2.547,2.547a2.863,2.863,0,0,1-2.821,3.357h-.009l-4.425-.013a.728.728,0,0,1,0-1.455h0l4.425.013h0a1.409,1.409,0,0,0,0-2.818l-3.063-.009a.684.684,0,0,1-.629-.364,2.56,2.56,0,0,0-2.23-.9h-.014a2.837,2.837,0,0,0-2.156.769v8.468h8.071a4.4,4.4,0,0,0,3.131-1.3l5.275-5.275a2.139,2.139,0,0,0,0-3.022Z" transform="translate(-109.059 -279.283)" fill="#88d842"/>
    <path id="パス_372" data-name="パス 372" d="M30.172,332.477a.728.728,0,0,0-.727.728v7.244a.728.728,0,0,0,.727.728h2.671v-8.7Z" transform="translate(-13.745 -309.126)" fill="#88d842"/>
    <path id="パス_373" data-name="パス 373" d="M125.406,0a6.842,6.842,0,1,0,6.842,6.842A6.85,6.85,0,0,0,125.406,0Zm2.317,4.484-1,1.609h.216a.728.728,0,1,1,0,1.455h-.8v.485h.8a.728.728,0,1,1,0,1.455h-.8v.582a.728.728,0,1,1-1.455,0V9.488h-.8a.728.728,0,1,1,0-1.455h.8V7.548h-.8a.728.728,0,1,1,0-1.455h.216l-1-1.609a.727.727,0,1,1,1.234-.771l1.083,1.734,1.083-1.734a.728.728,0,0,1,1.234.771Z" transform="translate(-98.546 8.017)" fill="#88d842"/>
    <text id="売却" transform="translate(26 43)" fill="#88d842" font-size="7" font-family="HiraginoSans-W6, Hiragino Sans"><tspan x="-7" y="0">売却</tspan></text>
  </g>
</svg>
